<?xml version="1.0" encoding="UTF-8"?>
<COLLADA xmlns="http://www.collada.org/2005/11/COLLADASchema" version="1.4.1">
    <asset>
        <contributor>
            <author>VCGLab</author>
            <authoring_tool>VCGLib | MeshLab</authoring_tool>
        </contributor>
        <created>火 7月 1 01:26:07 2025 GMT</created>
        <modified>火 7月 1 01:26:07 2025 GMT</modified>
        <up_axis>Y_UP</up_axis>
    </asset>
    <library_geometries>
        <geometry id="shape0-lib" name="shape0">
            <mesh>
                <source id="shape0-lib-positions" name="position">
                    <float_array id="shape0-lib-positions-array" count="4821">-0.0816591 -0.0670622 0.243702 -0.0818899 -0.0687127 0.243717 -0.0832953 -0.0660336 0.221082 -0.0689777 -0.0621812 0.320804 -0.070478 -0.0621467 0.299127 -0.067483 -0.061987 0.316668 -0.0724191 -0.0653803 0.33446 -0.0723235 -0.0664895 0.337439 -0.0752581 -0.0677587 0.310167 -0.07643 -0.0697688 0.301696 -0.0748076 -0.0662615 0.309108 -0.0713347 -0.0636764 0.334838 -0.0731034 -0.0645823 0.317149 -0.0723591 -0.0635673 0.312259 -0.0749371 -0.0648257 0.298496 -0.0701634 -0.0627075 0.326006 -0.0727099 -0.0627109 0.292352 -0.0786432 -0.0678778 0.277196 -0.0756799 -0.0635521 0.278403 -0.0802685 -0.0691547 0.262333 -0.0813434 -0.065651 0.24196 -0.08066 -0.0642926 0.24008 -0.0769208 -0.0619606 0.239138 -0.0796024 -0.0631736 0.239104 -0.0802632 -0.0623618 0.221376 -0.0774619 -0.0617438 0.223294 -0.0791713 -0.070901 0.273368 -0.0766332 -0.0710501 0.299145 -0.0736293 -0.0688642 0.326867 -0.0711693 -0.0622421 0.346869 -0.0714613 -0.063563 0.342349 -0.0819308 -0.0639176 0.223573 -0.0835971 -0.0683937 0.219281 0.0155345 0.09 0.303133 -2.49986e-05 0.09 0.3 0.0282522 0.09 0.311695 -0.0368376 0.09 0.355604 0.040005 0.09 0.339975 -0.040005 0.09 0.340025 0.0368376 0.09 0.324396 -0.0282522 0.09 0.368305 0.0368571 0.09 0.355558 0.0282876 0.09 0.36827 0.0155805 0.09 0.376847 2.50004e-05 0.09 0.38 -0.0155345 0.09 0.376867 -0.036857 0.09 0.324442 -0.0282876 0.09 0.31173 -0.0155805 0.09 0.303153 0.040005 0.09 0.339975 0.040005 0.06 0.339975 0.0368376 0.09 0.324396 0.0368376 0.06 0.324396 0.0282522 0.06 0.311695 0.0155345 0.06 0.303133 0.0155345 0.09 0.303133 0.0282522 0.09 0.311695 -2.49986e-05 0.06 0.3 -0.0155805 0.06 0.303153 -0.0155805 0.09 0.303153 -2.49986e-05 0.09 0.3 -0.0282876 0.06 0.31173 -0.0282876 0.09 0.31173 -0.036857 0.06 0.324442 -0.036857 0.09 0.324442 -0.0400051 0.06 0.340025 -0.040005 0.09 0.340025 0.0368571 0.09 0.355558 0.0282876 0.09 0.36827 0.0368571 0.06 0.355558 0.0155805 0.09 0.376847 0.0282876 0.06 0.36827 2.50004e-05 0.09 0.38 2.50004e-05 0.06 0.38 0.0155805 0.06 0.376847 -0.0155345 0.09 0.376867 -0.0155345 0.06 0.376867 -0.0282522 0.09 0.368305 -0.0368376 0.09 0.355604 -0.0282522 0.06 0.368305 -0.0368376 0.06 0.355604 -0.0834512 -0.0631604 0.213868 -0.0815555 -0.0614115 0.215008 -0.0824919 -0.0637568 0.219134 -0.0844812 -0.0653723 0.211081 -0.0839028 -0.0656816 0.215853 -0.084298 -0.0613933 0.207791 -0.0825314 -0.0595076 0.209676 -0.0850507 -0.0636963 0.204252 -0.0848211 -0.0597877 0.204208 -0.0832408 -0.0567663 0.205516 -0.0858232 -0.0562629 0.199457 -0.083839 -0.0533767 0.202662 -0.0796406 -0.059573 0.213031 -0.0801483 -0.0564052 0.208385 -0.0785315 -0.0613937 0.218906 -0.0802762 -0.0527277 0.205665 -0.0798906 -0.0493509 0.204728 -0.0847665 -0.0518732 0.200234 -0.0865572 -0.0549595 0.194201 -0.0858293 -0.0597215 0.198306 0.0155345 0.095 0.036867 -2.49986e-05 0.095 0.04 0.0282522 0.095 0.028305 -0.0368376 0.095 -0.015604 0.040005 0.095 2.5034e-05 -0.040005 0.095 -2.50936e-05 0.0368376 0.095 0.015604 -0.0282522 0.095 -0.028305 0.0368571 0.095 -0.015558 0.0282876 0.095 -0.02827 0.0155805 0.095 -0.036847 2.50004e-05 0.095 -0.04 -0.0155345 0.095 -0.036867 -0.036857 0.095 0.015558 -0.0282876 0.095 0.02827 -0.0155805 0.095 0.036847 -0.040005 0.095 -2.50936e-05 -0.036857 0.095 0.015558 -0.0400051 0.0635 -2.50936e-05 -0.0282876 0.095 0.02827 -0.0282876 0.0635 0.02827 -0.036857 0.0635 0.015558 -0.0155805 0.095 0.036847 -0.0155805 0.0635 0.036847 -2.49986e-05 0.095 0.04 0.0155345 0.095 0.036867 0.0155345 0.0635 0.036867 -2.49986e-05 0.0635 0.04 0.0282522 0.095 0.028305 0.0368376 0.095 0.015604 0.0368376 0.0635 0.015604 0.0282522 0.0635 0.028305 0.040005 0.0635 2.50936e-05 0.040005 0.095 2.5034e-05 0.0282876 0.095 -0.02827 0.0282876 0.0635 -0.02827 0.0368571 0.095 -0.015558 0.0368571 0.0635 -0.015558 0.0155805 0.095 -0.036847 0.0155805 0.0635 -0.036847 2.50004e-05 0.095 -0.04 2.50004e-05 0.0635 -0.04 -0.0155345 0.095 -0.036867 -0.0282522 0.095 -0.028305 -0.0282522 0.0635 -0.028305 -0.0155345 0.0635 -0.036867 -0.0368376 0.095 -0.015604 -0.0368376 0.0635 -0.015604 -0.0787586 0.0697269 0.278784 -0.0809109 0.0677309 0.251576 -0.0823278 0.06913 0.237399 -0.0814653 0.0656395 0.23853 -0.0798202 0.0662673 0.257557 -0.0789054 0.0647201 0.257 -0.0794849 0.0632317 0.238398 -0.0772703 0.0635159 0.260437 -0.0758086 0.0626011 0.259647 -0.0761781 0.067687 0.302671 -0.07406 0.0645864 0.309613 -0.0746333 0.0657898 0.312247 -0.0727378 0.0634195 0.311231 -0.0713971 0.0626305 0.311063 -0.0743464 0.0620057 0.257838 -0.0701663 0.0621597 0.309004 -0.0758719 0.0692228 0.307828 -0.0728703 0.0659884 0.333542 -0.072543 0.0646704 0.332355 -0.0715743 0.0635952 0.337616 -0.0711633 0.0630285 0.333036 -0.0711693 0.0622421 0.346869 -0.0734603 0.0681158 0.328181 -0.0716562 0.0618492 0.270906 -0.0774517 0.0617399 0.222579 -0.0701595 0.0623993 0.326217 -0.0684901 0.0620273 0.319473 -0.0780587 0.070924 0.284922 -0.0802753 0.071062 0.260752 -0.0833123 0.0660432 0.220674 -0.0820566 0.0639153 0.221895 -0.0836323 0.0683947 0.218607 -0.080278 0.0623744 0.220746 -0.031446 0.0635 -0.074464 -0.0571368 0.0635 -0.057137 -0.0321984 0.0476953 -0.076219 -0.0744641 -0.0635 -0.031446 -0.0808815 -0.058 -0.010995 -0.0808195 -0.0635 0 -0.0584645 -0.049231 -0.058464 -0.0321833 -0.049231 -0.076184 -0.0593857 -0.0318479 -0.059386 -0.0326904 -0.0318479 -0.077384 -0.0761838 -0.049231 -0.032183 -0.0773841 -0.0318479 -0.03269 -0.0599271 -0.0144159 -0.059927 -0.0329884 -0.0144159 -0.07809 -0.0780896 -0.0144159 -0.032988 -0.0601041 0 -0.060104 -0.0330858 0 -0.07832 -0.0783203 0 -0.033086 -0.0599248 0.01592 -0.059925 -0.0329871 0.01592 -0.078087 -0.0780867 0.01592 -0.032987 -0.0593873 0.0318238 -0.059387 -0.0326912 0.0318238 -0.077386 -0.0773862 0.0318238 -0.032691 -0.0584919 0.0476953 -0.058492 -0.0762195 0.0476953 -0.032198 0 0.0635 -0.08082 -0.0813273 -0.0582667 0.00661016 -0.0782327 -0.0582818 0.023313 -0.0833842 -0.0276288 -0.011335 -0.0842186 5e-08 -0.011447 -0.0833846 0.0276289 -0.011332 -0.0808848 0.0580319 -0.0109651 -0.0808195 0.0635 0 -0.0813207 0.0583615 0.00642699 -0.0744641 0.0635 -0.031446 -0.0744641 0.0635 0.031446 -0.0780879 0.0585807 0.023537 -0.071307 0.0587641 0.039526 -0.0485688 0.0591658 0.065421 -0.0571368 0.0635 0.057137 -0.033665 0.0594554 0.074166 -0.0613182 0.0589557 0.053705 -0.031446 0.0635 0.074464 0 0.0600474 0.081371 -0.0172208 0.0598573 0.079544 0 0.0635 0.08082 -0.0484792 -0.0591677 0.065487 -0.0571368 -0.0635 0.057137 -0.0614643 -0.0586494 0.0536435 -0.0744641 -0.0635 0.031446 -0.0335686 -0.0594576 0.07421 -0.031446 -0.0635 0.074464 -0.0711183 -0.0583366 0.0400935 -0.0171647 -0.059859 0.07956 0 -0.0635 0.08082 0 -0.0600474 0.081371 0 0.0298565 -0.084108 0 0 -0.085 0 -0.0309608 -0.08404 0 -0.0635 -0.08082 -0.031446 -0.0635 -0.074464 -0.0571368 -0.0635 -0.057137 0.0571368 -0.0635 0.057137 0.074464 -0.0635 0.031446 0.031446 -0.0635 0.074464 -0.031446 -0.0635 -0.074464 0 -0.0635 0.08082 0 -0.0635 -0.08082 -0.031446 -0.0635 0.074464 -0.0571368 -0.0635 0.057137 -0.0744641 -0.0635 0.031446 -0.0808195 -0.0635 0 -0.0744641 -0.0635 -0.031446 -0.0571368 -0.0635 -0.057137 0.031446 -0.0635 -0.074464 0.0571368 -0.0635 -0.057137 0.074464 -0.0635 -0.031446 0.080819 -0.0635 0 -0.0744641 0.0635 0.031446 -0.036857 0.0635 0.015558 -0.0571368 0.0635 0.057137 -0.0808195 0.0635 0 -0.0400051 0.0635 -2.50936e-05 -0.0744641 0.0635 -0.031446 -0.0571368 0.0635 -0.057137 -0.0368376 0.0635 -0.015604 -0.031446 0.0635 -0.074464 -0.0282522 0.0635 -0.028305 0 0.0635 -0.08082 -0.0155345 0.0635 -0.036867 0.031446 0.0635 -0.074464 2.50004e-05 0.0635 -0.04 0.0571368 0.0635 -0.057137 0.0155805 0.0635 -0.036847 0.074464 0.0635 -0.031446 0.0368571 0.0635 -0.015558 0.0282876 0.0635 -0.02827 0.08082 0.0635 0 0.040005 0.0635 2.50936e-05 0.074464 0.0635 0.031446 0.0571368 0.0635 0.057137 0.0368376 0.0635 0.015604 0.031446 0.0635 0.074464 0.0282522 0.0635 0.028305 0 0.0635 0.08082 0.0155345 0.0635 0.036867 -0.031446 0.0635 0.074464 -2.49986e-05 0.0635 0.04 -0.0155805 0.0635 0.036847 -0.0282876 0.0635 0.02827 -0.0677645 0.0735712 0.355788 -0.0711693 0.0622421 0.346869 -0.0711693 -0.0622421 0.346869 -0.067725 -0.073657 0.355777 -0.0902995 -0.024268 0.145648 -0.0885382 -0.0484767 0.145621 -0.0900442 -0.0240641 0.092649 -0.0883149 -0.0480589 0.092689 -0.0908958 0 0.14566 -0.0906309 0 0.092634 -0.0902995 0.024267 0.145648 -0.0900443 0.0240632 0.092649 -0.0885373 0.0484744 0.145622 -0.0883155 0.0480571 0.092689 -0.0880574 -0.0238249 0.040174 -0.0863706 -0.0475617 0.04026 -0.0886363 0 0.040145 -0.0880575 0.0238239 0.040174 -0.0863701 0.0475595 0.04026 -0.0671627 0.06 0.36419 -0.0611725 0.06 0.376797 -0.0847077 -0.0713777 0.183813 -0.0838971 -0.072832 0.198301 -0.0805146 -0.0849139 0.213674 -0.0756514 -0.0735091 0.304281 -0.0806896 -0.0732312 0.250985 -0.0707036 -0.06 0.350642 -0.0695731 -0.06 0.355943 -0.0761859 -0.0930356 0.246166 -0.0720509 -0.0952816 0.288168 -0.0681619 -0.0959049 0.322554 -0.0622006 -0.0959043 0.356607 -0.0586355 -0.0957398 0.366797 -0.0534155 -0.0955327 0.376222 -0.0424626 -0.06 0.397385 -0.0397796 -0.0873992 0.393759 -0.0384819 -0.0950283 0.392005 -0.0466072 -0.0954244 0.384728 -0.050452 -0.06 0.390506 -0.0572887 -0.06 0.382594 -0.062883 -0.06 0.373792 -0.0674199 -0.06 0.363594 -0.0869248 -0.0521862 0.192555 -0.0875988 -0.0506806 0.076049 -0.0884348 -0.0376447 0.187153 -0.0885628 -0.0492208 0.119133 -0.0850967 -0.0558576 0.032389 -0.0872595 -0.0586276 0.157474 -0.0815714 -0.058 -0.00568703 -0.0901195 -0.0072064 0.178333 -0.0895533 -0.0226893 0.180948 -0.0901061 0.00880353 0.178168 -0.0889795 0.0316305 0.182494 -0.0897043 0.0199904 0.179637 -0.0879626 0.0429246 0.188173 -0.0882477 0.0524279 0.127614 -0.0866625 0.0621076 0.165381 -0.0867412 0.0539819 0.192646 -0.086025 0.0545912 0.04754 -0.0879262 0.0512542 0.089468 -0.082587 0.0574184 0.002561 -0.0853126 0.0627928 0.201196 -0.0840182 0.0738832 0.190294 -0.0839642 0.0727398 0.198301 -0.0845301 0.0652947 0.210236 -0.0807335 0.0731383 0.25101 -0.0707036 0.06 0.350642 -0.0528467 0.06 0.388002 -0.0424626 0.06 0.397385 -0.0467898 0.0953989 0.384558 -0.0397796 0.0873992 0.393759 -0.0535849 0.0955007 0.37599 -0.0384819 0.0950283 0.392005 -0.0586872 0.0956967 0.366689 -0.062214 0.0958587 0.356619 -0.0681594 0.0957537 0.322727 -0.0756922 0.0734201 0.304289 -0.0721251 0.0950238 0.28834 -0.0760635 0.0927969 0.24922 -0.0798543 0.0860483 0.220553 0.0368571 0.06 0.355558 0.0282876 0.06 0.36827 0.0627963 0.06 0.373958 0.069778 0.06 0.355053 0.040005 0.06 0.339975 0.071306 0.06 0.334741 0.071124 0.06 0.345211 0.0670684 0.06 0.364543 0.0642638 0.06 0.308638 0.0368376 0.06 0.324396 0.0486474 0.06 0.287615 0.0282522 0.06 0.311695 0.026528 0.06 0.273595 0.0155345 0.06 0.303133 -2.33985e-05 0.06 0.2685 -0.0298251 0.06 0.275018 -0.0155805 0.06 0.303153 -0.0153604 0.06 0.270169 -2.49986e-05 0.06 0.3 -0.0541977 0.06 0.293365 -0.0282876 0.06 0.31173 -0.0429325 0.06 0.282824 -0.0629401 0.06 0.306076 -0.036857 0.06 0.324442 -0.0687037 0.06 0.320202 -0.0400051 0.06 0.340025 -0.0713408 0.06 0.335228 -0.0707036 0.06 0.350642 -0.0368376 0.06 0.355604 -0.0611725 0.06 0.376797 -0.0282522 0.06 0.368305 -0.0671627 0.06 0.36419 -0.0424626 0.06 0.397385 -0.0155345 0.06 0.376867 -0.0528467 0.06 0.388002 -0.0140551 0.06 0.410035 2.50004e-05 0.06 0.38 0.0156796 0.06 0.409638 0.0426579 0.06 0.397258 0.0155805 0.06 0.376847 -2.33985e-05 0.06 0.2685 -0.0227631 0.0606028 0.272217 -0.0153604 0.06 0.270169 -0.0426951 0.0611695 0.282652 -0.0429325 0.06 0.282824 -0.0298251 0.06 0.275018 -0.0541977 0.06 0.293365 -0.058408 0.0616583 0.298754 -0.0629401 0.06 0.306076 -0.0684901 0.0620273 0.319473 -0.0687037 0.06 0.320202 -0.0711633 0.0630285 0.333036 -0.0713408 0.06 0.335228 -0.0701595 0.0623993 0.326217 -0.0715743 0.0635952 0.337616 -0.0687037 -0.06 0.320202 -0.0629401 -0.06 0.306076 -0.0429325 -0.06 0.282824 0.0698965 -0.06 0.354497 -0.0713408 -0.06 0.335228 0.071306 -0.06 0.334741 -0.0707036 -0.06 0.350642 -0.0695731 -0.06 0.355943 -0.0674199 -0.06 0.363594 -0.062883 -0.06 0.373792 -0.0572887 -0.06 0.382594 -0.050452 -0.06 0.390506 -0.0424626 -0.06 0.397385 -0.0245616 -0.06 0.407022 -0.0047929 -0.06 0.41123 0.0154454 -0.06 0.409669 0.034437 -0.06 0.402538 0.0510289 -0.06 0.389904 0.0633329 -0.06 0.372949 0.0642638 -0.06 0.308638 0.0486474 -0.06 0.287615 0.026528 -0.06 0.273595 -2.33985e-05 -0.06 0.2685 -0.0153604 -0.06 0.270169 -0.0298251 -0.06 0.275018 -0.0541977 -0.06 0.293365 -0.062502 -0.0533285 0.215187 -0.0718607 -0.0538379 0.210998 -0.0630741 -0.0486159 0.212983 -0.0188269 -0.0603607 0.245757 -0.0141204 -0.0590252 0.239553 -0.00459103 -0.06 0.246549 -0.0614468 -0.0603448 0.224976 -0.0750158 -0.0606877 0.21852 -0.063771 -0.0576044 0.218605 -0.0731056 -0.0579474 0.214275 -0.0541993 -0.0572539 0.222426 -0.0410918 -0.0597795 0.232453 -0.0443562 -0.0568708 0.225875 -0.0334223 -0.0564496 0.229182 -0.0243961 -0.059315 0.237406 -0.0231791 -0.0560617 0.231988 -0.0134268 -0.0556809 0.233862 -0.0529162 -0.0528113 0.218904 -0.0433719 -0.0522888 0.222137 -0.032501 -0.051693 0.225266 -0.0224638 -0.0511507 0.227889 -0.0130978 -0.0506236 0.229571 -0.0718349 -0.0489155 0.208959 -0.0053164 -0.0590424 0.240785 -0.0059359 -0.0568699 0.235918 -0.0064826 -0.0534018 0.231888 -0.0069909 -0.0485578 0.228638 -0.0148835 -0.0479459 0.227964 -0.0237661 -0.0477209 0.225937 -0.0516833 -0.061146 0.235061 -0.0335185 -0.0480343 0.223299 -0.0435149 -0.0482504 0.220266 -0.0533395 -0.0484134 0.216866 -0.0825004 -0.0497011 0.202696 -0.0862368 -0.0523134 0.196797 -0.0793098 -0.0478904 0.204765 -0.0458922 0.0487004 0.219202 -0.0333463 0.0481601 0.223264 -0.0503813 0.0398942 0.215348 0.0426694 -0.0289985 0.107745 0.0547249 -0.0316726 0.097623 0.0463706 -0.0390276 0.110439 -0.0215575 -0.0458949 0.225867 -0.0509265 -0.0455245 0.217013 -0.0213799 -0.0335266 0.222883 -0.0502689 -0.0331495 0.215012 0.0064717 -0.0462542 0.220598 0.0025705 -0.0341066 0.217082 0.0146401 -0.0470094 0.193356 0.0100649 -0.0347407 0.191693 0.0214546 -0.0469163 0.163919 0.0165123 -0.0346979 0.162652 0.0323605 -0.0441128 0.136184 0.0276779 -0.0327253 0.134364 -0.0214264 -0.0206364 0.221445 -0.0499971 -0.0203904 0.214064 -0.000304399 -0.0211871 0.214609 0.0078379 -0.0214717 0.190693 0.0148442 -0.021306 0.162323 0.025879 -0.0201419 0.133676 0.040948 -0.017902 0.106495 -0.0214624 -0.00772205 0.220719 -0.0498456 -0.00762948 0.21353 -0.0018373 -0.00797129 0.2133 0.0067937 -0.00805586 0.190189 0.0142768 -0.00796498 0.162252 0.0252774 -0.00753582 0.133458 0.0402316 -0.00670809 0.105974 -0.0214666 0.00831235 0.220747 -0.0498052 0.00821065 0.213402 -0.0017978 0.00861145 0.213342 0.0068271 0.00873919 0.190199 0.0142902 0.00871837 0.162246 0.0253023 0.00824889 0.133469 0.0402585 0.00731759 0.105997 -0.021421 0.0247351 0.221854 -0.0499363 0.0244995 0.213898 0.0004704 0.0253552 0.215285 0.0083753 0.0257649 0.190933 0.0151434 0.0256673 0.162373 0.0262084 0.0242563 0.133802 0.0413245 0.0215241 0.106768 -0.0214538 0.0401493 0.224289 0.0045069 0.0406167 0.218827 0.0121772 0.0413538 0.192469 0.0186738 0.0412619 0.163204 0.0297677 0.038853 0.135177 0.0443642 0.0344101 0.108977 -0.0581948 0.049101 0.214528 -0.0690762 0.0494643 0.209737 0.0580181 -0.0182038 0.089404 0.0528035 -0.0415783 0.106703 0.0611842 -0.00283836 0.0835984 0.0602311 0.0118322 0.0857673 0.0564632 0.0257048 0.093349 0.0548367 0.0375298 0.101394 0.0500974 0.0461461 0.114304 0.0415688 0.0465164 0.124834 0.032601 0.0488282 0.142368 0.0269879 0.0500583 0.155692 -0.0794106 0.0495544 0.204442 -0.0766188 0.0366967 0.203643 -0.0733165 0.012742 0.203993 -0.0746942 0.0251459 0.203738 -0.072908 0.000193205 0.204151 -0.0735661 -0.0122731 0.204185 -0.0752322 -0.0245602 0.204065 -0.0774188 -0.0361534 0.203967 0.0070802 -0.0499733 0.222813 0.0140317 -0.0494252 0.20704 0.0170603 -0.0508416 0.191805 0.0218537 -0.052453 0.17514 0.0277088 -0.0528324 0.159616 0.0342965 -0.0518895 0.14452 0.0412747 -0.0503406 0.130909 0.0488363 -0.0490595 0.119517 0.0220687 0.0504114 0.169252 0.0171131 0.0495149 0.186772 0.0139965 0.0482302 0.203361 0.0083338 0.0494185 0.220974 -0.0069661 0.048497 0.228683 -0.0129752 0.048022 0.228395 -0.0198214 0.0476576 0.226912 -0.0264543 0.0477844 0.225244 -0.0861468 0.0529066 0.196579 -0.0781245 -0.0248579 0.202384 -0.0797136 -0.0365894 0.202582 -0.0890703 -0.0268896 0.184927 -0.0879411 -0.0349294 0.189986 -0.0854681 -0.03815 0.196442 -0.0869852 -0.033069 0.192635 -0.0854707 -0.0258819 0.194831 -0.0838246 -0.0376027 0.198776 -0.0833523 -0.0255291 0.197714 -0.0818825 -0.0370783 0.200834 -0.0808735 -0.0251849 0.200246 -0.0888466 -0.00661238 0.185906 -0.0898163 -0.00595752 0.181808 -0.0872874 -0.0131867 0.190321 -0.0853443 -0.0129998 0.193874 -0.0828934 -0.0128116 0.197096 -0.0800267 -0.0126197 0.199926 -0.0768638 -0.0124357 0.202313 -0.0873255 0.000206166 0.189775 -0.0852601 0.000203456 0.193475 -0.0826762 0.000200726 0.196833 -0.0796771 0.000198059 0.199769 -0.0763706 0.000195521 0.202231 -0.0885108 0.0203102 0.186859 -0.089312 0.0222634 0.18342 -0.0871996 0.0136365 0.190134 -0.0852232 0.0134555 0.193695 -0.0827381 0.013272 0.196921 -0.0798385 0.013084 0.19975 -0.0766441 0.0129029 0.202131 -0.0869517 0.026757 0.191356 -0.0852085 0.0264224 0.194536 -0.0830178 0.0260842 0.197425 -0.0804677 0.0257525 0.199954 -0.07765 0.0254358 0.202078 -0.0874502 0.0397789 0.190898 -0.0864568 0.0392341 0.193614 -0.0850741 0.0386806 0.196185 -0.0833236 0.0381353 0.198523 -0.0812762 0.0376139 0.200571 -0.0790064 0.0371285 0.202294 -0.0822542 0.0499808 0.202415 -0.0845345 0.0522471 0.200154 -0.082523 0.0637575 0.218483 -0.0839199 0.0656939 0.215321 -0.0830389 0.0568613 0.205274 -0.0800057 0.0533821 0.205638 -0.0835883 0.0537907 0.202613 -0.085701 0.0564467 0.199341 -0.0849694 0.0593888 0.202863 -0.0841963 0.0617356 0.20798 -0.0823012 0.0602 0.21037 -0.0833767 0.0633015 0.213783 -0.0813973 0.0617823 0.215616 -0.0799288 0.0570726 0.208622 -0.0795035 0.0598697 0.213044 -0.0785461 0.0614016 0.218262 -0.019835 0.0532501 0.230107 -0.0133214 0.0535889 0.231861 -0.0707019 0.0581648 0.215164 -0.0726668 0.0607123 0.21927 -0.0138247 0.057641 0.236785 -0.0206623 0.0574326 0.234677 -0.014651 0.0598736 0.242624 -0.0328141 0.0600764 0.236755 -0.0297156 0.0575221 0.232022 -0.0487693 0.0604071 0.23069 -0.047061 0.0579186 0.225839 -0.0608731 0.0605718 0.225294 -0.0590291 0.0580567 0.220811 -0.0264111 0.0532715 0.22835 -0.0334883 0.0535445 0.226167 -0.0458642 0.0539036 0.22195 -0.0577369 0.0541257 0.217247 -0.0693282 0.0543129 0.211936 -0.0063924 0.0533958 0.232014 -0.0058277 0.0568623 0.235984 -0.0052337 0.0590219 0.240789 -0.00455676 0.0599996 0.246629 -0.023577 0.0604769 0.244725 -0.0553207 0.0612291 0.233173 0.0242545 -0.0608269 0.230177 0.0297808 -0.061025 0.219611 0.0441113 -0.0613996 0.218014 0.0246651 -0.0606085 0.27288 0.0513948 -0.0613724 0.258603 0.0330062 -0.0611759 0.207092 0.0328729 -0.0611685 0.207575 0.0162834 -0.0605783 0.238468 0.0058576 -0.0602803 0.24423 0.037178 -0.0613913 0.184563 0.0416646 -0.0615738 0.190884 0.0410062 -0.0612174 0.171107 0.0457721 -0.0610856 0.285072 0.0661959 -0.0614873 0.307778 0.0615731 -0.0613916 0.303637 0.070333 -0.0614908 0.327134 -0.0073516 0.08685 0.40638 -0.0018372 0.0867547 0.406734 0.0149441 0.086455 0.405142 0.0450118 0.0877922 0.388342 0.0453909 0.0869255 0.388717 0.0234063 0.0870454 0.402332 0.0603405 0.0877771 0.367482 0.0597079 0.0886255 0.36722 0.0608075 0.0868081 0.367665 0.0659621 0.0884782 0.344311 0.0652066 0.0892854 0.34425 0.0665458 0.0875403 0.34434 0.0650178 0.0890437 0.320409 0.0642659 0.0898335 0.320497 0.0655983 0.0881179 0.320339 0.0592789 0.0899592 0.29298 0.0605645 0.0880454 0.293366 0.0620733 0.0906131 0.311409 -0.0014058 0.0871096 0.40665 0.0354997 0.0861776 0.396706 0.0652247 0.0864972 0.355287 0.0521792 0.0861415 0.381962 0.0660601 0.0871164 0.321739 -0.0267705 0.0871371 0.40122 0.0644681 0.090106 0.335613 0.0571051 0.0914075 0.292211 0.0618682 0.089524 0.358807 0.0484623 0.0887004 0.383704 0.0260137 0.087798 0.400748 0.0537551 0.0881816 0.266443 0.0516072 0.0912904 0.266906 0.0435318 0.0524195 0.132125 0.0468266 0.0526175 0.128364 0.0078996 0.0603354 0.243712 0.0115529 0.0598834 0.236674 0.034339 0.0590555 0.169273 0.0412294 0.0609862 0.171572 0.0420801 0.0582804 0.152093 0.0342796 0.0608895 0.188341 0.0277145 0.0585935 0.186892 0.0294234 0.0604313 0.205871 0.0232584 0.0578227 0.204637 0.0238138 0.0601988 0.223295 0.0186024 0.0577312 0.220586 0.0085177 0.057631 0.231999 0.0354839 0.0546286 0.149602 0.0280474 0.0553862 0.167409 0.0218841 0.0546986 0.185747 0.0179134 0.0537551 0.203675 0.0140721 0.0538781 0.218304 0.0058292 0.0540509 0.227976 0.0441104 0.057144 0.143817 0.0421745 0.0601231 0.159792 0.04112 0.0614059 0.176106 0.0379958 0.0614062 0.187088 0.0323871 0.0611196 0.214398 0.0191445 0.0606613 0.236658 0.0272866 0.0609234 0.226667 0.0462066 0.0626277 0.1594 0.0461774 0.0582484 0.143598 0.0444531 0.0609851 0.159602 0.0477264 0.0600282 0.143345 0.0487333 0.0538402 0.127985 0.0501486 0.0555755 0.127484 0.0472836 0.0647962 0.159157 0.0486645 0.0622172 0.142991 0.0510063 0.0576261 0.126838 0.0472907 0.0676923 0.163912 0.0470025 0.0681951 0.17597 0.0479613 0.0664066 0.152366 0.0490687 0.064209 0.141003 0.0510088 0.0602351 0.127173 0.0540981 0.0532112 0.111553 0.0435969 0.0620184 0.17605 0.0455432 0.0635159 0.176006 0.0467484 0.0656557 0.175977 0.0531502 0.0491497 0.113074 0.0378104 0.0998498 0.296106 0.0278384 0.100636 0.271091 0.0410621 0.09876 0.295435 0.0104307 0.0880971 0.405179 -0.0161127 0.0879841 0.404496 -0.0156633 0.0929476 0.402936 -0.0155692 0.0939373 0.402614 0.0093107 0.0938022 0.401676 0.0090829 0.0949339 0.40096 -0.0157964 0.0914696 0.403412 0.0095397 0.0926671 0.402386 0.0097671 0.0915286 0.403092 -0.0159768 0.0894843 0.404036 0.0099905 0.0903879 0.403792 0.0102115 0.0892441 0.404488 0.0305781 0.0953035 0.389508 0.0295496 0.0966045 0.388461 0.0315976 0.0939928 0.390556 0.032611 0.0926728 0.391597 0.0336211 0.0913458 0.392624 0.0346232 0.090009 0.393647 0.0356193 0.0886629 0.394663 0.0440486 0.0967377 0.369443 0.0419327 0.098125 0.368469 0.0461535 0.0953292 0.37041 0.048247 0.0938993 0.371373 0.0503269 0.0924494 0.372329 0.0523934 0.0909791 0.37328 0.0544471 0.0894879 0.374225 0.0494502 0.0974116 0.345048 0.0466202 0.0987542 0.344665 0.0522654 0.0960394 0.345434 0.055066 0.094638 0.345818 0.0578483 0.0932095 0.346195 0.0606176 0.0917518 0.346571 0.0633725 0.0902655 0.346943 0.0484596 0.0974427 0.320076 0.0444927 0.0991129 0.32034 0.0551055 0.0944055 0.31876 0.0620859 0.0909697 0.318174 0.0442869 0.0975591 0.294779 0.0490182 0.0955432 0.293478 0.0536942 0.093266 0.292854 0.0399801 0.100467 0.314974 -0.0267705 0.0871371 0.40122 0.0430051 0.100168 0.328477 0.0418891 0.0997849 0.359816 0.0438254 0.100054 0.34421 0.0371026 0.0989854 0.374812 0.0157014 0.0965254 0.397275 0.0282282 0.0978109 0.387789 0.000786699 0.0956513 0.402318 -0.0149626 0.0949416 0.402366 -0.0299976 0.0947602 0.397398 0.0401788 0.0970613 0.268915 -0.0682156 0.0996502 0.250806 -0.0619825 0.100706 0.253819 -0.0670418 0.0993162 0.28782 -0.0727473 0.0582075 0.090249 -0.0708029 0.0577256 0.04858 -0.0587264 0.058325 0.088467 -0.0729933 0.0636013 0.129919 -0.0594611 0.0640756 0.126637 -0.071101 0.0761394 0.166184 -0.0583124 0.0765077 0.161763 -0.0676568 0.0897845 0.197511 -0.0557757 0.0902156 0.192967 -0.0646868 0.0972148 0.224844 -0.0533076 0.0980157 0.221588 -0.050837 0.101676 0.251593 -0.0459735 0.0643329 0.123349 -0.0447277 0.0583988 0.086706 -0.0455719 0.0764888 0.157362 -0.0439145 0.0901324 0.188425 -0.0419491 0.098329 0.218331 -0.039668 0.102192 0.249364 -0.0325599 0.0644096 0.120063 -0.0307676 0.0584046 0.084966 -0.0329116 0.0761882 0.152991 -0.0321113 0.0897177 0.183901 -0.0306327 0.098342 0.215078 -0.0284716 0.102397 0.247127 -0.0106198 0.0643082 0.114655 -0.0122226 0.0754602 0.145849 -0.0126599 0.0886966 0.176445 -0.0118593 0.0979464 0.209666 -0.0096621 0.10225 0.243357 0.0080684 0.0746042 0.138848 0.0109241 0.0640021 0.109301 0.0063761 0.0873885 0.169144 0.0065485 0.0969383 0.204332 0.0090906 0.101246 0.239583 0.0321436 0.0634013 0.103991 0.0372044 0.0567641 0.076764 0.0280436 0.0733176 0.13197 0.0252748 0.085229 0.161899 0.0247582 0.0944601 0.199014 0.0277154 0.0981312 0.235822 -0.0653946 0.0576748 0.0506286 -0.0759394 0.0577564 0.0319384 -0.0440702 0.102283 0.283771 -0.020746 0.103074 0.279658 0.0033663 0.102947 0.275406 0.046236 0.0913903 0.237752 0.0418929 0.0908851 0.204679 0.0222252 0.0577045 0.080652 -0.0824135 0.0579384 0.039206 -0.080304 0.057838 0.020246 -0.0811404 0.057986 0.075738 -0.0791586 0.0597251 0.111484 -0.0766636 0.0674803 0.145639 -0.0738035 0.080965 0.177908 -0.0702805 0.0938456 0.213531 -0.0819393 0.0579668 0.00263 0.0401852 0.0867401 0.173978 0.0108699 0.0581889 0.082962 0.0339359 0.0567659 0.076445 -6.39819e-06 0.058334 0.083621 -0.0189791 0.0581202 0.081351 -0.0375096 0.0577731 0.074444 -0.0544483 0.0576322 0.062857 0.0401531 0.0780263 0.142802 0.0432159 0.069725 0.121254 0.0487415 0.0621951 0.098383 0.0658674 0.0507895 0.051019 0.0564112 0.0559224 0.074587 0.0588829 0.0527282 0.0591278 0.0472881 0.0550485 0.0690538 0.0569064 0.0563014 0.0769198 0.0584895 0.0557082 0.077465 0.047831 0.0902073 0.239497 0.0446946 0.089853 0.21299 0.0433727 0.0907892 0.211285 0.0487523 0.0884584 0.239289 0.0456009 0.0878288 0.211136 0.0424113 0.0875478 0.183204 0.04133 0.088121 0.183102 0.0433436 0.0867597 0.183337 0.0440845 0.0858226 0.183492 0.0448213 0.0842306 0.183116 0.042444 0.0814128 0.155554 0.041055 0.0818972 0.155291 0.0437238 0.0806543 0.155882 0.0448004 0.0796448 0.15626 0.0456275 0.0784664 0.15666 0.0462761 0.0770498 0.158033 0.0443906 0.0720942 0.128778 0.0429415 0.0723282 0.128451 0.0458 0.0715928 0.129198 0.0470852 0.0708146 0.129699 0.0481505 0.0697838 0.130256 0.0489518 0.0685838 0.130832 0.0494821 0.0672943 0.131396 0.0501047 0.0631435 0.10301 0.0488348 0.0633838 0.102642 0.0513317 0.0626605 0.103443 0.0524411 0.0619277 0.103927 0.0533493 0.060969 0.104435 0.0540199 0.0598612 0.104935 0.0544492 0.058677 0.105403 0.0593545 0.0550995 0.077867 0.0603186 0.05399 0.0780893 0.0611399 0.0519426 0.0784799 0.0497303 0.0660369 0.131905 0.0546298 0.057528 0.10581 0.0690574 0.0474632 0.052811 0.0681182 0.0497775 0.052011 0.031446 0.0635 0.074464 0.0138378 0.0597723 0.080192 0.076184 -0.049231 0.032183 0.082681 -0.049231 0 0.074464 -0.0635 0.031446 0.076184 -0.049231 -0.032183 0.077384 -0.0318479 -0.03269 0.083984 -0.0318479 0 0.0584645 -0.049231 -0.058464 0.0593857 -0.0318479 -0.059386 0.0321833 -0.049231 -0.076184 0.0326904 -0.0318479 -0.077384 0.07809 -0.0144159 -0.032988 0.08475 -0.0144159 0 0.0599271 -0.0144159 -0.059927 0.0329884 -0.0144159 -0.07809 0.07832 0 -0.033086 0.085 0 0 0.0601041 0 -0.060104 0.0330858 0 -0.07832 0.078087 0.01592 -0.032987 0.084746 0.01592 0 0.0599248 0.01592 -0.059925 0.0329872 0.01592 -0.078087 0.077386 0.0318238 -0.032691 0.083986 0.0318238 0 0.0593873 0.0318238 -0.059387 0.0326913 0.0318238 -0.077386 0.076219 0.0476953 -0.032198 0.08272 0.0476953 0 0.0584919 0.0476953 -0.058492 0.0321984 0.0476953 -0.076219 0.0790612 0.0459447 0.0249114 0.073825 -0.0483676 0.03714 0.0670126 -0.0510156 0.047955 0.074464 -0.0635 -0.031446 0.080819 -0.0635 0 0.0571368 -0.0635 -0.057137 0.031446 -0.0635 -0.074464 0.031446 0.0635 -0.074464 0.0571368 0.0635 -0.057137 0.0568649 -0.0541098 0.05917 0.0571368 -0.0635 0.057137 0.0447682 -0.0566798 0.068434 0.0336351 -0.0582758 0.074338 0.031446 -0.0635 0.074464 0.0114807 -0.0598545 0.080563 0.022065 -0.0593398 0.078445 0.0754751 0.0475012 0.0342267 0.076219 0.0476953 0.032198 0.081084 3e-07 0.025501 0.0790662 -0.045931 0.02489 0.074464 0.0635 -0.031446 0.074464 0.0635 0.031446 0.08082 0.0635 0 0.0624885 0.0525242 0.053457 0.0571368 0.0635 0.057137 0.0697095 0.0498431 0.0442292 0.0266313 0.0589877 0.077057 0.0408457 0.0573214 0.070759 0.0536564 0.0549143 0.061975 0.0289792 -0.0574543 0.076996 0.0148042 -0.0583581 0.08087 0.0235006 -0.0576286 0.080295 0.064867 -0.0510926 0.052312 0.075468 -0.0474733 0.0341788 0.0693029 -0.0498246 0.045287 0.0422254 -0.0559709 0.070718 0.0542478 -0.0539011 0.062183 0.0623936 -0.0519387 0.054229 0.0149136 -0.0580742 0.0823947 0.0062183 -0.0582743 0.083367 -6.39819e-06 -0.058334 0.083621 0.0569369 -0.0531737 0.060994 0.0356718 -0.0565845 0.075641 0.0469082 -0.0550808 0.069133 -0.0673044 -0.0992739 0.287868 -0.0426733 -0.102396 0.283525 -0.0623087 -0.100667 0.253866 0.054246 -0.0571301 0.079645 0.0323548 -0.0630315 0.102731 0.0456087 -0.065912 0.110297 -0.0588149 -0.0581576 0.084845 -0.0730239 -0.0581042 0.086477 -0.0597075 -0.0636518 0.124998 -0.0734156 -0.0631706 0.12825 -0.0446513 -0.0581819 0.083238 -0.0460699 -0.0639191 0.121745 -0.0305286 -0.0581469 0.081656 -0.0325101 -0.0640069 0.118495 -0.0105198 -0.0639206 0.113192 -0.0585376 -0.0765048 0.161841 -0.0714677 -0.0761227 0.166311 -0.0456824 -0.0764905 0.1574 -0.0329116 -0.0761882 0.152991 -0.0122237 -0.0754603 0.145849 0.0110786 -0.0636225 0.107941 0.0080672 -0.0746042 0.138848 0.0280428 -0.0733177 0.13197 -0.0559772 -0.0902114 0.193039 -0.0680034 -0.089761 0.197639 -0.0440198 -0.0901333 0.18846 -0.0321115 -0.089716 0.183896 -0.0126611 -0.0886949 0.176441 0.0063752 -0.0873868 0.169139 0.0252742 -0.0852274 0.161894 -0.0534985 -0.0980052 0.221633 -0.0650208 -0.0971786 0.22493 -0.042051 -0.0983258 0.21835 -0.0306333 -0.0983399 0.215067 -0.0118611 -0.0979441 0.209655 0.006547 -0.0969361 0.20432 0.0247568 -0.0944582 0.199002 -0.0510263 -0.101664 0.251613 -0.0397688 -0.102188 0.249366 -0.028473 -0.102396 0.247109 -0.009665 -0.102249 0.243339 0.0090876 -0.101245 0.239565 0.0277121 -0.0981306 0.235804 -0.0689209 -0.0994633 0.249721 0.0402858 -0.0771784 0.140656 0.0395446 -0.0861235 0.170363 0.0426788 -0.0914884 0.215529 0.0404622 -0.0900227 0.193151 0.046561 -0.0914699 0.240838 0.0516081 -0.0912904 0.266908 0.0401667 -0.0970912 0.268917 0.0278383 -0.100636 0.271091 0.0050896 -0.102885 0.275102 -0.0746294 -0.0794661 0.175047 -0.0715579 -0.0930865 0.211489 -0.0757169 -0.0663429 0.141449 -0.0772217 -0.0592054 0.106212 -0.0801207 -0.0579648 0.069538 -0.0784544 -0.0577973 0.0252699 -0.0827063 -0.0579426 0.031997 -0.0713934 -0.0576763 0.0417514 -0.0814294 -0.0579134 0.011101 -0.0607969 -0.0576372 0.056601 -0.0485256 -0.0576611 0.0674135 -0.0166347 -0.05814 0.0816164 -0.033666 -0.0578259 0.0760228 -0.0815714 -0.058 -0.00568703 -0.0178542 -0.10307 0.279148 0.0595308 -0.0889754 0.291091 0.0650748 -0.0882122 0.316362 0.0591972 -0.0878779 0.288247 0.0584819 -0.0903781 0.291518 0.0644816 -0.0891531 0.316461 0.0637101 -0.0899508 0.316581 0.066086 -0.0885682 0.34215 0.0653197 -0.0893799 0.342144 0.0666703 -0.0876167 0.342147 0.060331 -0.0878082 0.367453 0.0596746 -0.0886691 0.367181 0.061072 -0.0863631 0.367507 0.0454181 -0.0869565 0.388722 0.0450227 -0.0878587 0.388331 0.0229501 -0.0864168 0.402794 0.0233861 -0.0870849 0.402314 0.0296405 -0.0879558 0.398895 0.0670231 -0.0867645 0.341091 0.0649844 -0.087286 0.313287 0.0454293 -0.0860837 0.38917 -0.0267705 -0.0871371 0.40122 -0.0033183 -0.0867778 0.406701 0.0018104 -0.0871663 0.406582 0.0517348 -0.0888883 0.379509 0.0638918 -0.0903227 0.32563 0.0633634 -0.0896903 0.352558 0.0599474 -0.0908234 0.30059 0.0537548 -0.088181 0.266439 0.0139466 -0.0543653 0.219135 0.0054857 -0.0542452 0.228307 0.0230536 -0.0602415 0.224108 0.0108706 -0.0598217 0.237019 0.0181789 -0.057958 0.221436 0.0079947 -0.0576613 0.232383 0.0288867 -0.0605851 0.207151 0.0232359 -0.0582689 0.205982 0.0335459 -0.0609912 0.190333 0.0275917 -0.0591182 0.189077 0.0340681 -0.0597378 0.1722 0.0182488 -0.0545739 0.205074 0.0222685 -0.055793 0.188007 0.028432 -0.0568686 0.170495 0.0415849 -0.0592268 0.155696 0.0357634 -0.0565597 0.153507 0.0438082 -0.0549156 0.137166 0.0462065 -0.0538241 0.131137 0.0421089 -0.0599705 0.157822 0.0439031 -0.0574836 0.144202 0.0454847 -0.0618972 0.211699 0.0439156 -0.0620069 0.191298 0.0459323 -0.0634973 0.191213 0.0470919 -0.0657224 0.191204 0.0473189 -0.0632578 0.211531 0.0483748 -0.0652888 0.211468 0.0497111 -0.0630459 0.231757 0.0506614 -0.0648837 0.231651 0.0480614 -0.061815 0.231994 0.053135 -0.0628407 0.251837 0.0539686 -0.0644621 0.251702 0.0516927 -0.0617544 0.252123 0.0576139 -0.0626222 0.2717 0.0583017 -0.0639773 0.27155 0.0564232 -0.061724 0.271739 0.0631615 -0.0623673 0.291333 0.0636751 -0.0633821 0.291201 0.0683401 -0.0621901 0.311214 0.067692 -0.0616356 0.311339 0.0655166 -0.064063 0.297673 0.070333 -0.0614908 0.327134 0.0595954 -0.0651275 0.276264 0.0688666 -0.0630583 0.312906 0.0542453 -0.0660318 0.25243 0.0507262 -0.0666764 0.230973 0.0483822 -0.0672801 0.209421 0.0471683 -0.0679617 0.188175 0.047041 -0.0682329 0.170887 0.0467822 -0.0656071 0.170944 0.0435421 -0.0618575 0.171061 0.0455417 -0.0634013 0.171004 0.070996 -0.0614844 0.331522 0.070142 0.0614912 0.326133 0.0611859 0.0613851 0.30299 0.0642638 0.06 0.308638 0.0453798 0.0610773 0.284747 0.0486474 0.06 0.287615 0.071306 0.06 0.334741 0.026528 0.06 0.273595 0.0244134 0.0606036 0.272788 0.070996 0.0614844 0.331522 0.0566378 -0.0461582 0.101477 0.0529864 -0.0562149 0.1166 0.0560061 -0.0453495 0.103757 0.0582089 0.0263217 0.0919269 0.0571849 0.0410087 0.099363 0.057149 0.0443561 0.0996882 0.060684 0.0292466 0.0882526 0.056564 0.0391404 0.100054 0.0598243 0.0276817 0.0900919 0.0625868 0.0167696 0.0826407 0.0617751 0.0126707 0.0840242 0.0627163 -0.00311557 0.0815874 0.0639526 0.00108872 0.078502 0.0618928 -0.0194299 0.084562 0.0629327 -0.0166994 0.0814549 0.0612101 -0.018819 0.085857 0.0600147 -0.0179648 0.0874186 0.0590352 -0.0333877 0.0929199 0.0599764 -0.0341353 0.0901851 0.058088 -0.0323072 0.094281 0.0572158 -0.0315037 0.095126 0.0562181 -0.0307738 0.09585 0.0552898 -0.0440044 0.104877 0.0543411 -0.0426701 0.105674 0.0519524 -0.0521859 0.118433 0.0476489 -0.0604097 0.143766 0.0460301 -0.0586208 0.144024 0.048117 -0.0551935 0.130997 0.0495328 -0.057051 0.130765 0.0463143 -0.0624579 0.157242 0.0444691 -0.0608195 0.157579 0.0486324 -0.0626373 0.143413 0.0503929 -0.0592063 0.130379 0.0474424 -0.0646794 0.156867 0.0506138 -0.0614982 0.129786 0.0488546 -0.0650801 0.142939 0.0476749 -0.0672339 0.156494 -0.0525519 0.100288 0.326835 -0.0569344 0.100533 0.297546 -0.0400835 0.102147 0.315051 -0.042468 0.102277 0.298838 -0.038124 0.101964 0.327042 -0.0505575 0.10012 0.33739 -0.0481042 0.0997282 0.351459 -0.0346172 0.10138 0.348663 -0.0297556 0.103037 0.290905 -0.0273266 0.103012 0.306294 -0.0244437 0.102822 0.322707 -0.0206039 0.102502 0.339212 -0.0150491 0.103163 0.29538 -0.0108261 0.103132 0.317611 -0.00662401 0.102819 0.339955 -0.0053224 0.103117 0.286429 -0.00219039 0.10316 0.302955 0.00148566 0.103082 0.31943 0.00403031 0.102858 0.337527 0.00891471 0.10295 0.291482 0.0128322 0.102886 0.308946 0.0177387 0.102578 0.332903 0.0192418 0.102262 0.282182 0.0225626 0.102281 0.294841 0.0268492 0.10208 0.309893 0.0311983 0.101746 0.327734 -0.0222751 0.102244 0.345968 0.0430051 0.100168 0.328477 0.0399801 0.100467 0.314974 -0.0653024 0.0982885 0.32241 -0.0611142 0.0968996 0.356383 -0.0262203 0.0582316 0.0781538 -0.0809903 0.0581433 0.0107917 -0.0808848 0.0580319 -0.0109651 -0.0256395 0.0589966 0.077534 -0.0130286 0.0592285 0.080591 -0.0131991 0.0584571 0.08135 -0.0376058 0.058727 0.072516 -0.0380166 0.0580604 0.0730084 -0.0485047 0.0583693 0.0658375 -0.0752552 0.0583689 0.031748 -0.0643286 0.0583398 0.0503691 -0.0493116 0.0577323 0.066425 -4.49829e-06 0.0587253 0.082141 -0.0700528 0.0978836 0.288919 -0.0685714 0.0976784 0.306846 -0.0647071 0.0970403 0.340415 -0.066779 0.0974271 0.324631 -0.0578684 0.0963934 0.366625 -0.0529089 0.0958984 0.376156 0.0438254 0.100054 0.34421 0.0308981 0.101797 0.339962 0.00713168 0.0977748 0.393057 0.0157014 0.0965254 0.397275 -0.00204518 0.096948 0.397028 -0.0427979 0.0982155 0.373615 -0.047222 0.09866 0.364886 -0.0318372 0.0999153 0.371298 -0.0351921 0.100404 0.362631 -0.0387082 0.0977756 0.379906 -0.0284356 0.0994061 0.377542 -0.0307102 0.0970721 0.388356 -0.0220034 0.0985555 0.385486 -0.0200501 0.0963765 0.39548 -0.0134783 0.0976295 0.392257 -0.007127 0.0959365 0.400467 -0.0208333 0.101038 0.368881 -0.0231766 0.101515 0.360311 -0.0180835 0.100496 0.375161 -0.013137 0.0995644 0.382847 -0.0067054 0.0984928 0.3895 -0.0097626 0.101722 0.366369 -0.0114434 0.102163 0.357977 -0.0076004 0.101163 0.372749 -0.0040672 0.100181 0.380435 0.000309402 0.0990224 0.3872 0.0050166 0.102136 0.36285 0.00373344 0.102533 0.354461 0.0065168 0.101577 0.369501 0.0083805 0.100575 0.377567 0.0101171 0.0993621 0.384852 0.0195294 0.102049 0.359288 0.0178839 0.102413 0.350929 0.0205077 0.101507 0.366281 0.0209848 0.100511 0.375165 0.0202299 0.0993056 0.383349 0.0184035 0.097868 0.391087 0.0324521 0.101576 0.347908 0.0336566 0.1012 0.355628 0.0342716 0.100655 0.363114 0.0335521 0.0996878 0.373249 0.0304643 0.0985759 0.382741 0.0282282 0.0978109 0.387789 0.000786699 0.0956513 0.402318 0.0371026 0.0989854 0.374812 -0.0299976 0.0947602 0.397398 -0.0384819 0.0950283 0.392005 -0.0149626 0.0949416 0.402366 0.0418891 0.0997849 0.359816 0.036955 -0.101157 0.330098 0.0350338 -0.101365 0.34257 0.0430063 -0.100168 0.328477 -0.0282032 -0.101262 0.358832 -0.0435949 -0.0994059 0.362565 -0.0248188 -0.100779 0.36891 -0.0395543 -0.098911 0.372081 -0.0127992 -0.102237 0.355009 -0.0100149 -0.101779 0.36555 0.0022519 -0.102604 0.351188 0.0045847 -0.102174 0.362066 0.0133531 -0.102569 0.348322 0.0154734 -0.102177 0.359374 0.0242477 -0.102209 0.345457 0.0262322 -0.101813 0.356636 0.0369043 -0.100886 0.353794 -0.0206639 -0.100036 0.377426 -0.0341165 -0.0982589 0.380659 -0.0070218 -0.101001 0.374213 0.0066236 -0.101395 0.371069 0.0169482 -0.101421 0.368763 0.0272506 -0.101067 0.366498 0.0375403 -0.100129 0.364277 -0.0149616 -0.0991007 0.384922 -0.0262107 -0.0974808 0.388708 -0.0033591 -0.09999 0.381643 0.0084772 -0.100358 0.378901 0.0175944 -0.100392 0.377178 0.0268213 -0.100057 0.375767 0.0361369 -0.0991572 0.374676 -0.0098257 -0.0983581 0.389671 -0.019038 -0.0969164 0.393668 0.00134542 -0.0987667 0.388569 0.015131 -0.0995365 0.383314 0.024225 -0.0989682 0.384122 -0.0039232 -0.0976158 0.393857 -0.0108242 -0.0964589 0.397656 0.0156841 -0.0986026 0.388143 0.00304702 -0.0968782 0.397354 -0.00649999 -0.0953319 0.402962 0.0162491 -0.0974604 0.39331 0.043786 -0.100032 0.345499 0.0413188 -0.0996968 0.362292 0.0353312 -0.0987405 0.378196 0.0245114 -0.0974133 0.391283 0.0098765 -0.0960881 0.399889 -0.0384819 -0.0950283 0.392005 -0.0235982 -0.0947193 0.400187 -0.0515363 -0.0957817 0.378353 -0.0574266 -0.0963249 0.367871 -0.0611597 -0.0968883 0.356388 -0.0415489 -0.100574 0.351133 -0.000191798 -0.102905 0.340052 -0.0207293 -0.102418 0.345555 0.0219494 -0.102416 0.335143 0.0317803 -0.10176 0.325254 -0.0170782 -0.0589838 0.0800278 -0.0816705 -0.0579754 0.00651792 -0.0618092 -0.0578121 0.0544577 -0.0488172 -0.0583193 0.0657383 -0.033853 -0.0585307 0.0745606 -0.0815714 -0.058 -0.00568703 -0.0808815 -0.058 -0.010995 -0.0644551 -0.0970887 0.34232 -0.0701934 -0.0978922 0.288008 -0.0680014 -0.0975752 0.313829 -0.0637968 -0.0976433 0.339382 -0.0836241 -0.0577948 0.031976 -0.0843443 -0.0573239 0.03196 -0.0825768 -0.0573943 0.069683 -0.0848881 -0.0566588 0.031903 -0.084841 -0.0558753 0.069679 -0.0865415 -0.0537471 0.069537 -0.0848838 -0.0557355 0.106951 -0.0875013 -0.0520357 0.107319 -0.0812595 -0.0584661 0.106557 -0.0843903 -0.0613306 0.143323 -0.0871242 -0.0569206 0.144757 -0.0803766 -0.0647134 0.142139 -0.0821866 -0.0747881 0.178307 -0.0845217 -0.0706424 0.180218 -0.0785826 -0.0780471 0.176703 -0.0782706 -0.0886142 0.213493 -0.0752327 -0.0915403 0.212283 -0.0719826 -0.0977475 0.249953 -0.0743633 -0.0953778 0.25043 -0.0355655 -0.101609 0.341275 -0.0014041 -0.103088 0.286054 -0.0152804 -0.103173 0.294998 0.00162783 -0.103095 0.3001 0.0108136 -0.102899 0.286336 -0.0428076 -0.102282 0.297663 -0.055867 -0.100657 0.296794 -0.0402619 -0.102156 0.314508 -0.0536621 -0.100462 0.317457 -0.0296934 -0.103046 0.292505 -0.0258261 -0.102945 0.315317 -0.0118073 -0.103152 0.313536 0.0154275 -0.102785 0.305269 0.0202032 -0.102236 0.282373 0.0258883 -0.10216 0.302973 -0.0383654 -0.101981 0.325922 -0.0516111 -0.100326 0.330126 0.00727018 -0.102876 0.327549 -0.0211942 -0.102609 0.336133 -0.00683972 -0.102947 0.33344 0.0199342 -0.102521 0.323292 -0.049317 -0.0999835 0.344843 0.0357519 -0.100769 0.300762 -0.0853103 0.0561606 0.039037 -0.0845683 0.0570696 0.039081 -0.0744027 0.0921694 0.214546 -0.0714817 0.0978731 0.251175 -0.0742 0.0952067 0.251683 -0.0778874 0.0888576 0.215891 -0.0818101 0.0758573 0.181622 -0.0842809 0.0714537 0.183561 -0.0780072 0.0792828 0.179888 -0.0844569 0.0629221 0.147464 -0.0869126 0.0589083 0.148807 -0.0808294 0.0660044 0.14633 -0.0853897 0.0568052 0.111924 -0.0875289 0.0537226 0.112289 -0.0824034 0.0590932 0.111646 -0.0853018 0.0561064 0.075607 -0.0867933 0.0541926 0.075559 -0.0832977 0.0574735 0.075672 -0.0835847 0.0577083 0.039139 -0.0700528 0.0978836 0.288919 0.0472842 0.0654145 0.196323 0.0474377 0.0677514 0.195133 0.06815 0.0617985 0.31237 0.0626509 0.0617085 0.292816 0.0668936 0.0614904 0.310653 0.0686871 0.063025 0.311605 0.0634883 0.0623792 0.292555 0.0640073 0.0633446 0.292421 0.0580322 0.062633 0.273554 0.0587292 0.0639128 0.273372 0.0569092 0.0617426 0.273873 0.0535498 0.0628117 0.254337 0.054399 0.0643338 0.254189 0.0521789 0.0617622 0.254617 0.050167 0.0629814 0.235521 0.0511347 0.0646826 0.235398 0.0486128 0.0618102 0.23576 0.0477204 0.063136 0.216566 0.0487873 0.0649923 0.216482 0.0460044 0.0618653 0.216743 0.0461221 0.0634037 0.196343 0.0442518 0.0620285 0.19642 0.0539499 0.0613809 0.269169 0.0453201 0.0613768 0.228092 0.0420109 0.0614512 0.196153 0.0489954 0.0671616 0.216343 0.0516675 0.0666066 0.237568 0.0555232 0.0659553 0.25888 0.0594609 0.0653302 0.275862 0.0640493 0.0644857 0.292164 0.070142 0.0614912 0.326133 0.070996 0.0614844 0.331522 0.070142 0.0614912 0.326133 0.0611859 0.0613851 0.30299 0.0244134 0.0606036 0.272788 0.0453798 0.0610773 0.284747 -2.33985e-05 -0.06 0.2685 0.0246651 -0.0606085 0.27288 0.026528 -0.06 0.273595 0.070333 -0.0614908 0.327134 0.0642638 -0.06 0.308638 0.0615731 -0.0613916 0.303637 0.071306 -0.06 0.334741 0.0457721 -0.0610856 0.285072 0.0486474 -0.06 0.287615 -0.0713408 -0.06 0.335228 -0.0574103 -0.0616253 0.297378 -0.0417705 -0.0611421 0.281975 -0.0629401 -0.06 0.306076 -0.067483 -0.061987 0.316668 -0.0541977 -0.06 0.293365 -0.0429325 -0.06 0.282824 -0.0222005 -0.0605874 0.272031 -0.0153604 -0.06 0.270169 -0.0298251 -0.06 0.275018 -0.0689777 -0.0621812 0.320804 -0.0687037 -0.06 0.320202 -0.0701634 -0.0627075 0.326006 -0.0713347 -0.0636764 0.334838 -0.0714613 -0.063563 0.342349 0.0542915 -0.0664381 0.385079 0.0084999 -0.0665976 0.41003 0.034437 -0.06 0.402538 -0.0140551 0.06 0.410035 0.0083398 0.0755271 0.408662 0.0156796 0.06 0.409638 -0.0047929 -0.06 0.41123 -0.0245616 -0.06 0.407022 0.0532425 0.0753486 0.384215 0.0426579 0.06 0.397258 0.0627963 0.06 0.373958 0.0670684 0.06 0.364543 0.0693758 0.0742408 0.334377 0.069778 0.06 0.355053 0.071124 0.06 0.345211 0.0597621 0.0726379 0.280606 0.0485683 0.0709807 0.215997 0.0476937 0.0695041 0.15041 0.0609928 0.0327429 0.086124 0.0594953 0.0510098 0.085779 0.0606712 -0.0518816 0.0805157 0.0607867 -0.0358242 0.086076 0.0685698 -0.0472482 0.054386 0.072819 0.0478342 0.041271 0.070996 -0.0614844 0.331522 0.070604 -0.0654491 0.334332 0.0154454 -0.06 0.409669 -0.0267705 -0.0871371 0.40122 0.0487261 -0.0885413 0.239059 0.0457833 -0.0871207 0.211668 0.0450102 -0.0836872 0.184403 0.0463857 -0.0765621 0.15782 0.0495154 -0.0671025 0.132453 0.0543309 -0.0583933 0.106923 0.0698965 -0.06 0.354497 0.0633329 -0.06 0.372949 0.0510289 -0.06 0.389904 -0.0426951 0.0611695 0.282652 -0.0227631 0.0606028 0.272217 -0.058408 0.0616583 0.298754 0.0674646 -0.0499419 0.053447 0.07135 -0.048449 0.044599 0.0542477 0.0539012 0.062183 0.0148042 0.0583581 0.08087 0.0422253 0.055971 0.070718 0.0623933 0.051939 0.054229 0.0289792 0.0574543 0.076996 0.0575356 -0.0561619 0.0784633 0.0558055 -0.0566109 0.077925 0.0497835 -0.0634639 0.104077 0.0484887 -0.0637079 0.103705 0.0510347 -0.0629727 0.104516 0.0588751 -0.0552788 0.079133 0.0521664 -0.0622274 0.105008 0.0596397 -0.0544217 0.07957 0.0530934 -0.061252 0.105526 0.0601985 -0.0534364 0.079983 0.0537784 -0.0601248 0.106036 0.0442667 -0.0724422 0.129664 0.0428252 -0.0726746 0.129341 0.0456687 -0.0719441 0.130079 0.0469475 -0.0711712 0.130576 0.0480079 -0.0701474 0.13113 0.048806 -0.0689555 0.131703 0.0408097 -0.0821407 0.156038 0.042253 -0.0816354 0.156306 0.0435828 -0.0808454 0.156642 0.0447016 -0.0797947 0.157029 0.0455614 -0.0785687 0.157439 0.040922 -0.088313 0.183718 0.0421682 -0.0876367 0.183838 0.0437048 -0.0861028 0.183468 0.0432015 -0.0908819 0.211721 0.0441441 -0.0900993 0.211681 0.0451838 -0.0886732 0.211311 0.0477355 -0.0903001 0.239449 0.0104307 -0.0880971 0.405179 -0.0161127 -0.0879842 0.404496 0.0401807 -0.0990843 0.295586 0.0090834 -0.0949311 0.400962 -0.0155694 -0.0939348 0.402615 0.0093111 -0.0938003 0.401677 -0.0156634 -0.092946 0.402937 0.0295522 -0.0966012 0.388463 0.0305799 -0.0953013 0.38951 0.0419381 -0.0981215 0.368472 0.0440521 -0.0967353 0.369444 0.0466274 -0.098751 0.344666 0.0494549 -0.0974093 0.345049 0.0445003 -0.0991097 0.32034 0.0484652 -0.0974403 0.320074 0.0095399 -0.0926662 0.402387 -0.0157961 -0.0914681 0.403413 0.0315984 -0.0939917 0.390557 0.0461553 -0.095328 0.370411 0.0522677 -0.0960382 0.345434 0.0442896 -0.097558 0.294779 0.0097671 -0.0915286 0.403092 0.032611 -0.0926728 0.391597 0.048247 -0.0938993 0.371373 0.055066 -0.094638 0.345818 0.0551068 -0.0944048 0.31876 0.0474747 -0.0962423 0.294132 0.0099905 -0.0903879 0.403792 -0.0159765 -0.0894845 0.404036 0.0336211 -0.0913458 0.392624 0.0503269 -0.0924494 0.372329 0.0578483 -0.0932095 0.346195 0.0521902 -0.0940329 0.292944 0.0102115 -0.0892442 0.404488 0.0346232 -0.090009 0.393647 0.0523934 -0.0909791 0.37328 0.0606176 -0.0917519 0.346571 0.0620767 -0.0909738 0.318141 0.0356193 -0.0886629 0.394663 0.0544471 -0.0894879 0.374225 0.0633725 -0.0902656 0.346943 0.0567066 -0.0916071 0.292234 -0.0235982 -0.0947193 0.400187 -0.00649999 -0.0953319 0.402962 0.0245114 -0.0974133 0.391283 0.0098765 -0.0960881 0.399889 0.0353312 -0.0987405 0.378196 0.0413188 -0.0996968 0.362292 0.0430063 -0.100168 0.328477 0.043786 -0.100032 0.345499 -0.0222005 -0.0605874 0.272031 -0.0574103 -0.0616253 0.297378 -0.0417705 -0.0611421 0.281975</float_array>
                    <technique_common>
                        <accessor count="1607" source="#shape0-lib-positions-array" stride="3">
                            <param name="X" type="float"/>
                            <param name="Y" type="float"/>
                            <param name="Z" type="float"/>
                        </accessor>
                    </technique_common>
                </source>
                <vertices id="shape0-lib-vertices">
                    <input semantic="POSITION" source="#shape0-lib-positions"/>
                </vertices>
                <triangles count="2806">
                    <input offset="0" semantic="VERTEX" source="#shape0-lib-vertices"/>
                    <p>0 2 1 3 5 4 6 8 7 9 7 8 8 6 10 11 12 6 10 6 12 12 11 13 12 14 10 14 12 13 15 16 13 3 4 15 16 15 4 8 17 9 17 8 10 13 18 14 18 13 16 19 9 17 10 20 17 14 21 10 20 10 21 21 14 18 4 22 16 17 0 19 0 17 20 1 19 0 18 23 21 16 24 18 23 18 24 24 16 22 5 25 22 4 5 22 25 24 22 19 26 9 1 26 19 27 9 26 9 28 7 28 9 27 7 29 6 29 30 6 11 6 30 15 13 11 21 31 20 21 23 31 31 23 24 32 1 2 0 20 2 2 20 31 33 35 34 36 38 37 39 38 35 36 37 40 39 37 38 37 41 40 41 42 40 42 43 40 43 44 40 45 40 44 38 46 35 46 47 35 47 48 35 48 34 35 49 51 50 52 51 53 52 50 51 54 53 55 56 53 51 54 55 57 56 55 53 58 57 59 60 57 55 61 58 62 60 59 57 63 61 64 59 62 58 63 64 65 62 64 61 66 65 64 67 69 68 50 69 49 68 71 70 71 68 69 72 70 73 74 70 71 75 72 76 74 73 70 75 76 77 73 76 72 77 79 78 79 77 76 80 65 78 80 78 79 66 78 65 67 49 69 81 83 82 84 85 81 81 86 84 82 87 81 86 81 87 88 84 86 86 89 88 87 90 86 89 86 90 91 89 90 90 92 91 93 94 87 95 93 82 94 96 90 82 93 87 90 96 92 87 94 90 97 98 92 97 92 96 99 91 98 92 98 91 91 100 89 99 100 91 88 89 100 81 85 83 32 85 84 95 82 83 32 83 85 101 103 102 104 106 105 107 106 103 104 105 108 107 105 106 105 109 108 109 110 108 110 111 108 111 112 108 113 108 112 106 114 103 114 115 103 115 116 103 116 102 103 117 119 118 120 118 121 122 118 119 123 120 124 122 121 118 123 124 125 121 124 120 126 125 127 128 125 124 126 127 129 128 127 125 130 129 131 132 129 127 131 133 130 132 131 129 134 130 133 135 137 136 133 138 134 139 135 140 138 136 137 141 139 142 136 140 135 141 142 143 140 142 139 144 143 145 146 143 142 144 145 147 146 145 143 148 119 147 148 147 145 117 147 119 137 134 138 149 151 150 152 153 150 153 152 154 155 156 154 156 155 157 150 158 149 158 150 153 154 159 153 159 154 156 153 160 158 160 153 159 156 161 159 157 162 156 161 156 162 163 164 157 162 157 164 165 149 158 158 166 165 160 167 158 166 158 167 159 168 160 167 160 168 161 169 159 168 159 169 161 162 169 170 171 166 163 172 164 172 163 173 162 164 174 175 164 172 174 169 162 175 174 164 166 171 165 165 176 149 177 149 176 177 151 149 150 151 178 178 179 152 180 178 151 154 179 155 150 178 152 154 152 179 173 163 181 157 155 181 181 155 179 157 181 163 168 170 167 167 170 166 182 184 183 185 187 186 188 190 189 191 189 190 192 193 188 190 188 193 190 194 191 195 191 194 193 196 190 194 190 196 194 197 195 198 195 197 196 199 194 197 194 199 197 200 198 201 198 200 199 202 197 200 197 202 200 203 201 204 201 203 202 205 200 203 200 205 203 206 204 184 204 206 205 207 203 206 203 207 182 208 184 209 187 210 186 211 192 209 186 187 211 212 196 185 186 192 193 192 211 199 212 202 193 211 196 199 196 212 205 213 207 205 202 213 213 202 212 214 216 215 214 217 207 214 207 213 217 183 207 206 207 183 216 219 218 217 214 215 218 215 216 219 220 218 221 223 222 218 220 222 221 222 224 224 222 220 222 223 225 226 228 227 227 225 223 225 227 228 229 231 230 232 210 187 230 234 233 232 230 235 210 232 235 231 235 230 234 237 236 229 230 233 236 233 234 238 236 237 206 183 184 204 184 239 239 240 201 208 239 184 198 240 195 204 239 201 198 201 240 191 241 189 191 195 241 241 195 240 242 243 189 242 189 241 188 189 244 185 192 244 243 244 189 188 244 192 245 247 246 247 249 248 248 250 247 249 251 248 251 252 248 252 253 248 253 254 248 254 255 248 256 248 255 250 257 247 257 258 247 258 259 247 259 260 247 260 246 247 261 263 262 261 262 264 265 264 262 264 265 266 266 268 267 268 266 265 267 270 269 270 267 268 269 272 271 272 269 270 271 274 273 274 271 272 273 276 275 276 273 274 277 275 278 279 275 276 277 278 280 279 278 275 281 280 278 280 281 282 282 284 283 284 282 281 283 286 285 286 283 284 285 288 287 288 285 286 287 290 289 290 287 288 289 291 263 291 289 290 292 262 263 292 263 291 171 294 293 295 7 296 297 299 298 300 298 299 301 302 297 299 297 302 303 304 301 302 301 304 305 306 303 304 303 306 299 307 300 308 300 307 302 309 299 307 299 309 304 310 302 309 302 310 306 311 304 310 304 311 312 313 293 314 316 315 7 28 296 296 28 317 28 27 317 318 317 26 1 318 26 27 26 317 319 295 320 296 320 295 315 318 32 315 88 314 316 321 318 318 315 316 317 318 322 322 323 317 321 322 318 317 323 296 324 325 296 324 296 323 325 326 296 327 296 328 329 328 330 327 331 296 296 326 328 330 328 326 331 332 296 332 333 296 333 334 296 320 296 334 100 99 314 100 314 88 99 335 314 300 308 336 298 337 297 309 310 212 298 300 338 339 336 308 338 340 298 336 338 300 337 298 335 314 335 340 340 335 298 309 212 307 213 212 310 307 211 308 211 307 212 341 339 186 186 308 211 308 186 339 301 297 342 343 297 337 342 344 301 343 342 297 301 344 303 305 303 345 346 303 344 345 347 305 346 345 303 348 305 349 305 348 306 305 347 349 350 349 347 311 306 351 352 306 348 351 353 311 352 351 306 353 214 311 214 213 311 310 311 213 350 354 349 355 349 356 356 349 354 354 357 356 357 180 356 356 180 358 177 358 151 151 358 180 1 32 318 88 315 84 32 84 315 359 312 293 313 360 293 360 361 293 362 364 363 365 362 363 364 366 293 364 293 363 361 363 293 366 367 293 368 293 367 368 370 369 369 293 368 369 370 358 371 372 358 371 358 370 355 356 372 358 372 356 369 358 176 176 165 369 177 176 358 293 369 171 359 293 294 165 171 369 373 375 374 373 377 376 378 379 377 380 373 376 379 376 377 381 378 382 383 381 384 377 382 378 385 383 386 382 384 381 385 386 387 384 386 383 388 390 389 391 387 386 392 394 393 387 391 390 389 390 391 395 392 396 388 389 394 393 394 389 396 398 397 393 396 392 395 396 397 399 397 398 398 401 400 401 403 402 399 398 400 404 400 401 403 406 405 404 401 402 407 402 403 406 409 408 407 403 405 408 405 406 408 409 410 410 412 411 412 410 409 380 375 373 374 411 412 411 374 375 413 415 414 416 414 417 418 414 415 417 419 416 418 417 414 420 416 421 421 423 422 419 421 416 424 426 425 420 421 422 426 422 423 425 359 424 423 425 426 359 294 424 427 424 294 428 430 429 428 432 431 431 433 428 432 434 431 434 435 431 435 436 431 436 437 431 437 438 431 438 439 431 439 440 431 440 441 431 441 442 431 442 443 431 443 444 431 444 445 431 446 431 445 433 447 428 447 448 428 448 449 428 449 450 428 450 451 428 451 452 428 452 430 428 453 429 430 454 456 455 457 459 458 460 462 461 463 461 462 462 460 464 465 466 460 464 460 466 466 465 467 468 469 465 467 465 469 458 470 468 469 468 470 462 454 463 455 463 454 464 471 462 454 462 471 466 472 464 471 464 472 467 473 466 472 466 473 469 474 467 473 467 474 470 475 469 474 469 475 476 97 455 459 477 458 470 458 478 478 479 470 477 478 458 470 479 475 480 481 475 480 475 479 482 474 481 475 481 474 474 482 473 97 96 455 96 94 455 455 94 463 463 93 461 93 463 94 95 25 461 95 461 93 461 25 460 465 460 483 25 483 460 468 465 457 457 465 483 468 457 458 473 484 472 484 473 482 472 485 471 485 472 484 471 486 454 486 471 485 476 455 456 456 454 486 98 97 487 98 488 99 97 489 487 99 488 335 490 492 491 493 495 494 496 498 497 499 497 498 500 501 496 498 496 501 502 503 500 501 500 503 504 505 502 503 502 505 506 507 504 505 504 507 495 493 506 507 506 493 498 508 499 509 499 508 501 510 498 508 498 510 503 511 501 510 501 511 505 512 503 511 503 512 507 513 505 512 505 513 493 514 507 513 507 514 508 515 509 516 509 515 510 517 508 515 508 517 511 518 510 517 510 518 512 519 511 518 511 519 513 520 512 519 512 520 514 521 513 520 513 521 515 522 516 523 516 522 517 524 515 522 515 524 518 525 517 524 517 525 519 526 518 525 518 526 520 527 519 526 519 527 521 528 520 527 520 528 522 529 523 530 523 529 524 531 522 529 522 531 525 532 524 531 524 532 526 533 525 532 525 533 527 534 526 533 526 534 528 535 527 534 527 535 529 536 530 492 530 536 531 537 529 536 529 537 532 538 531 537 531 538 533 539 532 538 532 539 534 540 533 539 533 540 535 541 534 540 534 541 542 543 492 514 493 544 545 494 495 514 544 521 494 544 493 521 546 528 546 521 544 528 547 535 547 528 546 535 548 541 548 535 547 549 550 541 549 541 548 550 551 541 552 540 551 541 551 540 539 540 553 543 554 492 554 555 492 492 555 530 523 530 556 557 530 555 516 523 558 557 556 530 509 516 559 556 558 523 499 509 560 558 559 516 497 499 561 559 560 509 476 456 489 560 561 499 97 476 489 456 486 497 456 497 489 561 489 497 486 485 497 496 497 484 484 482 496 485 484 497 482 481 496 500 496 480 480 562 500 481 480 496 502 500 563 563 564 502 562 563 500 504 502 565 565 566 504 564 565 502 504 566 506 567 568 506 567 506 566 506 568 495 545 495 569 569 495 568 553 570 539 552 553 540 538 539 571 571 572 538 570 571 539 538 572 537 573 574 537 573 537 572 537 574 536 575 576 536 575 536 574 576 577 536 577 491 536 536 491 492 542 492 490 350 347 578 579 580 560 581 337 582 583 585 584 586 587 583 585 583 587 588 589 586 587 586 589 580 579 588 589 588 579 582 590 581 591 581 590 584 592 582 590 582 592 585 593 584 592 584 593 587 594 585 593 585 594 589 595 587 594 587 595 579 596 589 595 589 596 592 597 590 593 598 592 597 592 598 594 599 593 598 593 599 595 600 594 599 594 600 596 601 595 600 595 601 590 602 591 603 591 602 597 604 590 602 590 604 598 605 597 604 597 605 599 606 598 605 598 606 600 607 599 606 599 607 601 608 600 607 600 608 604 609 602 605 610 604 609 604 610 606 611 605 610 605 611 607 612 606 611 606 612 608 613 607 612 607 613 602 614 603 347 603 614 609 615 602 614 602 615 610 616 609 615 609 616 611 617 610 616 610 617 612 618 611 617 611 618 613 619 612 618 612 619 603 347 345 596 579 559 561 560 580 596 559 601 560 559 579 608 601 556 558 601 559 608 556 613 558 556 601 619 613 555 557 613 556 555 554 619 557 555 613 554 620 619 618 619 620 618 620 617 346 344 603 345 346 603 603 344 591 581 591 343 342 591 344 342 343 591 343 337 581 582 337 488 488 98 584 335 488 337 98 487 586 582 488 584 583 584 98 588 487 580 583 98 586 588 586 487 561 580 489 489 580 487 616 621 615 616 617 621 621 617 620 614 578 347 614 615 578 578 615 621 621 620 554 180 623 622 624 626 625 626 624 627 628 627 624 628 629 354 624 630 628 629 628 630 357 354 629 629 631 357 631 629 630 623 357 631 630 632 631 554 625 626 630 624 633 633 624 625 630 634 632 634 630 633 635 622 632 635 632 634 631 632 622 631 622 623 180 357 623 628 354 627 350 578 627 350 627 354 626 627 621 554 626 621 578 621 627 636 576 637 638 639 634 640 642 641 643 644 642 641 642 644 645 646 643 644 643 646 647 648 645 646 645 648 639 638 647 648 647 638 641 636 640 637 640 636 644 649 641 636 641 649 649 644 650 646 651 644 650 644 651 648 652 646 651 646 652 638 653 648 652 648 653 575 574 637 653 638 633 635 634 639 633 625 653 634 633 638 625 554 653 554 543 653 543 542 653 652 653 542 651 652 490 574 654 637 640 637 655 642 640 656 654 655 637 656 657 642 655 656 640 642 658 643 657 658 642 659 645 658 659 173 647 643 658 645 635 639 173 645 659 647 639 647 173 650 651 491 542 490 652 649 650 577 490 491 651 636 649 576 491 577 650 575 637 576 577 576 649 660 662 661 663 664 662 665 661 666 663 662 667 666 661 662 667 668 663 660 667 662 459 450 668 663 668 450 666 662 665 669 665 670 670 665 662 671 669 670 664 663 672 672 674 673 675 673 674 664 672 673 676 678 677 679 681 680 680 682 679 683 679 682 682 680 684 682 685 683 686 683 685 684 687 682 685 682 687 685 688 686 689 686 688 687 690 685 688 685 690 688 691 689 690 692 688 691 688 692 689 691 693 677 694 676 681 678 680 681 677 678 680 695 684 695 680 678 687 684 696 697 684 695 687 696 690 697 696 684 698 692 690 698 690 696 699 676 694 686 689 700 701 693 691 683 686 702 693 700 689 679 683 703 700 702 686 681 679 704 702 703 683 704 694 681 703 704 679 677 681 694 705 706 692 701 691 706 692 706 691 707 551 708 709 657 710 711 713 712 714 715 712 711 712 715 716 717 714 715 714 717 718 719 716 717 716 719 710 720 718 719 718 720 721 707 713 711 722 713 721 713 722 715 723 711 722 711 723 717 724 715 723 715 724 719 725 717 724 717 725 720 726 719 725 719 726 713 707 727 657 656 710 710 656 720 726 720 654 655 720 656 654 574 726 655 654 720 574 573 726 725 726 573 724 725 572 727 728 713 708 727 707 713 728 712 729 730 714 714 712 729 729 712 728 714 730 716 730 731 716 716 731 718 710 718 732 733 718 731 709 710 732 733 732 718 723 724 571 573 572 725 722 723 570 572 571 724 721 722 553 571 570 723 553 552 721 570 553 722 721 552 707 550 708 551 551 707 552 734 736 735 734 735 737 737 735 738 737 738 739 740 734 737 740 737 741 741 737 739 741 739 742 728 736 729 727 736 728 735 736 727 708 735 727 738 735 708 550 738 708 743 744 740 745 743 740 741 745 740 746 745 741 747 746 741 742 747 741 748 747 742 749 729 736 734 749 736 750 749 734 740 750 734 751 750 740 744 751 740 752 738 550 739 738 752 742 739 752 748 742 752 753 755 754 756 757 694 758 760 759 761 759 760 762 763 758 760 758 763 763 762 764 765 766 762 764 762 766 766 765 767 757 756 765 767 765 756 760 768 761 769 761 768 763 770 760 768 760 770 764 771 763 770 763 771 766 772 764 771 764 772 767 773 766 772 766 773 756 774 767 773 767 774 768 775 769 776 769 775 770 777 768 775 768 777 771 778 770 777 770 778 772 779 771 778 771 779 773 780 772 779 772 780 774 781 773 780 773 781 775 782 776 783 776 782 777 784 775 782 775 784 778 785 777 784 777 785 779 786 778 785 778 786 780 787 779 786 779 787 781 788 780 787 780 788 782 789 783 790 783 789 784 789 782 785 791 784 789 784 791 786 791 785 787 792 786 791 786 792 788 792 787 789 755 790 753 790 755 755 789 793 791 794 789 793 789 794 792 795 791 794 791 795 795 792 701 790 753 796 774 756 704 797 694 757 781 774 703 694 704 756 788 781 702 704 703 774 702 700 788 703 702 781 788 700 792 693 792 700 792 693 701 796 798 790 754 796 753 790 798 783 776 783 799 800 783 798 799 801 776 800 799 783 776 801 769 761 769 802 803 769 801 802 804 761 803 802 769 761 804 759 805 806 759 805 759 804 806 365 759 365 363 759 797 757 363 757 765 363 759 363 758 762 758 363 762 363 765 706 807 701 807 754 793 701 807 795 794 795 807 794 807 793 793 754 755 808 810 809 811 813 812 814 815 811 813 811 815 816 817 814 815 814 817 818 819 816 817 816 819 820 821 818 819 818 821 809 822 820 821 820 822 815 823 813 824 813 823 817 825 815 823 815 825 819 826 817 825 817 826 821 827 819 826 819 827 822 828 821 827 821 828 823 829 824 830 824 829 825 831 823 829 823 831 826 832 825 831 825 832 827 833 826 832 826 833 828 834 827 833 827 834 829 835 830 831 836 829 835 829 836 832 837 831 836 831 837 833 838 832 837 832 838 834 839 833 838 833 839 836 840 835 841 835 840 837 842 836 840 836 842 838 843 837 842 837 843 839 844 838 843 838 844 845 846 841 840 847 841 845 841 847 842 848 840 847 840 848 843 849 842 848 842 849 844 850 843 849 843 850 851 852 812 822 809 853 853 854 828 810 853 809 834 854 839 822 853 828 834 828 854 839 855 844 855 839 854 754 807 850 850 844 754 754 844 855 807 706 850 706 856 850 856 857 850 849 850 857 841 846 858 852 860 859 861 862 811 811 812 861 852 859 812 861 812 859 811 862 814 814 863 816 863 814 862 816 864 818 864 816 863 865 808 820 820 818 865 865 818 864 809 820 808 866 859 860 857 867 849 858 868 841 869 858 846 835 841 870 830 835 871 868 870 841 824 830 872 870 871 835 813 824 873 871 872 830 851 812 873 872 873 824 813 873 812 849 867 848 848 874 847 874 848 867 847 875 845 875 847 874 845 876 846 876 845 875 877 879 878 878 846 876 869 846 880 846 878 880 879 880 878 881 882 877 883 884 856 885 856 884 886 887 883 884 883 887 888 889 885 884 890 885 888 885 890 890 884 891 887 892 884 891 884 892 893 894 889 888 895 889 893 889 895 890 896 888 895 888 896 891 897 890 896 890 897 892 898 891 897 891 898 899 900 894 893 901 894 899 894 901 895 902 893 901 893 902 896 903 895 902 895 903 897 904 896 903 896 904 898 905 897 904 897 905 899 906 900 907 900 906 901 908 899 906 899 908 902 909 901 908 901 909 903 910 902 909 902 910 904 911 903 910 903 911 905 912 904 911 904 912 906 881 907 908 882 906 881 906 882 909 913 908 882 908 913 910 914 909 913 909 914 911 914 910 912 915 911 914 911 915 907 881 876 905 898 916 912 905 917 917 915 912 916 917 905 900 907 875 878 876 881 875 874 900 876 875 907 900 874 894 894 867 889 867 894 874 889 857 885 857 889 867 856 885 857 706 705 856 856 705 883 886 883 705 915 918 914 919 877 913 913 914 919 919 914 918 878 881 877 913 877 882 228 921 920 922 924 923 925 926 923 927 923 926 928 929 925 926 925 929 930 931 928 929 928 931 926 932 927 933 927 932 929 934 926 932 926 934 931 935 929 934 929 935 932 936 933 937 933 936 934 938 932 936 932 938 935 939 934 938 934 939 936 940 937 941 937 940 938 942 936 940 936 942 939 943 938 942 938 943 940 944 941 945 941 944 942 946 940 944 940 946 943 947 942 946 942 947 944 948 945 949 945 948 946 950 944 948 944 950 947 951 946 950 946 951 949 952 945 953 954 922 925 923 955 956 923 924 928 925 957 956 955 923 928 957 930 955 957 925 958 242 930 958 930 957 931 930 241 931 241 935 242 241 930 939 240 943 939 935 240 240 935 241 947 239 951 947 943 239 239 943 240 208 959 951 208 951 239 959 960 951 950 951 960 922 954 924 961 963 962 962 924 961 961 924 954 963 964 962 962 964 965 237 965 966 967 965 964 238 237 966 967 966 965 950 960 948 968 952 969 970 971 937 937 941 970 969 952 949 970 941 952 945 952 941 953 922 971 923 927 971 937 971 933 927 933 971 923 971 922 948 972 949 972 948 960 969 949 973 974 949 972 975 977 976 974 973 949 978 979 920 969 973 977 968 969 977 976 977 973 978 920 921 920 979 976 975 976 980 980 976 979 226 921 228 981 983 982 981 982 967 984 986 985 967 964 981 966 967 982 981 964 987 987 963 988 963 987 964 961 954 989 961 988 963 988 961 989 986 989 954 990 991 982 991 992 982 992 238 982 966 982 238 954 953 986 989 984 988 989 986 984 971 985 953 953 985 986 988 993 987 993 988 984 981 987 994 995 987 993 994 983 981 995 994 987 990 982 983 996 998 997 999 1001 1000 1002 1004 1003 1005 1003 1004 1006 1007 1002 1004 1002 1007 1008 1009 1006 1007 1006 1009 1009 1008 1010 1004 1011 1005 1012 1005 1011 1007 1013 1004 1011 1004 1013 1009 1014 1007 1013 1007 1014 1010 1015 1009 1014 1009 1015 1016 1017 1010 1015 1010 1017 1000 1018 1016 1017 1016 1018 1011 1019 1012 1020 1012 1019 1013 1021 1011 1019 1011 1021 1014 1022 1013 1021 1013 1022 1015 1023 1014 1022 1014 1023 1017 1024 1015 1023 1015 1024 1018 1025 1017 1024 1017 1025 1019 1026 1020 1027 1020 1026 1021 1028 1019 1026 1019 1028 1022 1029 1021 1028 1021 1029 1023 1030 1022 1029 1022 1030 1024 1031 1023 1030 1023 1031 1025 1032 1024 1031 1024 1032 1026 1033 1027 998 1027 1033 1028 1034 1026 1033 1026 1034 1029 1035 1028 1034 1028 1035 1030 1036 1029 1035 1029 1036 1031 1037 1030 1036 1030 1037 1032 1038 1031 1037 1031 1038 998 1039 1027 1000 1001 1018 1040 1041 1025 1025 1018 1040 1040 1018 1001 1025 1041 1032 1038 1032 1042 1043 1032 1041 1042 1044 1038 1043 1042 1032 1044 1045 1038 1045 1046 1038 1046 1047 1038 1048 1037 1047 1038 1047 1037 1037 1048 1036 1012 1020 1049 1020 1027 1050 1050 1027 1039 1005 1012 1051 1050 1049 1020 1003 1005 1052 1049 1051 1012 1052 1053 1003 1051 1052 1005 1054 1056 1055 1054 1055 1057 1056 1058 1003 1003 1053 1056 1055 1056 1053 1003 1058 1002 1002 1059 1006 1059 1002 1058 1010 1008 1060 1008 1006 1061 1061 1006 1059 1060 992 1010 1061 1060 1008 1016 1010 991 991 990 1016 992 991 1010 1000 1016 983 983 994 1000 990 983 1016 1000 994 999 984 999 993 995 999 994 995 993 999 1062 1057 1055 1034 1035 997 1035 1036 1063 1063 1036 1048 1033 997 998 1033 1034 997 1063 997 1035 1039 998 996 1064 1066 1065 1064 1068 1067 1069 1067 1068 1068 1064 1065 1068 1070 1069 1071 1069 1070 1065 1072 1068 1070 1068 1072 1070 1073 1071 1074 1071 1073 1072 1075 1070 1073 1070 1075 1073 1076 1074 1077 1074 1076 1073 1075 1076 1076 1078 1077 1079 1077 1078 1079 1080 1077 1072 1065 1081 1082 1065 1066 1082 1081 1065 1076 1075 1083 1081 1075 1072 1076 1083 1078 1084 1086 1085 1080 1079 1086 1086 1079 1085 1078 1085 1079 1077 1087 1074 1087 1077 1080 1069 1071 1088 1071 1074 1089 1089 1074 1087 1067 1069 1090 1089 1088 1071 1090 1045 1067 1088 1090 1069 1045 1091 1067 1066 1064 1091 1067 1091 1064 562 1092 563 480 479 1093 1094 1096 1095 1097 1095 1096 1098 1099 1094 1096 1094 1099 1100 1101 1098 1099 1098 1101 1101 1100 1102 1096 1092 1097 1093 1097 1092 1099 1103 1096 1092 1096 1103 1101 1104 1099 1103 1099 1104 1102 1105 1101 1104 1101 1105 1106 1107 1102 1105 1102 1107 1107 1106 1108 1109 569 1108 1093 479 1097 1095 1097 477 478 1097 479 667 1095 668 478 477 1097 1094 1095 660 1095 477 668 459 668 477 660 661 1094 667 660 1095 1094 661 1098 1100 1098 669 665 1098 661 665 669 1098 1102 1100 671 1106 1102 1110 669 671 1100 1108 1106 1111 671 1110 1102 1109 1108 1111 1110 1111 1106 569 568 1108 1107 1108 567 567 566 1107 568 567 1108 1107 566 1105 1105 565 1104 565 1105 566 1104 564 1103 564 1104 565 1103 563 1092 563 1103 564 480 1093 562 1093 1092 562 1112 1113 662 1114 1116 1115 1117 1115 1116 1113 1112 1114 1116 1114 1112 1116 1118 1117 1119 1117 1118 1112 1120 1116 1118 1116 1120 1118 1121 1119 1122 1119 1121 1120 1123 1118 1121 1118 1123 1121 1124 1122 1125 1122 1124 1123 1126 1121 1124 1121 1126 1124 1127 1125 1128 1125 1127 1127 1124 1126 1127 1129 1128 1126 1130 1127 1129 1127 1130 1128 1129 1131 1120 1112 662 670 662 1113 1123 1120 664 1126 1123 664 662 664 1120 664 673 1126 1130 1126 673 673 1132 1130 1125 1128 1133 1134 1131 1129 1122 1125 1135 1131 1133 1128 1119 1122 1136 1133 1135 1125 1119 1136 1117 1135 1136 1122 1117 1137 1115 1137 1117 1136 1138 1139 1115 1138 1115 1137 1139 1140 1115 1115 1140 1114 1113 1114 1141 1142 1114 1140 1141 671 1113 1142 1141 1114 670 1113 671 1132 1143 1130 1134 1129 1143 1130 1143 1129 173 181 635 622 635 181 179 622 181 178 622 179 622 178 180 1144 1146 1145 1145 1148 1147 1149 1146 1144 413 1151 1150 1150 1147 1148 1147 1150 1151 1152 1149 1144 1148 1145 1146 1153 1155 1154 1156 549 548 1157 1159 1158 1160 1161 1157 1159 1157 1161 549 1156 1160 1161 1160 1156 1161 1162 1159 1162 1161 1163 1156 1163 1161 1163 1156 547 1163 1164 1162 1165 1162 1164 547 546 1163 1164 1163 546 1166 1167 1165 1164 1168 1165 1166 1165 1168 1168 1164 1169 546 1169 1164 1170 1171 1167 1166 1170 1167 1168 1172 1166 1170 1166 1172 1169 1173 1168 1172 1168 1173 1173 1169 1174 1155 1153 1171 1170 1155 1171 1155 1170 1175 1172 1176 1170 1175 1170 1176 1173 1176 1172 1174 545 1173 1176 1173 545 548 547 1156 1169 544 1174 544 1169 546 494 1174 544 1174 494 545 752 550 1160 1160 1157 748 752 1160 748 1158 748 1157 1160 550 549 569 1177 545 1177 1154 1155 545 1177 1176 1175 1176 1177 1175 1177 1155 1178 1180 1179 1181 1180 1178 1182 1179 1183 1178 1179 1182 1184 1181 1178 1185 1181 1184 1186 1178 1182 1184 1178 1186 1109 1180 569 1111 1180 1109 1179 1180 1111 1110 1179 1111 1183 1179 1110 671 1183 1110 1187 1154 1185 1184 1187 1185 1188 1187 1184 1186 1188 1184 1189 1188 1186 1139 1189 1186 1177 569 1180 1181 1177 1180 1185 1177 1181 1177 1185 1154 1141 1183 671 1142 1183 1141 1182 1183 1142 1140 1182 1142 1186 1182 1140 1139 1186 1140 1190 1192 1191 1193 1191 1192 1192 1190 1194 1195 1194 1190 1196 1197 1195 1194 1195 1197 1198 1193 1199 1192 1199 1193 1194 1200 1192 1199 1192 1200 1200 1194 1201 1197 1201 1194 1199 1202 1198 1202 1199 1203 1200 1203 1199 1201 1204 1200 1203 1200 1204 1205 1202 1206 1203 1206 1202 1206 1203 1207 1204 1207 1203 1207 1204 1208 1206 1209 1205 1209 1206 1210 1207 1210 1206 1210 1207 1211 1208 1211 1207 1212 1209 1213 1210 1213 1209 1213 1210 1214 1211 1215 1210 1214 1210 1215 1209 1212 855 1201 1197 1216 1216 1204 1201 1217 1218 1215 855 854 1205 754 855 1212 1202 854 1198 1209 855 1205 1202 1205 854 1193 853 1191 1193 1198 853 853 1198 854 810 1191 853 1219 1220 1190 1190 1191 1219 1219 1191 810 1190 1220 1195 1196 1195 1220 1215 1218 1214 1212 1213 754 1214 754 1213 754 1214 1218 871 1221 872 216 1223 1222 1224 1221 1225 1226 1225 1221 1227 1228 1224 1221 1224 1228 1228 1227 1229 1230 852 1231 852 1230 1222 1229 1232 1228 1231 851 1229 1232 1229 851 851 1231 852 866 860 1222 866 1222 214 852 1222 860 1226 1233 1225 870 1233 1226 226 227 1225 226 1225 1233 1225 227 1224 1227 223 1229 1227 1224 223 223 1224 227 1231 1229 224 221 1229 223 1230 1231 220 221 224 1229 220 219 1230 224 220 1231 216 1222 219 1230 219 1222 1232 851 873 1228 1232 872 1228 872 1221 873 872 1232 870 1226 871 1226 1221 871 1234 1235 810 370 1235 1234 367 1220 1236 1219 810 1235 1237 1219 1235 1236 1219 1237 1219 1236 1220 368 1235 370 1237 1235 368 1236 1237 368 367 1236 368 353 866 214 1220 366 1238 1238 364 1239 364 1238 366 362 1239 364 367 366 1220 1217 1241 1240 1242 1244 1243 1245 1247 1246 1248 1246 1247 1249 1250 1245 1247 1245 1250 1251 1252 1249 1250 1249 1252 1253 1254 1251 1252 1251 1254 1255 1244 1253 1254 1253 1244 1247 1256 1248 1257 1248 1256 1250 1258 1247 1256 1247 1258 1252 1259 1250 1258 1250 1259 1254 1260 1252 1259 1252 1260 1260 1254 1244 1256 1261 1257 1262 1257 1261 1258 1263 1256 1261 1256 1263 1259 1264 1258 1263 1258 1264 1260 1265 1259 1264 1259 1265 1244 1242 1260 1265 1260 1242 1261 1266 1262 1267 1262 1266 1263 1268 1261 1266 1261 1268 1264 1269 1263 1268 1263 1269 1265 1270 1264 1269 1264 1270 1270 1265 1242 1266 1271 1267 1272 1267 1271 1268 1273 1266 1271 1266 1273 1269 1274 1268 1273 1268 1274 1270 1275 1269 1274 1269 1275 1242 1276 1270 1275 1270 1276 1241 1272 1277 1271 1278 1272 1277 1272 1278 1273 1279 1271 1278 1271 1279 1274 1280 1273 1279 1273 1280 1275 1281 1274 1280 1274 1281 1275 1276 1281 1272 1241 1211 1243 1282 1276 1276 1242 1243 1283 1243 1255 1255 1243 1244 1281 1276 1282 1280 1281 1284 1267 1272 1208 1215 1211 1241 1262 1267 1204 1211 1208 1272 1257 1262 1216 1208 1204 1267 1248 1257 1197 1204 1216 1262 1246 1248 1196 1216 1197 1257 1196 1220 1246 1197 1196 1248 1245 1246 1239 1220 1238 1246 1245 1239 1249 1238 1239 1246 1249 362 1251 362 1249 1239 1253 1251 1285 1286 1251 362 1285 1287 1253 1286 1285 1251 1283 1255 1287 1253 1287 1255 1280 1284 1279 1282 1284 1281 1288 1240 1278 1288 1279 1284 1277 1240 1241 1279 1288 1278 1277 1278 1240 1215 1241 1217 1289 1291 1290 1292 1294 1293 1295 1293 1294 1296 1297 1292 1294 1292 1297 1298 1299 1296 1297 1296 1299 1300 1301 1298 1299 1298 1301 1302 1303 1300 1301 1300 1303 1290 1304 1302 1303 1302 1304 1294 1305 1295 1306 1295 1305 1297 1307 1294 1305 1294 1307 1299 1308 1297 1307 1297 1308 1301 1309 1299 1308 1299 1309 1303 1310 1301 1309 1301 1310 1304 1311 1303 1310 1303 1311 1305 1312 1306 1313 1306 1312 1307 1314 1305 1312 1305 1314 1308 1315 1307 1314 1307 1315 1309 1316 1308 1315 1308 1316 1310 1317 1309 1316 1309 1317 1311 1318 1310 1317 1310 1318 1312 1319 1313 1320 1313 1319 1314 1321 1312 1319 1312 1321 1315 1322 1314 1321 1314 1322 1316 1322 1315 1317 1323 1316 1322 1316 1323 1317 1318 1323 1319 1324 1320 1325 1320 1324 1324 1319 1321 1322 1326 1321 1326 1322 1323 1324 1327 1325 1328 1325 1327 1321 1327 1324 1326 1329 1321 1327 1321 1329 1326 1323 1329 1291 1330 1290 1290 1330 1304 1311 1331 1318 1311 1304 1331 1331 1304 1330 1318 1332 1323 1332 1318 1331 1332 1333 1323 1333 1334 1329 1313 1320 1335 1320 1325 1336 1336 1325 1328 1306 1313 330 1336 1335 1320 1295 1306 1337 1335 330 1313 1293 1295 1338 330 1337 1306 1338 1339 1293 1337 1338 1295 1339 1340 1293 1293 1340 1292 1298 1296 1341 1296 1292 1342 1342 1292 1340 1298 1341 1300 1342 1341 1296 1302 1300 1343 1343 1300 1341 1302 1343 1290 1289 1290 1344 1344 1290 1343 1327 1334 1328 1327 1329 1334 1323 1333 1329 236 238 1345 1346 209 210 231 1347 235 1347 231 1348 210 1054 1346 235 1056 210 1054 210 1056 1056 235 1347 1348 1059 1347 1349 1061 1348 1059 1348 1061 1345 1060 1349 1061 1349 1060 1350 1351 1346 238 992 1345 1060 1345 992 209 1346 1351 1348 231 229 1349 1348 233 233 236 1349 229 233 1348 1345 1349 236 1347 1059 1058 1058 1056 1347 1346 1054 1057 1350 1346 1057 326 325 1338 324 1339 325 330 326 1337 1339 1338 325 1338 1337 326 324 1352 1339 1353 996 1354 322 1353 1354 1355 1339 1352 1354 1355 1352 1355 1354 996 323 1352 324 1354 1352 323 322 1354 323 1356 1357 1062 1358 1356 1053 1357 1360 1359 1361 1359 1360 1356 1358 1357 1360 1357 1358 1360 1362 1361 1363 1361 1362 1358 1364 1360 1362 1360 1364 1362 1365 1363 1366 1363 1365 1364 1367 1362 1365 1362 1367 1365 1368 1366 1369 1366 1368 1367 1370 1365 1368 1365 1370 1368 1371 1369 1370 1372 1368 1371 1368 1372 1372 1373 1371 1374 1371 1373 1374 321 1371 1364 1358 1052 1055 1053 1356 1364 1052 1367 1053 1052 1358 1370 1367 1049 1051 1367 1052 1370 1049 1372 1051 1049 1367 1372 1050 1373 1050 1372 1049 1039 996 1373 1039 1373 1050 996 1353 1373 1373 1353 1374 321 1374 322 322 1374 1353 1371 316 1369 316 1371 321 1366 1369 340 314 1369 316 1366 340 1363 314 340 1369 1363 338 1361 338 1363 340 1359 1361 339 336 1361 338 339 1062 1359 336 339 1361 1055 1356 1062 1359 1062 1357 1340 1375 1342 1376 1378 1377 1378 1376 1379 1380 1382 1381 1383 1381 1382 1384 1385 1380 1382 1380 1385 1377 1386 1384 1385 1384 1386 1386 1377 1378 1379 1387 1378 1388 1389 1379 1387 1379 1389 1382 1390 1383 1391 1383 1390 1390 1382 1385 1378 1392 1386 1392 1378 1387 1385 1393 1390 1386 1394 1385 1393 1385 1394 1394 1386 1392 1387 1395 1392 1389 1344 1387 1395 1387 1344 1390 1375 1391 1396 1391 1375 1375 1390 1393 1389 1397 1344 1389 1388 1397 1397 1388 1047 1291 1289 1344 1291 1344 1397 1343 1395 1344 1355 996 1391 1339 1355 1396 1380 1381 997 1396 1355 1391 1381 1383 996 1383 1391 996 1380 997 1384 996 997 1381 1377 1063 1376 1377 1384 1063 1063 1384 997 1047 1388 1048 1379 1376 1048 1048 1376 1063 1379 1048 1388 1395 1343 1392 1393 1394 1342 1394 1392 1341 1341 1392 1343 1393 1342 1375 1341 1342 1394 1339 1396 1340 1396 1375 1340 1398 1399 353 1400 1401 865 1401 1400 1402 1403 1402 1400 1404 1405 1403 1400 1406 1403 1404 1403 1406 1404 1407 1405 1408 1405 1407 1406 1409 1404 1407 1404 1409 1407 1410 1408 1411 1408 1410 1409 1412 1407 1410 1407 1412 1410 1413 1411 1414 1411 1413 1412 1415 1410 1413 1410 1415 1413 1399 1414 1398 1414 1399 1415 1416 1413 1399 1413 1416 1398 351 1414 1406 1400 864 808 865 1401 1406 864 1409 865 864 1400 1412 1409 862 863 1409 864 1412 862 1415 863 862 1409 859 1416 861 861 1415 862 1415 861 1416 859 866 1416 1414 352 1411 352 1414 351 1411 348 1408 348 1411 352 1408 349 1405 349 1408 348 1403 1405 372 355 1405 349 1402 1403 371 355 372 1405 371 370 1402 372 371 1403 1401 1402 1417 1417 810 1401 370 1417 1402 808 1401 810 866 353 1416 351 1398 353 1416 353 1399 1418 751 1419 1420 1422 1421 1420 1424 1423 1425 1423 1424 1424 1420 1421 1424 1426 1425 1427 1425 1426 1421 1428 1424 1426 1424 1428 1426 1429 1427 1430 1427 1429 1428 1431 1426 1429 1426 1431 1429 1432 1430 1433 1430 1432 1431 1434 1429 1432 1429 1434 1432 1435 1433 1436 1433 1435 1434 1437 1432 1435 1432 1437 1435 1438 1436 1418 1436 1438 1437 1439 1435 1438 1435 1439 1418 1419 1436 1428 1421 1440 1431 1428 1440 1422 1440 1421 1434 1431 1441 1437 1434 1441 1440 1441 1431 1437 1441 1439 1442 729 1439 1442 1439 1441 729 749 1439 750 1438 749 1439 749 1438 1438 750 1418 1436 1443 1433 1443 1436 1419 1433 1444 1430 1444 1433 1443 1430 1445 1427 1445 1430 1444 1427 1446 1425 1446 1427 1445 1425 1447 1423 1447 1425 1446 1448 1422 1449 1423 1449 1420 1420 1449 1422 744 1419 751 751 1418 750 657 709 387 1450 1451 1422 733 731 1452 1453 1440 1451 1422 1451 1440 733 1452 732 731 730 1441 1440 1453 1441 1453 1452 1441 1442 1441 730 731 1441 1452 729 1442 730 732 387 709 387 732 1452 83 24 95 32 2 83 31 24 83 2 31 83 25 95 24 1454 1456 1455 1457 1459 1458 1143 1457 1460 1456 1462 1461 1460 1457 1458 1462 1458 1459 1461 1455 1456 1459 1461 1462 319 1463 29 1464 1466 1465 1464 1467 1466 1468 1469 1465 1468 1465 1466 1465 1469 1470 1454 1470 1471 1472 1470 1469 1472 1471 1470 1467 1473 1466 1466 1473 1474 1474 1473 1463 1475 1463 1473 1475 1476 1463 1476 1477 1463 1477 29 1463 1478 1480 1479 1481 1483 1482 1484 1485 1479 678 676 1482 1486 1482 1487 1487 1488 1486 1483 1487 1482 1488 1489 1486 1486 1489 1490 1491 1492 1490 1491 1490 1489 1492 1149 1490 1149 1152 1490 1152 1423 1490 1490 1423 1493 1447 1446 1493 1447 1493 1423 1446 1445 1493 1494 1493 1444 1444 1443 1494 1445 1444 1493 1443 1419 1494 1495 1494 744 745 1495 743 1419 744 1494 744 743 1495 676 797 1482 797 363 1482 363 361 1482 1481 1482 361 1159 1162 1496 915 917 1497 745 746 1495 916 747 917 748 917 747 917 748 1497 1159 1496 1158 1158 1497 748 1497 1158 1496 1494 1495 892 747 916 746 746 916 1495 898 1495 916 892 887 1494 898 892 1495 887 886 1494 1494 886 1493 705 1493 886 705 692 1493 1490 1493 698 698 696 1490 692 698 1493 1490 696 1486 697 695 1486 697 1486 696 678 1482 695 1486 695 1482 970 952 1165 1498 1500 1499 1165 952 1162 1496 1162 952 952 968 1496 968 1501 1496 1501 918 1496 915 1497 918 1496 918 1497 1171 1499 1167 1500 985 1499 985 971 1499 1499 971 1167 970 1165 971 1165 1167 971 1502 1460 1503 1504 1484 1479 1485 327 1479 327 328 1479 328 1505 1479 1505 1085 1479 1085 1078 1479 1479 1078 1478 1083 1075 1478 1083 1478 1078 1478 1075 1503 1081 1082 1503 1081 1503 1075 1082 1066 1503 1135 1133 1091 1091 1133 1066 1502 1503 1134 1503 1066 1131 1131 1066 1133 1131 1134 1503 1136 1135 1506 1137 1136 1507 1091 1506 1135 1138 1137 1508 1506 1507 1136 1189 1139 1509 1507 1508 1137 1187 1188 1510 1139 1138 1509 1508 1509 1138 1153 1154 1511 1188 1189 1510 1509 1510 1189 1171 1153 1499 1154 1187 1511 1510 1511 1187 1511 1498 1153 1499 1153 1498 1460 1512 1503 1503 1512 1478 1513 1514 1478 1513 1478 1512 1514 1480 1478 1504 1479 1480 172 173 1515 387 1516 657 175 172 1517 173 659 1515 659 658 1515 1515 658 1516 657 1516 658 1515 1517 172 1518 1519 1500 984 1519 1518 985 1500 1519 985 1519 984 919 918 1501 877 919 1501 877 1501 968 980 1520 975 921 226 1521 1520 980 1522 977 975 1523 1523 975 1520 1522 979 1524 979 1522 980 921 1521 978 978 1524 979 1524 978 1521 226 1233 1521 1233 870 1521 870 868 1521 868 858 1521 1521 858 1524 1524 869 1522 869 1524 858 1520 1522 880 880 1522 869 880 879 1520 1523 1520 879 879 877 1523 877 968 977 1523 877 977 1525 1527 1526 1528 1526 1527 1527 1525 1529 1530 1531 1525 1529 1525 1531 1532 1533 1530 1531 1530 1533 1534 1535 1532 1533 1532 1535 1498 1511 1534 1535 1534 1511 1527 1536 1528 1537 1528 1536 1529 1538 1527 1536 1527 1538 1531 1539 1529 1538 1529 1539 1533 1540 1531 1539 1531 1540 1535 1541 1533 1540 1533 1541 1511 1510 1535 1541 1535 1510 1536 1542 1537 1538 1543 1536 1542 1536 1543 1539 1544 1538 1543 1538 1544 1540 1545 1539 1544 1539 1545 1541 1546 1540 1545 1540 1546 1510 1509 1541 1546 1541 1509 1543 1547 1542 1544 1548 1543 1547 1543 1548 1545 1549 1544 1548 1544 1549 1546 1549 1545 1509 1508 1546 1549 1546 1508 1548 1550 1547 1549 1551 1548 1550 1548 1551 1551 1549 1552 1508 1552 1549 1551 1553 1550 1044 1550 1553 1552 1553 1551 1553 1552 1506 1552 1508 1507 1507 1506 1552 1550 1042 1547 1042 1550 1044 1542 1547 1041 1043 1547 1042 1537 1542 1040 1043 1041 1547 1528 1537 1001 1041 1040 1542 1526 1528 999 1040 1001 1537 999 984 1526 1001 999 1528 984 1518 1526 1518 1500 1532 1526 1518 1525 1530 1525 1518 1530 1518 1532 1532 1500 1534 1498 1534 1500 1091 1045 1506 1506 1045 1553 1044 1553 1045 1554 1086 1555 1397 1047 1556 1557 1559 1558 1560 1558 1559 1561 1562 1557 1559 1557 1562 1563 1564 1561 1562 1561 1564 1565 1566 1563 1564 1563 1566 1567 1568 1565 1566 1565 1568 1568 1567 1556 1559 1569 1560 1570 1560 1569 1562 1571 1559 1569 1559 1571 1564 1572 1562 1571 1562 1572 1566 1573 1564 1572 1564 1573 1573 1566 1568 1556 1574 1568 1569 1575 1570 1571 1576 1569 1575 1569 1576 1572 1577 1571 1576 1571 1577 1573 1578 1572 1577 1572 1578 1568 1579 1573 1578 1573 1579 1574 1580 1568 1579 1568 1580 1575 1581 1570 1582 1570 1581 1576 1583 1575 1581 1575 1583 1577 1584 1576 1583 1576 1584 1578 1585 1577 1584 1577 1585 1585 1578 1579 1580 1586 1579 1581 1587 1582 1583 1588 1581 1587 1581 1588 1584 1589 1583 1588 1583 1589 1585 1590 1584 1589 1584 1590 1579 1591 1585 1590 1585 1591 1591 1579 1586 1587 1554 1582 1555 1582 1554 1588 1592 1587 1554 1587 1592 1589 1593 1588 1592 1588 1593 1590 1594 1589 1593 1589 1594 1594 1590 1591 1586 1595 1591 1505 328 1555 1046 1045 1580 1580 1574 1046 1046 1574 1047 1574 1556 1047 1580 1045 1586 1595 1586 1045 1045 1090 1595 1088 1591 1090 1595 1090 1591 1591 1088 1594 328 329 1555 329 1596 1558 1570 329 1560 1570 1582 329 1555 329 1582 1558 1560 329 1596 1597 1558 1558 1597 1557 1561 1557 1598 1599 1557 1597 1598 1600 1561 1599 1598 1557 1561 1600 1563 1563 1601 1565 1601 1563 1600 1567 1565 1602 1603 1565 1601 1602 1397 1567 1603 1602 1565 1556 1567 1397 1594 1089 1593 1089 1594 1088 1593 1087 1592 1087 1593 1089 1592 1080 1554 1080 1592 1087 1505 1555 1086 1086 1554 1080 1604 450 457 459 457 450 5 483 25 5 1605 483 1605 1606 483 1604 457 1606 483 1606 457</p>
                </triangles>
            </mesh>
        </geometry>
    </library_geometries>
    <library_visual_scenes>
        <visual_scene id="VisualSceneNode" name="VisualScene">
            <node id="node" name="node">
                <instance_geometry url="#shape0-lib"/>
            </node>
        </visual_scene>
    </library_visual_scenes>
    <scene>
        <instance_visual_scene url="#VisualSceneNode"/>
    </scene>
</COLLADA>
