<?xml version="1.0" encoding="UTF-8"?>
<COLLADA xmlns="http://www.collada.org/2005/11/COLLADASchema" version="1.4.1">
    <asset>
        <contributor>
            <author>VCGLab</author>
            <authoring_tool>VCGLib | MeshLab</authoring_tool>
        </contributor>
        <created>火 7月 1 01:26:21 2025 GMT</created>
        <modified>火 7月 1 01:26:21 2025 GMT</modified>
        <up_axis>Y_UP</up_axis>
    </asset>
    <library_geometries>
        <geometry id="shape0-lib" name="shape0">
            <mesh>
                <source id="shape0-lib-positions" name="position">
                    <float_array id="shape0-lib-positions-array" count="2223">-0.05985 0.021795 0.012242 -0.05985 0.0241499 0.01067 -0.05985 0.020199 0.014581 -0.05985 0.033801 0.020419 -0.05985 0.0195951 0.0174752 -0.05985 0.0344049 0.0175248 -0.05985 0.0201794 0.020373 -0.05985 0.0217596 0.022723 -0.05985 0.0241038 0.024311 -0.05985 0.026975 0.0249 -0.05985 0.0298501 0.02433 -0.05985 0.032205 0.022758 -0.05985 0.0338206 0.014627 -0.05985 0.0322404 0.012277 -0.05985 0.0298962 0.010689 -0.05985 0.027025 0.0101 0.0097672 0.0455 0.16602 2.51336e-05 0.0455 0.168005 0.0097672 0.0255 0.16602 0.0177007 0.0255 0.16065 2.51336e-05 0.0255 0.168005 0.0230463 0.0255 0.1527 0.0177007 0.0455 0.16065 0.025 0.0255 0.14297 0.025 0.0455 0.14297 0.0230463 0.0455 0.1527 0.0230269 0.0255 0.13326 0.0230269 0.0455 0.13326 0.0176654 0.0255 0.12532 0.0097212 0.0255 0.11996 0.0097212 0.0455 0.11996 0.0176654 0.0455 0.12532 -2.51811e-05 0.0255 0.117995 -2.50833e-05 0.0455 0.117995 -0.0230463 0.0455 0.1333 -0.025 0.0455 0.14303 -0.0177007 0.0455 0.12535 -0.00976724 0.0455 0.11998 0.0097672 0.0455 0.16602 -2.50833e-05 0.0455 0.117995 2.51336e-05 0.0455 0.168005 0.0177007 0.0455 0.16065 0.0097212 0.0455 0.11996 0.0176654 0.0455 0.12532 0.0230269 0.0455 0.13326 0.025 0.0455 0.14297 0.0230463 0.0455 0.1527 -0.00972119 0.0455 0.16604 -0.0176654 0.0455 0.16068 -0.0230269 0.0455 0.15274 -0.00976724 0.0455 0.11998 -0.00972119 0.0455 0.16604 -0.00972119 0.0255 0.16604 -0.0176654 0.0455 0.16068 -0.0230269 0.0455 0.15274 -0.0230269 0.0255 0.15274 -0.0176654 0.0255 0.16068 -0.025 0.0455 0.14303 -0.0230463 0.0455 0.1333 -0.0230463 0.0255 0.1333 -0.025 0.0255 0.14303 -0.0177007 0.0455 0.12535 -0.00976724 0.0255 0.11998 -0.0177007 0.0255 0.12535 -0.05985 0.0338206 0.014627 -0.0533 0.0338206 0.014627 -0.05985 0.0344049 0.0175248 -0.05985 0.0322404 0.012277 -0.0533 0.0322404 0.012277 -0.0533 0.0344049 0.0175251 -0.05985 0.0298962 0.010689 -0.05985 0.027025 0.0101 -0.0533 0.0298962 0.010689 -0.05985 0.0241499 0.01067 -0.0533 0.027025 0.0101 -0.05985 0.021795 0.012242 -0.0533 0.0241499 0.01067 -0.05985 0.020199 0.014581 -0.0533 0.020199 0.014581 -0.0533 0.021795 0.012242 -0.0533 0.0195951 0.0174749 -0.05985 0.0195951 0.0174752 -2.50498e-05 0.040005 -0.0285 -2.51113e-05 0.040005 0.00150001 -0.0156036 0.0368376 -0.0285 -0.0155575 -0.0368571 -0.0285 -0.0155575 -0.0368571 0.00150001 2.50507e-05 -0.040005 -0.0285 -0.0282699 -0.0282876 -0.0285 2.51113e-05 -0.040005 0.00150001 -0.0368473 -0.0155805 -0.0285 -0.0368473 -0.0155805 0.00150001 -0.0282699 -0.0282876 0.00150001 -0.04 -2.5e-05 -0.0285 -0.04 -2.5e-05 0.00150001 -0.0368668 0.0155345 -0.0285 -0.0283052 0.0282522 -0.0285 -0.0283052 0.0282522 0.00150001 -0.0368668 0.0155345 0.00150001 -0.0156036 0.0368376 0.00150001 0.0156036 -0.0368376 -0.0285 0.0155575 0.0368571 -0.0285 0.0155575 0.0368571 0.00150001 0.0282699 0.0282876 -0.0285 0.0282699 0.0282876 0.00150001 0.0368473 0.0155805 -0.0285 0.04 2.5e-05 -0.0285 0.0368473 0.0155805 0.00150001 0.0368668 -0.0155345 -0.0285 0.0368668 -0.0155345 0.00150001 0.04 2.5e-05 0.00150001 0.0283052 -0.0282522 -0.0285 0.0283052 -0.0282522 0.00150001 0.0156036 -0.0368376 0.00150001 -0.0368668 0.0155345 -0.0285 -0.04 -2.5e-05 -0.0285 -0.0283052 0.0282522 -0.0285 0.0156036 -0.0368376 -0.0285 -2.50498e-05 0.040005 -0.0285 2.50507e-05 -0.040005 -0.0285 -0.0156036 0.0368376 -0.0285 0.0283052 -0.0282522 -0.0285 0.0155575 0.0368571 -0.0285 0.0282699 0.0282876 -0.0285 0.0368473 0.0155805 -0.0285 0.04 2.5e-05 -0.0285 0.0368668 -0.0155345 -0.0285 -0.0155575 -0.0368571 -0.0285 -0.0282699 -0.0282876 -0.0285 -0.0368473 -0.0155805 -0.0285 -0.05985 0.033801 0.020419 -0.0533 0.033801 0.020419 -0.0533 0.032205 0.022758 -0.0533 0.0298501 0.02433 -0.05985 0.032205 0.022758 -0.0533 0.026975 0.0249 -0.05985 0.0298501 0.02433 -0.0533 0.0241038 0.024311 -0.05985 0.0241038 0.024311 -0.05985 0.026975 0.0249 -0.0533 0.0217596 0.022723 -0.0533 0.0201794 0.020373 -0.05985 0.0201794 0.020373 -0.05985 0.0217596 0.022723 -0.0533 0.0387 0.0086 -0.0518169 0.0378778 0.00661802 -0.051664 0.0387 0.0086 -0.0533 0.0378795 0.00661999 -0.0520795 0.0359 0.00580001 -0.0533 0.0359 0.00580001 -0.0533 0.0359 0.0292 -0.0515533 0.0359 0.0292 -0.0533 0.0181 0.0292 -0.052811 0.0181 0.0292 -0.0533 0.0387 0.0264 -0.0512395 0.0387 0.0264 -0.0533 0.0378795 0.00661999 -0.0533 0.0387 0.0086 -0.0533 0.0322404 0.012277 -0.0533 0.0338206 0.014627 -0.0533 0.0344049 0.0175251 -0.0533 0.0387 0.0264 -0.0533 0.033801 0.020419 -0.0533 0.0378795 0.02838 -0.0533 0.032205 0.022758 -0.0533 0.0359 0.0292 -0.0533 0.0181 0.0292 -0.0533 0.026975 0.0249 -0.0533 0.0298501 0.02433 -0.0533 0.0241038 0.024311 -0.0533 0.0154152 0.0276453 -0.0533 0.0217596 0.022723 -0.0533 0.0201794 0.020373 -0.0533 0.0195951 0.0174749 -0.0533 0.0153 0.00951207 -0.0533 0.020199 0.014581 -0.0532967 0.0177097 0.00580055 -0.0533 0.021795 0.012242 -0.0533 0.0359 0.00580001 -0.0533 0.027025 0.0101 -0.0533 0.0241499 0.01067 -0.0533 0.0298962 0.010689 -0.0532967 0.0177097 0.00580055 -0.0529274 0.0154394 0.0278508 -0.0533 0.0154152 0.0276453 -0.0533 0.0378795 0.02838 -0.0513811 0.0377165 0.0285358 -0.0389701 -0.0294995 0.108304 -0.0391561 -0.0304651 0.10669 -0.036209 -0.0295045 0.101905 -0.0463045 -0.034 0.1135 -0.0479064 -0.0341791 0.114873 -0.0460122 -0.0336376 0.10811 -0.0367753 -0.0295007 0.0994322 -0.0442964 -0.0316265 0.1001 -0.0494699 -0.0295129 0.0914285 -0.0487447 -0.0328973 0.10176 -0.0415092 -0.0329124 0.106329 -0.0488715 -0.0352958 0.114852 -0.0495997 -0.034001 0.10158 -0.0503792 -0.0306043 0.09122 -0.0516708 -0.0178223 0.0708848 -0.0516259 -1e-09 0.07158 -0.0507764 -0.0284739 0.07123 -0.0202785 3e-09 0.0915501 -0.0206871 -0.0284738 0.0904 0.0428136 -0.0295 0.16214 0.0343198 -0.0295036 0.175268 0.0477335 -0.0295 0.14898 -0.0481335 -0.0295 0.12459 0.0509604 -0.0295 0.13533 -0.0467415 -0.0295 0.14683 0.0466361 -0.0295001 0.120759 0.0382449 -0.0295 0.10712 0.0033922 -0.0295 0.08986 0.0075977 -0.0295 0.0887801 0.0361069 -0.0294999 0.10148 -0.0061194 -0.0295 0.09011 -0.017757 -0.0294999 0.092443 -0.0212242 -0.0295 0.09125 -0.0499745 -0.0295 0.07293 0.0363452 -0.0295006 0.0997429 0.0533141 -0.029507 0.0889521 0.0540912 -0.0295 0.059161 -0.0431864 -0.0295009 0.162088 -0.0347731 -0.0295004 0.174736 -0.0227919 -0.0295006 0.18422 -0.00803265 -0.0295008 0.189418 0.00763067 -0.029501 0.189474 0.0221296 -0.0295052 0.184724 -0.0520977 0.000409047 0.0707608 -0.0512143 -0.0290421 0.0704727 -0.0490487 0.0315847 0.123652 -0.0488034 0.0335924 0.120569 -0.0485696 0.0344147 0.12546 -0.0513811 0.0377165 0.0285358 -0.0493221 0.0351078 0.10398 -0.051801 0.0268212 0.052745 -0.0522983 -0.0172169 0.052762 -0.050969 -0.0305999 0.0729601 -0.0501849 -0.0365002 0.0742 -0.0525575 -0.00515886 0.05277 -0.0525378 0.00651478 0.05277 -0.0517176 -0.0286807 0.052743 -0.05176 0.0181414 0.0716103 -0.0523193 0.0168455 0.052762 -0.0513826 0.0245907 0.07421 -0.0511618 0.0261932 0.0785601 -0.0509677 0.0265365 0.08405 -0.050395 0.030422 0.091 -0.0498863 0.0329791 0.09758 -0.0488931 0.0353454 0.114276 -0.0494749 0.0265564 0.125265 -0.0481055 0.0265734 0.14694 -0.0455899 0.043 0.14673 -0.0490139 0.0429996 0.07414 -0.0515533 0.0359 0.0292 -0.0491445 -0.0305988 0.124338 -0.0469037 -0.0365006 0.14684 -0.0490457 -0.031584 0.12402 -0.052096 -0.0365 0.00150001 -0.0477319 -0.0306116 0.14691 -0.0488192 -0.0342932 0.12069 -0.0529274 0.0154394 0.0278508 -0.052811 0.0181 0.0292 -0.0536671 0.00327327 0.00150001 -0.0511885 0.0429798 0.00150001 -0.0520795 0.0359 0.00580001 -0.0531842 0.0231833 0.00150001 -0.0534011 -0.0166344 0.00150001 -0.051664 0.0387 0.0086 -0.0512395 0.0387 0.0264 -0.0518169 0.0378778 0.00661802 0.0449638 0.0577828 0.00150001 0.000988401 0.0589451 0.00150001 0.0155575 0.0368571 0.00150001 -0.0429391 0.0565909 0.00150001 -0.0156036 0.0368376 0.00150001 -0.0478515 0.0502607 0.00150001 -0.0283052 0.0282522 0.00150001 -2.51113e-05 0.040005 0.00150001 -0.0368668 0.0155345 0.00150001 -0.0531842 0.0231833 0.00150001 -0.0536671 0.00327327 0.00150001 -0.0511885 0.0429798 0.00150001 -0.0534011 -0.0166344 0.00150001 -0.04 -2.5e-05 0.00150001 -0.0483844 -0.0444784 0.00150001 -0.0282699 -0.0282876 0.00150001 -0.052096 -0.0365 0.00150001 -0.0368473 -0.0155805 0.00150001 -0.0429394 -0.0513916 0.00150001 0.0009845 -0.0538559 0.00150001 -0.0155575 -0.0368571 0.00150001 2.51113e-05 -0.040005 0.00150001 0.0449651 -0.052802 0.00150001 0.0156036 -0.0368376 0.00150001 0.0515149 -0.0451991 0.00150001 0.0283052 -0.0282522 0.00150001 0.0565274 -0.0364675 0.00150001 0.0368668 -0.0155345 0.00150001 0.0579515 0.00328937 0.00150001 0.04 2.5e-05 0.00150001 0.0576724 -0.0184346 0.00150001 0.0572696 0.0249945 0.00150001 0.0368473 0.0155805 0.00150001 0.0510081 0.0509275 0.00150001 0.0282699 0.0282876 0.00150001 0.0555543 0.0429895 0.00150001 0.0536347 -0.038714 0.0510181 0.0552278 -0.0364967 0.0356753 0.0565274 -0.0364675 0.00150001 -0.0422191 -0.0446335 0.108 -0.040739 -0.0462045 0.10209 -0.0439727 -0.0471733 0.055652 -0.0494952 -0.039431 0.0554838 -0.0503471 -0.0375588 0.055384 -0.0475916 -0.0387197 0.110204 -0.0484192 -0.0373347 0.11059 -0.0485983 -0.0410915 0.055414 -0.046637 -0.0400805 0.10977 -0.0472259 -0.043248 0.055473 -0.0452956 -0.0417247 0.1092 -0.0456814 -0.0452787 0.055561 -0.0438206 -0.0432444 0.10861 -0.0398769 -0.037969 0.165029 -0.0404515 -0.0370861 0.16592 -0.0391357 -0.0389547 0.1639 -0.0381766 -0.0400202 0.1625 -0.037145 -0.0409594 0.16105 -0.0360449 -0.0417689 0.15955 0.00710903 -0.0384955 0.187192 0.007164 -0.0370488 0.18893 0.0070323 -0.0397129 0.18528 0.0069573 -0.0405178 0.1837 0.0068703 -0.0411762 0.18205 0.0441427 -0.038266 0.155365 0.0448323 -0.0371978 0.15623 0.043256 -0.039409 0.1543 0.0420874 -0.04065 0.15296 0.0408134 -0.0417215 0.15155 0.0394416 -0.0426145 0.15009 0.051652 -0.0391264 0.1004 0.0526564 -0.0374998 0.1007 0.0504407 -0.0407431 0.10004 0.0487331 -0.0426393 0.0995601 0.0468388 -0.0443412 0.0990601 0.0447704 -0.0458374 0.09853 0.0519952 -0.0414952 0.0509204 0.0500619 -0.0441629 0.049597 0.0480434 -0.0464024 0.049666 0.0458419 -0.0484543 0.049733 0.0538041 -0.0365103 0.0791658 -0.0368896 -0.0427781 0.15212 -0.0422342 -0.0490885 0.051821 -0.0001006 -0.0416541 0.181 0.0369246 -0.0430519 0.15234 0.042522 -0.0467517 0.10264 0.0434838 -0.0501194 0.052085 0.0449651 -0.052802 0.00150001 0.0531466 -0.0365 0.10292 0.0525634 -0.0365011 0.12321 0.0495211 -0.0365256 0.14313 0.0429623 -0.0365 0.16221 0.034319 -0.0364475 0.175265 0.0221422 -0.0364564 0.18453 0.00764667 -0.0364938 0.189405 -0.00798671 -0.0365005 0.18934 -0.0227329 -0.0364676 0.184169 -0.0347142 -0.0364101 0.174754 -0.0430681 -0.0363939 0.162019 -0.0469037 -0.0365006 0.14684 -0.0501849 -0.0365002 0.0742 -0.052096 -0.0365 0.00150001 -0.0483844 -0.0444784 0.00150001 -0.0429394 -0.0513916 0.00150001 0.0515149 -0.0451991 0.00150001 -0.0479128 0.0341935 0.114377 0.0390878 -0.0304651 0.10658 0.0531321 0.035145 0.10981 0.0529943 0.0319105 0.0953289 0.0521429 0.034 0.10978 0.0537933 0.0329692 0.09508 0.053519 0.0294265 0.0887701 0.0542343 0.0303918 0.08846 0.0538717 0.0255227 0.0819628 0.0547227 0.0266344 0.0816687 0.0337849 0.0255 0.10012 0.0443065 0.0264651 0.11477 0.0346278 0.0264651 0.09958 0.0434636 0.0255 0.11531 0.0398503 0.0318735 0.103583 0.0452976 0.0333423 0.106648 0.0501109 0.033364 0.10371 0.041171 0.0294164 0.0966782 0.0463813 0.034 0.11345 0.033777 0.0255051 0.0946993 0.0390661 0.0315572 0.104569 0.0418158 0.0324688 0.109985 0.0422789 0.0331731 0.10878 0.0372206 0.0297567 0.103304 0.0364255 0.0292803 0.10007 0.045054 0.0333612 0.11431 0.0444637 0.0318044 0.11467 0.0330917 0.0255021 0.0966112 0.0437208 -0.0306116 0.16255 0.0484438 -0.029831 0.1492 0.0519933 -0.0305587 0.135203 0.0509604 -0.0295 0.13533 0.0486795 -0.0306107 0.14928 0.0491337 -0.0299679 0.124712 0.0491667 -0.031709 0.12431 0.0519504 -0.0315668 0.134825 0.0519933 -0.0305587 0.135203 0.0443065 -0.0304651 0.11477 0.0443471 -0.0318459 0.11475 0.0517044 -0.034 0.12436 0.0521824 -0.034 0.10976 0.053172 -0.0351418 0.10978 0.052691 -0.0351468 0.12443 0.0073235 0.0255001 0.0925093 0.00961863 0.0246848 0.0903153 0.005013 0.0249581 0.09125 0.00514898 0.0236307 0.0906188 0.0207544 0.0254891 0.0897655 0.0152246 0.0251232 0.0891045 0.0555548 0.0141237 0.0583513 0.0561227 5.9828e-05 0.0570475 0.0557189 0.00862476 0.0580178 0.056038 0.0100666 0.0573229 0.0554564 0.0185173 0.0587563 0.0551032 0.0231214 0.060161 0.055416 0.0234236 0.059669 0.0546695 0.0250964 0.0640437 0.0552084 0.0258095 0.063643 0.0550768 0.0260563 0.067317 0.0542103 0.0254795 0.0692924 0.0556366 0.0210168 0.058423 0.0553568 0.0252972 0.0613741 0.0556593 -1e-09 0.057861 -0.0484622 0.0255 0.12547 -0.0471115 0.0255 0.14686 -0.00628109 0.0255 0.09276 -0.00644977 0.0249581 0.09142 -0.0189498 0.0255 0.0957693 -0.00652876 0.0236267 0.0907801 -0.0178136 0.0236267 0.0934801 -0.0176012 0.0249581 0.09407 -0.0468651 0.0257808 0.11995 -0.0443065 0.0264651 0.11477 -0.0434636 0.0255 0.11531 0.0067373 0.00785562 0.0892177 0.0071362 6.6e-08 0.0887701 0.00399567 0.00394386 0.089737 0.00706989 0.0212783 0.0900305 0.00414663 0.0193719 0.0903054 0.00585708 0.0158821 0.0898798 0.0071518 0.0135121 0.0891801 0.0109939 0.0240947 0.08913 -0.0393704 0.0304409 0.10677 -0.0444612 0.0317186 0.11468 -0.0340725 0.0263889 0.0986913 -0.0331254 0.0255002 0.0990488 -0.0349239 0.0255011 0.175129 -0.0228102 0.0255012 0.184634 -0.0176654 0.0255 0.16068 -0.00790319 0.0255036 0.18997 -0.00972119 0.0255 0.16604 0.00791721 0.0255034 0.189956 2.51336e-05 0.0255 0.168005 0.0224299 0.0255011 0.184816 0.0097672 0.0255 0.16602 0.0346604 0.0255026 0.175611 0.0177007 0.0255 0.16065 0.0431525 0.0255 0.16229 0.0230463 0.0255 0.1527 0.0479197 0.0255 0.14962 0.0484615 0.0255 0.12547 0.0230269 0.0255 0.13326 0.0511199 0.0255 0.13648 0.025 0.0255 0.14297 0.0176654 0.0255 0.12532 0.0097212 0.0255 0.11996 -2.51811e-05 0.0255 0.117995 0.0330917 0.0255021 0.0966112 -0.00976724 0.0255 0.11998 -0.0177007 0.0255 0.12535 -0.0230463 0.0255 0.1333 -0.0270425 0.0255004 0.0959731 -0.0216219 0.0254984 0.0954104 -0.0434174 0.025501 0.1622 -0.025 0.0255 0.14303 -0.0230269 0.0255 0.15274 0.0548569 -0.0284738 0.057488 0.0552968 -0.0289421 0.0567232 0.0540912 -0.0295 0.059161 0.0070607 -0.0284738 0.08794 0.0034558 -0.0284738 0.08887 0.0553887 -0.0322091 0.0446669 0.0550951 -0.0305967 0.0591994 0.0521338 0.0265212 0.136398 0.0516572 0.027325 0.13867 0.0520105 0.0315659 0.134347 0.0568464 -0.0211624 0.0205549 0.0565274 -0.0364675 0.00150001 0.0572839 -0.00753455 0.018698 0.0563737 -0.0069563 0.0466716 0.0566485 0.00562698 0.0383208 0.0570237 0.0177158 0.01869 0.0561825 0.0175759 0.0444043 0.056391 0.0301363 0.018669 0.055738 0.0296528 0.0390194 0.0555543 0.0429895 0.00150001 0.0542868 0.0388637 0.0501026 0.0560302 -0.0200486 0.047268 0.0550908 0.0291314 0.061562 0.053333 0.0375914 0.0872 0.0538041 -0.0365103 0.0791658 0.0506563 0.0358 0.13848 0.0522533 0.0343802 0.12968 0.0531466 -0.0365 0.10292 0.0542517 -0.0305971 0.0887401 0.0552278 -0.0364967 0.0356753 0.0576724 -0.0184346 0.00150001 0.0579515 0.00328937 0.00150001 0.0572696 0.0249945 0.00150001 0.0534728 0.042981 0.0532672 0.05281 0.0367015 0.11288 0.0518149 0.0430045 0.106829 0.0501418 0.0430025 0.13354 0.0417585 0.0430001 0.16167 0.044063 0.0265734 0.1627 0.0488708 0.026573 0.14992 0.0536036 -0.033991 0.0990101 0.0525634 -0.0365011 0.12321 0.0522039 -0.0343667 0.13018 0.0495211 -0.0365256 0.14313 0.0429623 -0.0365 0.16221 0.0526966 0.0351491 0.12399 -0.0490815 0.0319128 0.097831 -0.0496833 0.0294137 0.0912545 -0.0501733 0.0255061 0.0843055 -0.00623422 -0.0284738 0.08911 -0.00640722 8e-09 0.08988 -0.0157252 -0.0284738 0.09108 -0.0163369 -1e-09 0.09206 -0.0182807 -0.0284665 0.0912899 -0.0443445 -0.0317558 0.11475 -0.0443065 -0.0304651 0.11477 -0.0510063 0.0224858 0.07369 -0.0505177 0.0246413 0.07629 -0.0501547 0.0252903 0.0800501 -0.0512712 0.0178953 0.07256 -0.0514754 0.0119607 0.0719931 -0.042079 0.0532853 0.10811 -0.0438626 0.0544055 0.054827 -0.0407265 0.0551406 0.10242 -0.047262 0.0441024 0.11027 -0.049342 0.0442047 0.054504 -0.0466715 0.0456927 0.110027 -0.0486758 0.0461488 0.0544474 -0.0392954 0.0439396 0.16552 -0.0386384 0.045882 0.164579 0.0071048 0.0439318 0.18778 0.00707127 0.0454298 0.187019 0.0437825 0.0440289 0.15557 0.0432058 0.0455545 0.154913 0.0515104 0.0442408 0.09951 0.0506906 0.0460941 0.0992683 0.0531339 0.0443342 0.048863 0.0522242 0.0464273 0.0489029 -0.0459019 0.0474118 0.10968 -0.0479536 0.0478407 0.054558 0.0070422 0.0466768 0.18626 0.0425226 0.0470561 0.15415 0.0496979 0.0479145 0.0990301 0.0511967 0.0483418 0.048932 -0.0447849 0.0494928 0.10922 -0.0467764 0.0501434 0.054625 -0.037487 0.0484486 0.16292 0.0069873 0.0483514 0.18502 0.041529 0.0488971 0.15303 0.0482103 0.0501754 0.09865 0.0495822 0.0508235 0.048962 -0.0435082 0.0514539 0.10869 -0.04541 0.0523355 0.054723 -0.0366071 0.0500394 0.16165 0.0069223 0.049881 0.18361 0.0404224 0.0505728 0.15178 0.0465197 0.0522567 0.0982 0.0477467 0.0531591 0.0490171 -0.0356418 0.0514912 0.16025 0.0068476 0.0512539 0.18206 0.0392081 0.0520687 0.15042 0.0446366 0.0541436 0.09772 0.0457152 0.0553244 0.049069 -0.0422295 0.0563184 0.0519781 -0.0429391 0.0565909 0.00150001 0.0534728 0.042981 0.0532672 0.0555543 0.0429895 0.00150001 0.0510081 0.0509275 0.00150001 0.0449638 0.0577828 0.00150001 0.0434852 0.0571729 0.0518661 0.0425282 0.0555867 0.10222 -0.0478515 0.0502607 0.00150001 -0.0511885 0.0429798 0.00150001 -0.041945 0.0430003 0.16125 -0.0336893 0.0430008 0.17391 -0.0217776 0.0429991 0.18323 -0.0075154 0.0429997 0.18812 0.0080362 0.0429987 0.18803 0.0226462 0.0429983 0.18272 0.034524 0.0429996 0.17306 0.0417585 0.0430001 0.16167 0.0501418 0.0430025 0.13354 0.0370233 0.0532174 0.152 0.000373901 0.0524413 0.181 -0.0367567 0.0530001 0.15264 -0.0499745 -0.0295 0.07293 0.0449651 -0.052802 0.00150001 0.0215811 -0.0485909 0.09193 0.0434838 -0.0501194 0.052085 -0.0422342 -0.0490885 0.051821 -0.0247397 -0.0481988 0.0892101 -0.0429394 -0.0513916 0.00150001 -0.0001006 -0.0416541 0.181 -0.00158425 -0.0489071 0.09057 -0.0368896 -0.0427781 0.15212 -0.040739 -0.0462045 0.10209 0.0009845 -0.0538559 0.00150001 0.042522 -0.0467517 0.10264 0.0369246 -0.0430519 0.15234 -0.0429705 0.033126 0.110866 -0.0464537 0.034 0.11341 0.05171 0.034 0.12392 0.0490094 0.0334259 0.12159 0.051833 0.0334575 0.12937 0.0492138 0.0316894 0.12404 0.0493757 0.0260268 0.125193 0.0517984 -0.0334471 0.12981 -0.0203894 0.0244796 0.0939822 -0.0358105 0.0286875 0.10007 -0.0387854 0.031211 0.10452 -0.0398701 0.0318605 0.10353 -0.0336956 0.0255362 0.0948429 -0.0491445 -0.0305988 0.124338 -0.0481335 -0.0295 0.12459 0.0425282 0.0555867 0.10222 0.0215402 0.0571168 0.09189 0.0434852 0.0571729 0.0518661 -0.0273769 0.054701 0.13363 -0.00423061 0.0554243 0.13498 -0.0367567 0.0530001 0.15264 -0.0247602 0.0567209 0.08917 -0.0221409 0.0578539 0.044672 -0.00161466 0.0574302 0.0905201 0.0010036 0.0585492 0.046021 0.0241567 0.0582431 0.0473871 0.0189258 0.0551037 0.13635 0.0449638 0.0577828 0.00150001 0.000373901 0.0524413 0.181 0.0370233 0.0532174 0.152 0.000988401 0.0589451 0.00150001 -0.0429391 0.0565909 0.00150001 -0.0422295 0.0563184 0.0519781 -0.0407265 0.0551406 0.10242 0.00764667 -0.0364938 0.189405 0.00778639 -0.0321825 0.190089 0.0225488 -0.0305448 0.185298 -0.00798671 -0.0365005 0.18934 -0.00805832 -0.0321307 0.190063 -0.0227329 -0.0364676 0.184169 -0.0230107 -0.0321368 0.184826 -0.0347142 -0.0364101 0.174754 -0.0352965 -0.0308194 0.17538 -0.0430681 -0.0363939 0.162019 -0.0438557 -0.0304801 0.162353 0.0349125 -0.0302517 0.17579 0.034319 -0.0364475 0.175265 0.00791473 -0.0302158 0.190238 -0.00800814 -0.0301843 0.19022 -0.0230416 -0.0302 0.184983 0.0221422 -0.0364564 0.18453 0.0462284 -0.034 0.11355 -0.0351578 -0.0300182 0.17529 -0.0166928 0.0146717 0.09259 0.0480201 -0.0336371 0.10683 0.0462541 -0.0316259 0.09885 0.0412216 -0.032899 0.106491 0.0527469 -0.0328957 0.09921 0.035273 0.0306659 0.17537 0.0351647 0.0263847 0.17608 0.0228299 0.0323506 0.18483 -0.041945 0.0430003 0.16125 -0.0428194 0.0389867 0.16129 0.0222378 0.0389867 0.18389 0.0343083 0.0389867 0.17448 0.0348486 0.0348391 0.17497 0.00779161 0.0368957 0.189336 -0.0349117 0.0367425 0.17442 -0.043859 0.0324205 0.161679 0.0080302 0.0306659 0.1902 -0.00795878 0.0367586 0.189351 -0.00807116 0.0306659 0.1902 -0.0228575 0.0368501 0.184056 -0.0232564 0.0306659 0.18485 -0.0355451 0.0306659 0.17505 -0.0441598 0.0262575 0.162529 -0.0355842 0.026245 0.175627 0.034524 0.0429996 0.17306 0.0226462 0.0429983 0.18272 0.0080362 0.0429987 0.18803 -0.0217776 0.0429991 0.18323 -0.0336893 0.0430008 0.17391 -0.0232752 0.0262327 0.185305 0.00789949 0.0263861 0.190634 -0.00814335 0.0263632 0.19059 0.022695 0.0262415 0.185606 0.0410388 -0.0322745 0.10882 0.0412216 -0.032899 0.106491 0.0449272 -0.0333733 0.11439 -0.047122 0.033372 0.10558 -0.0443284 0.0333424 0.107246 -0.0401844 0.0294018 0.0972974 -0.0182506 0.00647774 0.0924301 -0.0201773 0.00655311 0.0918 -0.0184591 0.0196855 0.0930719 -0.026798 0.0252761 0.0945044 -0.0213809 0.0233403 0.0930501 -0.0236088 0.0246067 0.09334 -0.0202937 0.0203671 0.09264 -0.020096 0.0147944 0.09221 -0.0483898 -0.0334141 0.12029 -0.0449513 -0.033347 0.11438 -0.041037 -0.0324608 0.10857 -0.036209 -0.0295045 0.101905 -0.0466524 -0.0297808 0.11952 -0.0183259 -0.0141407 0.09176 0.0489532 -0.0334316 0.12184 0.0517044 -0.034 0.12436 -0.0533 0.0153 0.00951207</float_array>
                    <technique_common>
                        <accessor count="741" source="#shape0-lib-positions-array" stride="3">
                            <param name="X" type="float"/>
                            <param name="Y" type="float"/>
                            <param name="Z" type="float"/>
                        </accessor>
                    </technique_common>
                </source>
                <vertices id="shape0-lib-vertices">
                    <input semantic="POSITION" source="#shape0-lib-positions"/>
                </vertices>
                <triangles count="1098">
                    <input offset="0" semantic="VERTEX" source="#shape0-lib-vertices"/>
                    <p>0 2 1 2 4 3 3 5 2 4 6 3 6 7 3 7 8 3 8 9 3 9 10 3 11 3 10 5 12 2 12 13 2 13 14 2 14 15 2 15 1 2 16 18 17 18 16 19 20 17 18 19 22 21 22 19 16 23 21 24 25 21 22 26 23 27 25 24 21 26 27 28 24 27 23 29 28 30 31 28 27 32 29 33 31 30 28 30 33 29 34 36 35 37 39 38 38 40 37 38 39 41 39 42 41 42 43 41 43 44 41 44 45 41 46 41 45 37 40 36 40 47 36 47 48 36 48 49 36 49 35 36 33 50 32 51 17 52 51 52 53 20 52 17 54 53 55 56 53 52 54 55 57 56 55 53 58 57 59 60 57 55 58 59 61 60 59 57 50 61 62 63 61 59 62 32 50 63 62 61 64 66 65 67 64 68 69 65 66 67 68 70 65 68 64 70 72 71 72 70 68 71 74 73 74 71 72 73 76 75 76 73 74 77 75 78 79 75 76 78 80 77 79 78 75 81 77 80 82 84 83 85 87 86 85 86 88 89 86 87 90 88 91 92 88 86 93 90 94 92 91 88 93 94 95 91 94 90 96 95 97 98 95 94 84 96 99 98 97 95 99 83 84 97 99 96 87 100 89 101 82 102 103 101 104 83 102 82 103 104 105 102 104 101 105 107 106 107 105 104 108 106 109 110 106 107 111 108 112 110 109 106 111 112 100 109 112 108 113 89 100 113 100 112 114 116 115 117 119 118 120 119 116 117 118 121 120 118 119 118 122 121 122 123 121 123 124 121 124 125 121 126 121 125 119 127 116 127 128 116 128 129 116 129 115 116 66 130 69 131 130 132 131 69 130 132 134 133 134 132 130 133 136 135 136 133 134 137 135 138 139 135 136 137 138 140 139 138 135 141 140 142 143 140 138 80 141 81 143 142 140 142 81 141 144 146 145 147 144 145 147 145 148 149 147 148 150 152 151 153 151 152 154 155 144 146 144 155 156 158 157 159 160 157 157 160 161 160 162 161 163 161 164 163 164 165 162 164 161 166 165 167 168 165 164 167 169 166 168 167 165 170 166 171 169 171 166 172 173 170 172 170 171 170 173 174 173 175 174 176 174 177 175 177 174 178 176 179 180 176 177 179 181 178 180 179 176 156 178 158 159 157 158 181 158 178 149 148 182 183 152 184 153 152 183 185 151 186 150 151 185 154 186 155 185 186 154 187 189 188 190 192 191 193 195 194 196 191 192 197 196 192 194 196 197 196 194 195 197 192 190 193 194 197 198 191 196 199 198 196 199 196 195 200 199 195 201 203 202 204 202 203 205 204 203 206 208 207 208 210 209 209 211 208 210 212 209 213 214 212 215 214 216 217 218 187 217 212 214 187 218 189 209 212 187 212 217 187 218 219 189 189 219 193 195 193 220 220 193 219 216 221 215 213 216 214 222 223 221 215 221 223 211 224 208 224 225 208 225 226 208 226 227 208 227 228 208 228 229 208 229 207 208 230 201 202 231 203 201 231 201 230 232 234 233 235 237 236 231 230 238 239 231 240 241 230 242 243 231 238 241 238 230 230 244 242 242 244 245 237 245 244 244 246 237 246 247 237 247 248 237 248 249 237 236 237 250 250 251 236 249 250 237 232 252 234 233 234 251 252 253 234 253 254 234 254 255 251 235 236 255 234 254 251 236 251 255 235 256 237 257 259 258 260 240 243 231 243 240 199 200 240 261 257 258 259 262 258 262 198 258 240 258 198 199 240 198 239 240 200 242 245 263 245 237 264 264 237 256 264 263 245 263 174 242 176 265 174 266 268 267 242 265 241 242 174 265 265 176 268 260 243 269 238 241 269 269 241 265 238 269 243 270 271 266 270 266 272 176 267 268 267 272 266 235 255 271 266 271 255 273 275 274 276 274 277 278 276 279 280 277 274 281 282 279 277 279 276 282 281 283 278 279 284 284 279 282 283 286 285 286 283 281 287 289 288 290 285 286 287 288 291 285 290 289 288 289 290 291 293 292 293 291 288 294 292 293 295 292 296 297 295 298 294 296 292 298 300 299 296 298 295 301 303 302 297 298 299 303 299 300 304 301 305 300 302 303 306 308 307 302 305 301 306 307 273 308 304 307 305 307 304 280 274 275 275 273 307 309 311 310 312 314 313 315 317 316 318 316 317 319 320 315 317 315 320 321 322 319 320 319 322 323 324 321 322 321 324 314 312 323 324 323 312 317 325 318 326 318 325 320 327 317 325 317 327 322 328 320 327 320 328 324 329 322 328 322 329 312 330 324 329 324 330 325 331 326 332 326 331 327 331 325 328 333 327 331 327 333 329 334 328 333 328 334 330 335 329 334 329 335 331 336 332 337 332 336 336 331 338 333 339 331 338 331 339 334 340 333 339 333 340 335 341 334 340 334 341 336 342 337 343 337 342 338 344 336 342 336 344 339 345 338 344 338 345 340 346 339 345 339 346 341 347 340 346 340 347 342 309 343 309 342 348 344 348 342 345 349 344 348 344 349 346 350 345 349 345 350 347 351 346 350 346 351 310 352 309 330 312 353 354 313 314 335 330 355 313 353 312 341 335 356 353 355 330 347 341 357 355 356 335 357 358 347 356 357 341 351 347 358 358 359 351 343 309 352 352 360 343 360 361 343 343 361 337 362 363 337 362 337 361 363 364 337 337 364 332 365 366 332 365 332 364 366 367 332 326 332 368 368 369 326 367 368 332 369 370 326 370 371 326 326 371 318 372 373 316 316 318 372 372 318 371 316 373 315 374 375 321 321 319 374 374 319 373 319 315 373 354 314 375 321 375 323 314 323 375 359 376 351 376 311 348 351 376 350 349 350 376 349 376 348 309 348 311 377 233 251 213 378 216 378 221 216 379 381 380 382 379 380 382 380 383 384 382 383 384 383 385 386 384 385 387 389 388 390 387 388 391 393 392 380 393 391 394 380 391 392 393 381 395 392 381 396 385 394 380 381 393 383 380 394 385 383 394 391 392 395 396 394 391 397 399 398 397 398 400 401 397 400 402 399 395 398 399 402 403 398 402 404 396 401 400 404 401 404 400 389 391 395 399 397 391 399 401 391 397 391 401 396 400 398 403 405 406 206 407 408 406 208 206 406 408 208 406 409 406 405 407 406 409 410 412 411 413 412 410 414 411 415 410 411 414 416 418 417 419 418 416 415 378 414 420 422 421 423 421 422 424 420 425 421 425 420 414 213 212 378 213 414 426 428 427 427 429 426 429 430 426 431 430 432 432 433 431 433 432 434 434 435 433 436 433 435 432 437 434 432 430 437 437 430 429 434 438 435 438 434 437 386 436 435 439 427 428 440 253 252 441 253 440 442 443 420 444 443 442 445 423 443 446 445 443 422 420 443 423 422 443 447 443 444 446 443 447 252 448 440 449 450 448 450 440 448 449 448 252 451 453 452 423 455 454 456 454 455 456 453 451 455 453 456 454 421 423 451 457 456 454 456 457 458 421 454 421 458 425 459 461 460 449 460 461 449 461 462 450 449 462 463 465 464 464 467 466 468 466 469 469 466 467 470 468 471 472 470 473 469 471 468 474 472 475 471 473 470 474 475 476 473 475 472 477 479 478 480 476 475 387 390 481 476 480 479 478 479 480 477 478 390 481 390 478 482 483 420 484 424 396 424 484 482 387 481 484 482 484 481 385 396 436 436 396 424 442 420 483 482 420 424 444 442 485 483 485 442 486 487 450 462 488 486 488 489 486 489 444 486 485 486 444 440 487 441 462 486 450 440 450 487 441 491 490 491 441 487 490 492 463 492 490 491 467 464 465 465 463 492 427 439 493 494 427 493 495 496 215 493 496 495 497 452 453 496 452 497 497 215 496 214 215 497 494 499 498 500 502 501 498 504 503 505 506 503 506 505 507 508 509 507 510 511 508 509 508 511 512 513 510 511 510 513 503 514 498 514 503 506 511 515 509 515 511 513 513 516 515 499 517 498 518 501 502 502 519 518 520 517 521 522 498 517 504 498 522 503 523 505 523 503 504 507 524 508 507 505 524 524 505 523 510 508 525 525 508 524 525 512 510 512 526 513 513 526 516 527 516 528 528 516 526 518 527 529 529 530 518 528 529 527 501 518 531 531 532 501 530 531 518 500 501 532 521 533 520 521 517 499 533 418 520 520 418 534 419 535 534 419 534 418 412 536 535 405 537 409 413 409 412 534 535 536 536 412 409 536 409 537 527 518 538 538 379 527 519 538 518 516 527 382 382 384 516 379 382 527 515 516 386 384 386 516 386 435 515 435 438 515 509 515 437 437 429 509 438 437 515 509 429 507 429 427 507 507 427 506 498 514 494 494 514 427 506 427 514 539 251 250 377 251 539 540 250 249 539 250 540 541 249 248 540 249 541 542 453 543 497 453 542 544 543 545 542 543 544 542 218 217 544 218 542 497 217 214 542 217 497 218 544 546 218 546 205 219 218 205 547 259 548 257 548 259 188 548 187 548 188 547 248 247 541 549 550 246 551 541 247 552 549 244 550 551 246 247 246 551 553 552 244 246 244 549 244 230 553 553 230 202 554 556 555 557 559 558 560 558 559 561 562 557 559 557 562 563 564 561 562 561 564 565 566 563 564 563 566 567 568 565 566 565 568 569 570 567 568 567 570 559 571 560 572 560 571 571 559 562 564 573 562 566 574 564 573 564 574 568 575 566 574 566 575 570 576 568 575 568 576 571 577 572 578 572 577 562 579 571 577 571 579 573 580 562 579 562 580 574 581 573 580 573 581 575 582 574 581 574 582 576 583 575 582 575 583 577 584 578 585 578 584 579 586 577 584 577 586 580 587 579 586 579 587 581 588 580 587 580 588 582 589 581 588 581 589 583 590 582 589 582 590 584 554 585 555 585 554 586 591 584 554 584 591 587 592 586 591 586 592 588 593 587 592 587 593 589 594 588 593 588 594 590 595 589 594 589 595 596 597 555 598 599 569 599 600 569 600 601 590 576 570 600 583 576 600 569 600 570 601 602 595 583 600 590 595 590 601 603 594 602 595 602 594 594 603 593 555 597 585 604 605 578 578 585 604 604 585 597 605 255 558 578 605 572 560 572 605 558 560 605 558 255 557 254 606 561 561 557 254 254 557 255 606 607 561 607 608 561 561 608 563 609 610 563 609 563 608 610 611 563 565 563 612 612 613 565 611 612 563 613 614 565 565 614 567 528 567 614 569 567 526 528 526 567 593 615 592 615 593 603 592 616 591 616 592 615 591 617 554 617 591 616 596 555 556 556 554 617 618 219 205 203 618 205 220 239 195 200 195 239 203 231 220 239 220 231 619 621 620 622 624 623 625 627 626 628 622 623 624 629 623 626 623 629 626 629 620 630 631 620 628 623 627 620 625 626 623 626 627 625 620 631 630 620 621 619 620 629 222 499 223 521 499 222 377 633 632 233 377 632 233 632 460 232 233 460 379 538 634 381 379 634 402 635 403 395 635 402 636 502 635 634 636 635 637 403 635 502 637 635 634 635 395 502 500 638 637 502 638 637 638 388 403 637 388 479 638 500 390 388 638 477 638 479 390 638 477 385 436 386 419 416 639 535 419 639 535 639 412 439 428 452 433 425 431 425 433 424 436 424 433 431 458 430 458 431 425 426 430 457 454 430 458 428 426 451 454 457 430 457 451 426 451 452 428 460 449 232 252 232 449 488 640 489 640 446 489 444 489 447 446 447 489 461 459 641 642 641 459 459 460 632 642 632 643 642 643 641 633 643 632 644 461 641 644 641 643 632 642 459 461 644 462 387 484 389 645 261 211 646 645 211 647 649 648 650 652 651 653 655 654 656 654 655 650 651 653 655 653 651 655 648 656 657 656 648 651 658 655 648 655 658 649 659 657 651 660 658 660 651 652 661 647 658 661 658 660 648 658 647 657 648 649 656 657 662 656 662 654 659 662 657 663 664 654 663 654 662 654 664 653 652 650 665 665 653 664 653 665 650 532 474 476 531 474 532 500 476 479 532 476 500 666 668 667 669 667 670 666 667 669 671 670 672 669 670 671 673 672 674 671 672 673 675 674 676 673 674 675 677 678 405 668 678 677 667 668 679 680 667 679 670 667 680 681 670 680 672 670 681 674 672 681 682 678 668 666 682 668 537 405 678 258 676 261 676 258 675 417 683 416 677 207 229 228 679 229 227 680 228 679 228 680 226 681 227 680 227 681 225 684 226 681 226 684 684 225 224 229 668 677 668 229 679 224 676 684 211 261 224 676 224 261 684 676 674 405 206 677 207 677 206 674 681 684 223 494 493 499 494 223 423 445 543 453 455 543 455 423 543 685 545 445 446 685 445 545 543 445 417 686 683 222 221 687 688 683 686 688 687 221 689 686 417 688 686 689 687 688 689 222 687 689 413 410 210 414 212 410 212 210 410 690 692 691 693 254 694 695 692 696 697 696 692 692 695 698 694 700 699 690 697 692 698 701 692 702 703 698 701 698 703 704 705 702 703 702 705 699 706 704 705 704 706 706 699 700 691 531 690 254 253 694 253 707 700 694 253 700 708 706 707 700 707 706 706 708 705 531 530 690 530 709 696 690 530 697 696 697 530 695 696 710 698 695 711 709 710 696 702 698 609 710 711 695 704 702 712 711 609 698 699 704 713 609 712 702 713 693 699 712 713 704 694 699 693 705 714 703 714 705 708 701 703 715 716 703 714 692 701 717 716 715 703 717 691 692 715 717 701 415 718 378 221 378 718 719 221 718 720 718 415 719 718 720 683 719 720 689 418 533 417 418 689 222 533 521 689 533 222 472 691 717 715 468 717 716 466 715 468 715 466 466 716 714 717 470 472 470 717 468 714 464 466 708 463 714 464 714 463 707 490 708 463 708 490 253 441 707 490 707 441 474 531 472 691 472 531 539 722 721 723 539 540 377 722 633 722 377 721 541 644 723 540 541 723 643 633 722 539 643 722 723 643 539 643 723 644 539 721 377 545 685 724 725 204 724 726 724 685 545 724 204 462 727 488 640 728 726 640 488 729 728 640 729 727 729 488 730 726 728 731 725 726 730 731 726 724 726 725 446 640 726 446 726 685 262 259 732 198 732 191 262 732 198 733 734 190 547 734 733 735 193 734 188 735 734 197 190 734 193 197 734 188 734 547 187 736 209 548 257 736 257 209 736 548 736 187 205 737 204 544 545 737 545 204 737 546 737 205 544 737 546 732 547 733 259 547 732 191 733 190 732 733 191 400 403 389 388 389 403 634 395 381 519 502 636 538 636 634 519 636 538 639 738 412 739 738 639 720 415 738 683 720 738 411 412 738 415 411 738 683 738 739 496 493 452 439 452 493 644 541 727 462 644 727 727 551 729 551 727 541 550 549 728 550 729 551 730 552 731 729 550 728 552 730 549 728 549 730 731 553 725 553 731 552 204 725 553 202 204 553 184 740 183</p>
                </triangles>
            </mesh>
        </geometry>
    </library_geometries>
    <library_visual_scenes>
        <visual_scene id="VisualSceneNode" name="VisualScene">
            <node id="node" name="node">
                <instance_geometry url="#shape0-lib"/>
            </node>
        </visual_scene>
    </library_visual_scenes>
    <scene>
        <instance_visual_scene url="#VisualSceneNode"/>
    </scene>
</COLLADA>
