<?xml version="1.0" encoding="UTF-8"?>
<COLLADA xmlns="http://www.collada.org/2005/11/COLLADASchema" version="1.4.1">
    <asset>
        <contributor>
            <author>VCGLab</author>
            <authoring_tool>VCGLib | MeshLab</authoring_tool>
        </contributor>
        <created>火 7月 1 01:26:26 2025 GMT</created>
        <modified>火 7月 1 01:26:26 2025 GMT</modified>
        <up_axis>Y_UP</up_axis>
    </asset>
    <library_geometries>
        <geometry id="shape0-lib" name="shape0">
            <mesh>
                <source id="shape0-lib-positions" name="position">
                    <float_array id="shape0-lib-positions-array" count="1824">-0.00969815 0.0455 -0.0230501 2.49995e-05 0.0455 -0.0250001 -0.0176477 0.0455 -0.0177 -0.0230172 0.0455 -0.00977004 0.0230172 0.0455 0.00976992 -0.025005 0.0455 -2.51532e-05 0.025005 0.0455 2.51532e-05 0.0176477 0.0455 0.0177 -0.0230366 0.0455 0.00971997 -0.017683 0.0455 0.01767 -0.00974421 0.0455 0.0230299 -2.49995e-05 0.0455 0.025 0.0096981 0.0455 0.02305 0.0230366 0.0455 -0.00971997 0.0176831 0.0455 -0.01767 0.0097442 0.0455 -0.02303 -0.0216421 0.024246 0.0435799 -0.0216421 0.024246 0.0545 -0.0244024 0.0214253 0.0481299 -0.0325 -1.4e-08 0.0345699 -0.0323449 0.00307036 0.0446399 -0.0325 0 0.0545 -0.0263226 0.0190614 0.0544996 -0.0297155 0.0131555 0.0544919 -0.0287259 0.0152191 0.0464699 -0.0312958 0.00878943 0.0451999 -0.03179 0.00676638 0.0544996 -0.0266753 0.018566 0.04005 -0.0302893 0.0117817 0.0368899 -0.0319325 0.0060984 0.0352099 -0.0425705 0.024499 0.0133507 -0.0230366 0.0245 0.00971997 -0.0359822 0.0244992 0.0263202 -0.0446162 0.0244987 -0.00104809 -0.0250051 0.0245 -2.51532e-05 -0.0427098 0.0244991 -0.015573 -0.0373261 0.0244991 -0.0293469 -0.0230172 0.0245 -0.00977004 -0.0143858 0.0244992 -0.0465128 -0.00969815 0.0245 -0.0230501 -0.0275562 0.0244993 -0.0399408 -0.0176477 0.0245 -0.0177 0 0.0245 -0.04845 2.49995e-05 0.0245 -0.0250001 0.0144706 0.0244992 -0.0464457 0.0097442 0.0245 -0.02303 0.0275758 0.0244992 -0.0399734 0.0176831 0.0245 -0.01767 0.0427168 0.0244987 -0.0155425 0.0230366 0.0245 -0.00971997 0.0374175 0.0244991 -0.0291847 0.0447471 0.0244968 -0.000968695 0.0250051 0.0245 2.51532e-05 0.0426398 0.0244971 0.0135731 0.0357376 0.0244995 0.0267489 0.0230172 0.0245 0.00976992 0.0212326 0.0244994 0.0416282 0.0096981 0.0245 0.02305 0.0237521 0.0244999 0.0378987 0.0176477 0.0245 0.0177 -0.0210783 0.0244999 0.0545104 -2.49995e-05 0.0245 0.025 0.0213193 0.0244989 0.0545061 -0.0217987 0.0244999 0.040081 -0.00974421 0.0245 0.0230299 -0.017683 0.0245 0.01767 0.0148279 0.0239481 -0.0470856 0.0281109 0.0239188 -0.040494 0.0381202 0.0239163 -0.0294605 0.0434782 0.0239156 -0.0155473 0.0453442 0.0238852 -0.000820041 0.0431782 0.0238852 0.01385 0.0362641 0.023941 0.0271564 0.0379233 0.0235471 0.02517 0.0443112 0.0235471 0.00994992 0.0451604 0.0235471 -0.00695002 0.0407711 0.0235471 -0.0242901 0.0341057 0.0235471 -0.0350502 0.0244903 0.0235471 -0.04294 0.0128225 0.0235471 -0.0477901 0 0.0235471 -0.04945 0.0246117 0.0235108 0.0385723 -0.0156047 -0.0284997 0.0545851 -0.0156129 -0.0284992 0.0431954 -0.0173763 -0.0274648 0.0545 -0.0173763 -0.0274648 0.0425899 -0.0189803 -0.027 0.04214 -0.0169626 -0.0285 0.0411031 -0.0274613 -0.0270128 0.037073 -0.028483 -0.0285 0.0341331 0.0444917 -0.028499 0.00187039 0.0413879 -0.028498 0.0164551 0.0156205 -0.0285 0.0575 0.0156458 -0.0284858 0.0545583 0.0145516 -0.0285 0.058 -0.0145516 -0.0285 0.058 -0.0156205 -0.0285 0.0575 0.0332491 -0.0284991 0.0293902 0.0176327 -0.0284996 0.0416591 0.0156726 -0.0284984 0.0457065 0.0430601 -0.0284996 -0.0131173 0.0283569 -0.0284999 -0.0390716 0.0380258 -0.0284997 -0.0277139 -0.0386078 -0.0284997 0.0220953 -0.0433885 -0.0284997 0.00931168 -0.0442962 -0.0284997 -0.00430644 -0.0417139 -0.0284996 -0.0184288 -0.0360208 -0.0284995 -0.0309845 -0.0262602 -0.0284976 -0.0408074 -0.013673 -0.0284975 -0.0465883 0 -0.0285 -0.0482401 0.014938 -0.0284971 -0.0461457 -0.0139768 -0.0277883 -0.0472287 -0.026741 -0.0277088 -0.0413097 -0.036693 -0.0278498 -0.0314455 -0.0425129 -0.0278493 -0.0186048 -0.0451288 -0.0278363 -0.00422299 -0.0441805 -0.0278282 0.00957978 -0.0393961 -0.0278183 0.0223125 0 -0.0275551 -0.04924 -0.030437 -0.0275551 0.0334699 0 -0.00200661 -0.0500001 0.0133619 0.0107689 -0.04804 0.0455971 -0.0147948 -0.00501001 0.0451237 -0.0277816 0.00198972 0.0438653 -0.0147948 0.0129399 0.0440625 -0.00201363 0.01299 0.0439655 0.0107689 0.01297 0.0458126 -0.00201363 -0.00503004 0.0456993 0.0107689 -0.00502002 0.0418467 -0.00201363 -0.02303 0.0417418 0.0107689 -0.02299 0.0416453 -0.0147948 -0.0229601 0.0355248 -0.00201363 -0.0342801 0.0354437 0.0107689 -0.03421 0.0353621 -0.0147948 -0.0341501 0.0258315 -0.00201363 -0.0428101 0.025769 0.0107689 -0.0427101 0.0257155 -0.0147948 -0.0426301 0.0133915 -0.00201363 -0.04814 0.0133355 -0.0147948 -0.04794 0.0438172 -0.0278394 -0.0134718 0.0419085 -0.0277117 0.017037 0.0387561 -0.0278497 -0.0280569 0.0152728 -0.0278257 -0.0468544 0.0288752 -0.0278031 -0.0397524 0.0365032 0.0176568 0.0274799 0.033909 0.0202334 0.0304699 0.0400997 3.234e-06 0.02254 0.0391408 0.00924943 0.0240099 0.0390079 -0.00725655 0.0245751 0.0381073 -0.0132755 0.0253999 0.0327835 -0.0247104 0.03139 0.0339881 -0.0278641 0.0297238 0.0296711 -0.0267203 0.0343038 0.020963 -0.027676 0.0401129 0.0348398 0.0165625 0.0545 0.0348262 0.0165253 0.05601 0.0303713 0.0181889 0.0545 0.0301906 0.0180012 0.0564723 0.0357955 0.0153636 0.056501 0.0223715 -0.0246588 0.0403097 0.0181706 -0.0280224 0.0422199 0.022146 -0.0237998 0.0425814 -0.0232114 0.0239362 0.0399699 -0.0261229 0.0235471 0.0371898 0.0316149 -0.023 0.0378 0.0298495 -0.0240968 0.0356899 0.0240982 -0.0230164 0.0418971 0.0307272 -0.0227 0.0545 0.0332527 -0.0213192 0.0545 0.0315951 -0.023 0.0545 0.0287147 0.0177502 0.0545 0.0273323 0.0196143 0.0545 0.0303713 0.0181889 0.0545 0.0285506 0.0160445 0.0545 0.0358386 0.016506 0.0545022 0.0365929 0.0148731 0.0545 0.0348398 0.0165625 0.0545 0.0326065 -0.00304734 0.0545 0.032332 -0.00315989 0.0545473 0.0320577 0.00670303 0.0545 0.024129 0.0217724 0.0545 0.0247581 -0.0216602 0.0545011 0.027015 -0.0177714 0.0545055 0.0302604 -0.0125272 0.0545 0.0302258 0.0114616 0.0545001 0.0213193 0.0244989 0.0545061 0.0221286 -0.0238028 0.0545 0.0156458 -0.0284858 0.0545583 0.0241713 -0.023 0.0545 0.025849 -0.0227 0.0545 0.0324157 -0.0225714 0.0545 0.0302258 0.0114616 0.0545001 0.0302357 0.0119997 0.0546932 0.0207674 0.0249999 0.054525 0.032332 -0.00315989 0.0545473 0.0213193 0.0244989 0.0545061 0.027015 -0.0177714 0.0545055 0.0273898 -0.0175512 0.0546999 0.0156458 -0.0284858 0.0545583 0.03892 -0.00735644 0.0262917 0.0396029 0 0.0248599 0.0366943 -0.0148322 0.0281345 0.0347859 -0.0192964 0.03004 0.0351475 -0.0181507 0.0313551 0.0324154 -0.0225817 0.03417 0.0365929 0.0148731 0.0545 0.0365562 0.0148581 0.05601 0.0207674 0.0249999 0.054525 0.0302241 0.0120233 0.0575202 0.0207666 0.025 0.0575 0.0302357 0.0119997 0.0546932 0.0323499 -0.00311424 0.0574853 0.032332 -0.00315989 0.0545473 0.0273885 -0.0175529 0.0574833 0.0273898 -0.0175512 0.0546999 0.0156205 -0.0285 0.0575 0.0156458 -0.0284858 0.0545583 0.0324157 -0.0225714 0.0545 0.0315951 -0.023 0.0545 0.0324154 -0.0225817 0.03417 0.0241713 -0.023 0.0545 0.0263611 0.0208705 0.0382099 0.0347633 0.0178461 0.0309459 0.0273323 0.0196143 0.04028 0.0355137 0.0166365 0.03315 0.0360655 0.0161211 0.0298899 0.0347633 0.0178461 0.0309459 0.0385499 0.00564345 0.0565 0.0390445 0.00571585 0.05601 0.0387953 -0.00358045 0.0565 0.0392929 -0.0036264 0.05601 0.0368659 -0.0126037 0.0565 0.0373388 -0.0127654 0.05601 0.0322525 -0.0218919 0.0565031 0.0332194 -0.0212978 0.05601 0.0387813 0.0075763 0.0545 0.0332527 -0.0213192 0.0545 0.0378956 -0.0111048 0.0545 0.0395 0 0.0545 0.0307272 -0.0226604 0.05601 0.0386271 0.00850765 0.0263399 0.0307272 -0.0227 0.0545 0.0285851 0.0160639 0.05601 0.0320577 0.00670303 0.0545 0.0285506 0.0160445 0.0545 0.0320965 0.00671113 0.05601 0.0326065 -0.00304734 0.0545 0.0326459 -0.00305104 0.05601 0.0302604 -0.0125272 0.0545 0.0302971 -0.0125423 0.05601 0.0247581 -0.0216602 0.0545011 0.0251135 -0.0210825 0.05601 0.025849 -0.0227 0.0545 0.025849 -0.0226604 0.05601 0.0213193 0.0244989 0.0545061 0.0207674 0.0249999 0.054525 -0.0210783 0.0244999 0.0545104 -0.020769 0.0249999 0.0545188 0.0318408 -0.00322858 0.0580046 0.0323499 -0.00311424 0.0574853 0.0266788 -0.0177052 0.0579855 0.0273885 -0.0175529 0.0574833 0.0297057 0.0120111 0.0580075 0.0302241 0.0120233 0.0575202 0.0156205 -0.0285 0.0575 0.0145516 -0.0285 0.058 0.019975 0.025 0.058 0.0207666 0.025 0.0575 0.0221286 -0.0238028 0.0545 0.0311453 -0.0241185 0.03414 0.0298495 -0.0240968 0.0356899 -0.0318424 -0.00322691 0.058007 -0.0323488 -0.00311761 0.0574892 -0.0296961 0.0120013 0.0579941 -0.0302332 0.012008 0.0574963 -0.0266824 -0.0177007 0.0579847 -0.0273882 -0.0175527 0.0574881 -0.0207666 0.025 0.0575 -0.019975 0.025 0.058 -0.0156205 -0.0285 0.0575 -0.0145516 -0.0285 0.058 -0.0207666 0.025 0.0575 -0.0302428 0.0119889 0.0546938 -0.020769 0.0249999 0.0545188 -0.0302332 0.012008 0.0574963 -0.0323391 -0.0031299 0.0545372 -0.0323488 -0.00311761 0.0574892 -0.0273745 -0.0175504 0.0545118 -0.0273882 -0.0175527 0.0574881 -0.0156047 -0.0284997 0.0545851 -0.0156205 -0.0285 0.0575 -0.0302428 0.0119889 0.0546938 -0.0302238 0.0114756 0.0545 -0.0210783 0.0244999 0.0545104 -0.0323391 -0.0031299 0.0545372 -0.020769 0.0249999 0.0545188 -0.0210783 0.0244999 0.0545104 -0.0302238 0.0114756 0.0545 -0.0263226 0.0190614 0.0544996 -0.0297155 0.0131555 0.0544919 -0.03179 0.00676638 0.0544996 -0.0323391 -0.0031299 0.0545372 -0.0325 0 0.0545 -0.031996 -0.0122862 0.0545 -0.0275276 -0.027 0.0545 -0.0304873 -0.0244898 0.0545 -0.0189803 -0.027 0.0545 -0.0273745 -0.0175504 0.0545118 -0.0294678 -0.0262877 0.0545 -0.0156047 -0.0284997 0.0545851 -0.0173763 -0.0274648 0.0545 -0.0216421 0.024246 0.0545 -0.0262714 0.0204142 0.0381099 -0.0305362 0.013567 0.0344455 -0.0338233 0 0.03118 -0.0325238 0.00740963 0.0326223 -0.0189803 -0.027 0.0545 -0.0320283 -0.012303 0.0349599 -0.031996 -0.0122862 0.0545 -0.0304873 -0.0244898 0.0358 -0.0304873 -0.0244898 0.0545 -0.0275276 -0.027 0.0545 -0.0294678 -0.0262877 0.0545 -0.029324 -0.0263524 0.0360999 -0.033342 -0.0125885 0.0314399 -0.0319019 -0.0250527 0.0322599 -0.0299158 -0.0265526 0.0344151 -0.0385925 -0.00201363 0.02517 -0.0129134 -0.0147948 -0.04811 -0.0129723 -0.00201363 -0.0483102 -0.0129413 0.0107689 -0.04821 -0.0247894 -0.00201363 -0.04339 -0.0247282 0.0107689 -0.0433002 -0.0246724 -0.0147948 -0.04321 -0.0345323 -0.00201363 -0.03539 -0.0344456 0.0107689 -0.03532 -0.0343658 -0.0147948 -0.0352601 -0.041282 -0.00201363 -0.02449 -0.0411781 0.0107689 -0.0244499 -0.0410826 -0.0147948 -0.0244101 -0.0457086 -0.00201363 -0.00709999 -0.0455947 0.0107689 -0.00709999 -0.0454906 -0.0147948 -0.00708997 -0.0449159 -0.00201363 0.00984991 -0.0448049 0.0107689 0.00981987 -0.0447039 -0.0147948 0.00978994 -0.0384979 0.0107689 0.0250999 -0.0384118 -0.0147948 0.02504 -0.0381317 0.0235471 0.0248399 -0.0443701 0.0235471 0.00968993 -0.0451471 0.0235471 -0.00708997 -0.0407711 0.0235471 -0.0242901 -0.0341057 0.0235471 -0.0350502 -0.0128225 0.0235471 -0.0477901 -0.0244902 0.0235471 -0.04294 -0.0366271 0.0239322 0.026674 -0.0433114 0.0239197 0.0134454 -0.0453536 0.0239173 -0.00120723 -0.0433795 0.0239157 -0.0159423 -0.0378953 0.0239147 -0.0298351 -0.0279034 0.0239165 -0.0406044 -0.0147344 0.0239339 -0.0471226 0.0287147 0.0177502 0.0545 0.0287666 0.0174907 0.056486 0.0216421 0.024246 0.0428499 0.024129 0.0217724 0.0545 0.024129 0.0217725 0.04131 0.0273323 0.0196143 0.0545 0.0358386 0.016506 0.0545022 0.0375473 0.0130793 0.0354762 0.0407878 0 0.0509499 0.0404589 0.00427217 0.0490999 0.0411162 -2.0521e-05 0.0462289 0.0393692 0.00849183 0.04921 0.0379108 0.0124141 0.04941 0.0391537 0.00876343 0.0372779 0.0403864 0.0043169 0.04153 0.0400317 0.00436386 0.0333499 0.0406966 5.0921e-05 0.0347694 0.0325858 0.00681344 0.0565 0.0331436 -0.00309755 0.0565 0.0307589 -0.0127335 0.0565 0.0251236 -0.0220749 0.0564963 -0.020769 0.0249999 0.0545188 0.0207674 0.0249999 0.054525 -0.019975 0.025 0.058 -0.0207666 0.025 0.0575 0.019975 0.025 0.058 0.0207666 0.025 0.0575 0.03251 -1.494e-06 0.0584065 0.032505 2.5862e-05 0.0665966 0.029931 0.0126759 0.0583936 0.0229499 0.0230031 0.0666023 0.0229603 0.0229926 0.058395 0.0299273 0.0126855 0.0666016 0.012616 0.0299567 0.0666007 0.0126368 0.0299477 0.058395 -2.55564e-05 0.0325 0.0666003 3.23821e-06 0.0324998 0.0583994 -0.0126624 0.0299371 0.0666 -0.0126322 0.0299498 0.058398 -0.022986 0.0229668 0.0666045 -0.0229583 0.0229947 0.0583957 -0.0299473 0.0126376 0.0666041 -0.0299294 0.0126804 0.0583963 -0.032505 -2.5862e-05 0.0665966 -0.03251 1.494e-06 0.0584065 0.0226634 0.0227301 0.0669999 0.029559 0.012535 0.0669999 0.0188205 0.0188432 0.0669999 0.0321002 4.5679e-05 0.0669999 0.0245356 0.0103815 0.0669999 0.0266397 1.0717e-05 0.0669999 0.0295853 -0.0124705 0.0669998 0.0245439 -0.0103618 0.0669999 0.0227238 -0.0226675 0.0669999 0.0125421 -0.0295571 0.0669999 0.0188356 -0.0188281 0.0669999 3.94061e-05 -0.0320999 0.0669999 0.0103716 -0.0245397 0.0669999 -0.0124521 -0.0295942 0.0669999 1.07009e-05 -0.0266375 0.0669999 -0.0226639 -0.0227274 0.0669999 -0.0103519 -0.0245481 0.0669999 -0.0295598 -0.0125306 0.0669999 -0.0188205 -0.0188432 0.0669999 -0.0321002 -4.5679e-05 0.0669999 -0.0245356 -0.0103815 0.0669999 -0.0266397 -1.0717e-05 0.0669999 -0.0295853 0.0124705 0.0669998 -0.0245439 0.0103618 0.0669999 -0.0227238 0.0226675 0.0669999 -0.0125422 0.0295571 0.0669999 -0.0188356 0.0188281 0.0669999 -3.94182e-05 0.0320999 0.0669999 -0.0103716 0.0245397 0.0669999 0.0124509 0.0295953 0.0669999 -1.06897e-05 0.0266375 0.0669999 0.0103519 0.0245481 0.0669999 0.0227238 -0.0226675 0.0669999 0.0295853 -0.0124705 0.0669998 0.022986 -0.0229668 0.0666045 0.0299473 -0.0126376 0.0666041 0.0125421 -0.0295571 0.0669999 -0.0124521 -0.0295942 0.0669999 3.94061e-05 -0.0320999 0.0669999 -0.0126158 -0.0299568 0.0666018 -0.0226639 -0.0227274 0.0669999 -0.0229497 -0.0230033 0.0666039 -0.0295598 -0.0125306 0.0669999 -0.0299273 -0.0126857 0.0666025 2.55555e-05 -0.0325 0.0666003 -0.0321002 -4.5679e-05 0.0669999 -0.032505 -2.5862e-05 0.0665966 0.032505 2.5862e-05 0.0665966 0.0321002 4.5679e-05 0.0669999 0.0126624 -0.0299371 0.0666 0.0299473 -0.0126376 0.0666041 0.0229587 -0.0229944 0.0583973 0.022986 -0.0229668 0.0666045 0.0299297 -0.0126798 0.0583969 0.0126327 -0.0299496 0.0583993 0.0126624 -0.0299371 0.0666 -3.23914e-06 -0.0324998 0.0583994 2.55555e-05 -0.0325 0.0666003 -0.0126368 -0.0299477 0.058395 -0.0126158 -0.0299568 0.0666018 -0.0229603 -0.0229926 0.058395 -0.0229497 -0.0230033 0.0666039 -0.029931 -0.0126759 0.0583936 -0.0299273 -0.0126857 0.0666025 -0.029559 0.0125293 0.058 -0.0299294 0.0126804 0.0583963 -0.0321021 2.413e-05 0.0580028 0.0227028 0.0226859 0.0579991 0.0295781 0.0124837 0.0580002 0.0229603 0.0229926 0.058395 0.029931 0.0126759 0.0583936 0.0126368 0.0299477 0.058395 -0.0124614 0.0295889 0.0579989 3.23821e-06 0.0324998 0.0583994 -0.0126322 0.0299498 0.058398 -0.0226685 0.0227207 0.0579988 -0.0229583 0.0229947 0.0583957 -0.03251 1.494e-06 0.0584065 0.03251 -1.494e-06 0.0584065 0.0321021 -2.413e-05 0.0580028 0.0125065 0.0295687 0.058 2.47005e-05 0.0321 0.058 -0.0227238 0.0226675 0.0669999 -0.0295853 0.0124705 0.0669998 -0.022986 0.0229668 0.0666045 -0.0299473 0.0126376 0.0666041 -0.0125422 0.0295571 0.0669999 -3.94182e-05 0.0320999 0.0669999 -2.55564e-05 0.0325 0.0666003 0.0124509 0.0295953 0.0669999 0.012616 0.0299567 0.0666007 0.0226634 0.0227301 0.0669999 0.0229499 0.0230031 0.0666023 0.029559 0.012535 0.0669999 0.0299273 0.0126855 0.0666016 -0.0126624 0.0299371 0.0666 -0.0227028 -0.0226859 0.0579991 -0.0295781 -0.0124837 0.0580002 -0.0229603 -0.0229926 0.058395 -0.029931 -0.0126759 0.0583936 -0.0126368 -0.0299477 0.058395 0.0295595 -0.0125295 0.0579994 0.0226691 -0.0227211 0.0579978 0.0299297 -0.0126798 0.0583969 0.0124614 -0.0295892 0.0579987 -3.23914e-06 -0.0324998 0.0583994 0.0126327 -0.0299496 0.0583993 0.0229587 -0.0229944 0.0583973 -0.0125065 -0.0295687 0.058 -2.46894e-05 -0.0321 0.058 0.0411162 -2.0521e-05 0.0462289 0.040263 -0.00609834 0.0488048 0.0378236 -0.0125203 0.0324944 0.0356535 -0.0177682 0.0411792 0.0357968 -0.0174694 0.0514392 0.0382441 -0.0123381 0.0399606 0.0383473 -0.0121684 0.0502236 0.0398055 -0.00614049 0.05152 0.0399439 -0.00627521 0.0359358 0.025005 0.0455 2.51532e-05 0.0250051 0.0245 2.51532e-05 0.0230172 0.0455 0.00976992 -0.025005 0.0455 -2.51532e-05 -0.0230366 0.0455 0.00971997 -0.0250051 0.0245 -2.51532e-05 -0.017683 0.0455 0.01767 -0.0230366 0.0245 0.00971997 -0.00974421 0.0455 0.0230299 -0.017683 0.0245 0.01767 -2.49995e-05 0.0455 0.025 -2.49995e-05 0.0245 0.025 -0.00974421 0.0245 0.0230299 0.0096981 0.0455 0.02305 0.0096981 0.0245 0.02305 0.0176477 0.0455 0.0177 0.0176477 0.0245 0.0177 0.0230172 0.0245 0.00976992 0.0230366 0.0455 -0.00971997 0.0176831 0.0455 -0.01767 0.0176831 0.0245 -0.01767 0.0230366 0.0245 -0.00971997 0.0097442 0.0455 -0.02303 2.49995e-05 0.0455 -0.0250001 2.49995e-05 0.0245 -0.0250001 0.0097442 0.0245 -0.02303 -0.00969815 0.0455 -0.0230501 -0.0176477 0.0455 -0.0177 -0.00969815 0.0245 -0.0230501 -0.0230172 0.0455 -0.00977004 -0.0230172 0.0245 -0.00977004 -0.0176477 0.0245 -0.0177 -0.0241768 0.0102027 0.0674 -0.0185579 0.0185403 0.0674 -0.0241728 0.0102049 0.0724998 -0.0262313 -2.5773e-05 0.0724998 -0.0102257 0.0241671 0.0674 -0.0185535 0.0185409 0.0724998 -2.49995e-05 0.0262375 0.0674 -0.0102218 0.0241659 0.0724912 0.0101796 0.0241865 0.0674 0.0101738 0.0241857 0.0724987 -2.5982e-05 0.0262335 0.0724974 0.0185226 0.0185756 0.0674 0.0185169 0.0185772 0.0724993 0.0241574 0.0102487 0.0674 0.0241527 0.0102522 0.0724995 0.0262313 2.5773e-05 0.0724998 0.0262425 2.5119e-05 0.0674 -0.0262425 -2.5119e-05 0.0674 -0.0102218 0.0241659 0.0724912 -2.5982e-05 0.0262335 0.0724974 -0.0185535 0.0185409 0.0724998 -0.0241728 0.0102049 0.0724998 0.0241728 -0.0102049 0.0724998 -0.0262313 -2.5773e-05 0.0724998 0.0262313 2.5773e-05 0.0724998 0.0185535 -0.0185409 0.0724998 -0.0241527 -0.0102522 0.0724995 -0.0185169 -0.0185772 0.0724993 -0.0101738 -0.0241857 0.0724987 2.5983e-05 -0.0262335 0.0724974 0.0102217 -0.0241659 0.0724912 0.0241527 0.0102522 0.0724995 0.0185169 0.0185772 0.0724993 0.0101738 0.0241857 0.0724987 -0.0241574 -0.0102487 0.0674 -0.0185226 -0.0185756 0.0674 -0.0101796 -0.0241865 0.0674 0.0102257 -0.0241671 0.0674 2.49995e-05 -0.0262375 0.0674 0.0185579 -0.0185403 0.0674 0.0241768 -0.0102027 0.0674 0.0241728 -0.0102049 0.0724998 0.0185535 -0.0185409 0.0724998 0.0102217 -0.0241659 0.0724912 -0.0101738 -0.0241857 0.0724987 2.5983e-05 -0.0262335 0.0724974 -0.0185169 -0.0185772 0.0724993 -0.0241527 -0.0102522 0.0724995</float_array>
                    <technique_common>
                        <accessor count="608" source="#shape0-lib-positions-array" stride="3">
                            <param name="X" type="float"/>
                            <param name="Y" type="float"/>
                            <param name="Z" type="float"/>
                        </accessor>
                    </technique_common>
                </source>
                <vertices id="shape0-lib-vertices">
                    <input semantic="POSITION" source="#shape0-lib-positions"/>
                </vertices>
                <triangles count="834">
                    <input offset="0" semantic="VERTEX" source="#shape0-lib-vertices"/>
                    <p>0 2 1 3 5 4 4 6 3 4 5 7 5 8 7 8 9 7 9 10 7 10 11 7 12 7 11 3 6 2 6 13 2 13 14 2 14 15 2 15 1 2 16 18 17 19 21 20 22 17 18 23 22 24 25 26 23 26 20 21 27 18 16 22 18 27 24 22 27 28 24 27 23 24 28 25 23 28 29 25 28 26 25 29 20 26 29 19 20 29 30 32 31 33 30 34 31 34 30 33 34 35 35 37 36 37 35 34 38 40 39 41 36 37 42 38 43 36 41 40 39 40 41 44 42 45 39 43 38 45 47 46 43 45 42 48 50 49 44 45 46 50 46 47 48 49 51 47 49 50 52 51 49 51 52 53 53 55 54 55 53 52 56 58 57 59 54 55 57 61 60 54 59 58 57 58 59 60 62 57 63 60 61 62 56 57 64 65 63 61 64 63 65 31 32 32 63 65 44 46 66 67 66 46 46 50 67 68 67 50 50 48 68 69 68 48 70 69 51 48 51 69 51 53 70 71 70 53 53 72 71 72 53 54 72 73 71 71 74 70 74 71 73 70 75 69 75 70 74 76 77 68 68 69 76 76 69 75 68 77 67 67 78 66 78 67 77 79 80 66 79 66 78 80 42 66 44 66 42 58 81 54 73 72 81 54 81 72 82 84 83 85 83 84 86 88 87 89 87 88 90 91 82 92 94 93 95 96 82 82 83 90 91 97 82 97 98 82 98 99 82 93 94 99 82 99 95 95 99 94 100 90 87 101 102 87 83 87 90 87 89 101 102 100 87 89 103 101 103 104 101 104 105 101 105 106 101 106 107 101 107 108 101 108 109 101 110 111 109 101 109 111 109 108 112 113 112 108 108 114 113 114 108 107 107 106 114 115 114 106 106 105 115 116 115 105 105 104 116 117 116 104 104 103 117 118 117 103 119 110 112 112 110 109 89 120 103 103 120 118 80 122 121 123 125 124 126 128 127 129 127 128 125 123 126 128 126 123 128 130 129 131 129 130 123 132 128 130 128 132 130 133 131 134 131 133 132 135 130 133 130 135 133 136 134 137 134 136 135 138 133 136 133 138 136 139 137 122 137 139 138 140 136 139 136 140 80 79 122 124 141 123 142 124 125 123 141 132 132 143 135 143 132 141 140 138 144 138 135 145 145 135 143 144 119 140 145 144 138 119 121 140 139 140 121 139 121 122 137 122 78 134 137 77 79 78 122 131 134 76 78 77 137 129 131 75 77 76 134 127 129 74 76 75 131 73 146 127 75 74 129 146 73 147 126 127 148 74 73 127 149 127 146 125 126 150 149 148 127 150 151 125 148 150 126 142 125 152 152 154 153 153 142 152 151 152 125 153 154 155 81 147 73 156 158 157 159 157 158 160 157 159 161 162 155 162 161 99 99 161 163 164 16 63 165 164 63 166 168 167 155 154 161 161 167 168 167 161 154 168 163 161 169 171 170 172 174 173 172 173 175 173 174 176 177 176 178 178 176 174 179 181 180 182 175 173 183 185 184 180 181 186 181 175 186 187 186 182 182 186 175 184 189 188 179 180 185 180 184 185 183 184 188 190 171 191 188 190 183 192 170 171 183 190 191 169 191 171 193 195 194 196 193 194 193 197 195 198 196 199 200 198 199 201 150 202 203 150 201 204 203 205 206 204 205 203 151 150 204 151 203 151 204 152 148 202 150 152 204 206 207 157 208 156 157 207 209 211 210 212 209 210 212 210 213 214 212 213 214 213 215 216 214 215 216 215 217 218 216 217 219 220 166 221 219 166 166 220 168 222 168 220 208 157 160 147 81 223 224 147 223 224 223 225 226 224 225 227 228 226 146 147 228 146 228 227 208 160 229 230 208 229 230 229 231 232 230 231 232 231 233 234 232 233 234 233 235 236 234 235 208 230 237 236 238 234 234 239 232 239 234 238 240 237 230 240 232 239 207 208 237 232 240 230 241 236 235 146 227 242 149 146 242 149 242 202 148 149 202 238 241 243 236 241 238 244 246 245 247 244 245 247 245 248 249 247 248 249 248 250 251 249 250 251 250 252 253 251 252 254 243 255 241 255 243 256 258 257 259 257 258 16 17 60 16 60 63 260 262 261 261 262 263 264 260 261 264 261 265 266 262 267 262 266 263 265 268 264 269 268 265 168 270 163 222 270 168 206 271 152 272 154 271 166 272 271 154 152 271 166 271 206 93 99 270 99 163 270 162 99 98 155 162 98 273 275 274 274 275 276 277 273 274 277 274 278 279 275 280 275 279 276 281 282 277 278 281 277 283 285 284 286 283 284 286 284 287 288 286 287 288 287 289 290 288 289 290 289 291 292 290 291 293 295 294 296 293 294 293 297 295 298 300 299 301 302 299 301 299 300 302 304 303 303 299 302 304 305 303 306 308 307 309 303 305 310 306 307 311 309 312 308 309 307 305 307 309 308 312 309 313 300 298 314 315 27 27 16 314 165 315 314 16 164 314 165 314 164 316 19 317 19 29 317 315 317 28 28 27 315 29 28 317 85 87 83 86 85 318 84 318 85 86 87 85 21 19 319 320 21 319 320 319 321 322 320 321 88 86 323 318 323 86 88 323 324 325 88 324 325 324 322 321 325 322 319 316 326 19 316 319 321 326 327 319 326 321 325 328 88 327 328 321 120 328 327 120 88 328 325 321 328 120 89 88 316 317 329 119 112 330 331 333 332 334 332 333 330 335 331 333 331 335 333 336 334 337 334 336 335 338 333 336 333 338 336 339 337 340 337 339 338 341 336 339 336 341 339 342 340 343 340 342 341 344 339 342 339 344 342 345 343 346 343 345 344 347 342 345 342 347 345 329 346 348 346 329 347 349 345 329 345 349 315 165 348 330 112 335 335 113 338 113 335 112 338 114 341 114 338 113 341 115 344 115 341 114 344 116 347 116 344 115 349 347 118 117 347 116 118 120 349 117 118 347 120 327 349 327 326 349 316 329 326 349 326 329 348 329 317 165 350 348 348 350 346 346 351 343 351 346 350 343 352 340 352 343 351 340 353 337 353 340 352 337 354 334 354 337 353 332 334 355 356 334 354 355 80 332 356 355 334 331 332 121 119 330 121 80 121 332 331 121 330 315 348 317 142 153 91 97 91 153 91 90 142 124 142 90 90 141 124 141 90 100 100 102 141 143 141 102 102 101 143 145 143 101 101 111 145 144 145 111 155 98 153 97 153 98 110 119 111 111 119 144 32 30 357 358 357 30 30 33 358 359 358 33 33 35 359 360 359 35 35 36 360 361 360 36 36 40 361 362 361 40 40 38 362 363 362 38 362 363 356 361 362 354 355 356 363 354 353 361 356 354 362 361 353 360 358 359 351 359 360 352 352 360 353 357 358 350 352 351 359 350 165 357 351 350 358 165 63 357 32 357 63 42 80 38 355 363 80 38 80 363 159 158 364 365 159 364 365 364 246 244 365 246 366 56 62 62 367 366 368 366 367 369 368 367 225 368 369 366 368 81 368 223 81 225 223 368 366 81 56 81 58 56 369 370 225 226 225 370 370 227 226 227 371 242 372 374 373 375 377 376 371 376 377 373 378 375 377 375 378 378 379 377 378 373 374 379 378 380 374 380 378 380 202 379 202 242 379 377 379 242 377 242 371 370 207 376 376 371 370 370 371 227 375 376 237 375 237 373 207 237 376 372 373 240 240 373 237 160 159 381 381 382 229 231 382 233 160 381 229 231 229 382 383 233 382 235 383 384 233 383 235 365 381 159 381 244 247 365 244 381 382 247 249 381 247 382 383 249 251 382 249 383 384 251 253 383 251 384 255 235 384 241 235 255 385 387 386 387 385 388 389 390 386 389 386 387 254 255 384 252 254 384 252 384 253 391 393 392 394 396 395 396 392 393 397 394 398 393 395 396 399 397 400 395 398 394 401 399 402 398 400 397 403 401 404 400 402 399 405 403 406 402 404 401 407 405 408 404 406 403 406 408 405 409 411 410 410 413 412 414 412 413 415 412 416 415 416 417 414 416 412 417 419 418 419 417 416 418 421 420 421 418 419 420 423 422 423 420 421 422 425 424 425 422 423 424 427 426 427 424 425 426 429 428 429 426 427 430 428 429 431 428 432 431 432 433 430 432 428 433 435 434 435 433 432 434 437 436 437 434 435 436 439 438 439 436 437 438 440 409 440 438 439 413 410 411 411 409 440 441 443 442 444 442 443 443 441 445 446 448 447 449 450 446 448 446 450 451 452 449 450 449 452 447 453 445 453 447 448 454 455 451 451 455 452 456 457 444 442 444 457 445 453 458 458 443 445 392 459 391 460 462 461 462 391 459 463 460 464 459 461 462 465 463 466 461 464 460 467 465 468 464 466 463 469 467 470 466 468 465 471 469 472 468 470 467 472 407 471 470 472 469 408 471 407 473 475 474 476 478 477 479 477 478 478 476 480 481 483 482 484 485 481 483 481 485 485 484 474 475 486 474 487 488 479 477 479 488 480 476 489 482 480 490 482 490 481 489 490 480 474 484 473 491 493 492 494 492 493 493 491 495 496 497 495 498 499 496 497 496 499 500 501 498 499 498 501 502 503 500 501 500 503 457 456 502 503 502 456 455 454 494 492 494 454 495 497 504 504 493 495 505 507 506 508 506 507 507 505 509 510 512 511 513 515 514 511 516 513 515 513 516 516 511 512 488 487 510 510 487 512 486 475 508 506 508 475 509 505 517 514 509 518 514 518 513 517 518 509 519 372 520 521 205 203 522 524 523 525 523 524 205 521 522 524 522 521 526 525 520 524 520 525 520 524 527 521 527 524 527 521 201 525 526 239 203 201 521 202 380 201 527 201 380 525 239 523 240 239 526 238 219 523 238 523 239 522 206 205 219 206 522 522 523 219 520 527 374 380 374 527 526 520 372 240 526 372 528 530 529 531 533 532 532 535 534 535 532 533 534 537 536 537 534 535 538 536 539 540 536 537 541 538 542 540 539 536 543 541 544 539 542 538 543 544 530 542 544 541 545 529 530 545 530 544 528 529 546 547 546 548 549 546 529 547 548 550 549 548 546 551 550 552 553 550 548 551 552 554 553 552 550 554 556 555 556 554 552 557 555 558 559 555 556 558 533 557 559 558 555 531 557 533 560 562 561 562 560 563 561 565 564 565 561 562 564 567 566 567 564 565 568 566 569 570 566 567 571 568 572 570 569 566 573 571 574 569 572 568 574 575 573 572 574 571 576 573 575 577 563 560 578 580 579 581 583 582 582 584 581 582 583 585 583 586 585 586 587 585 587 588 585 588 589 585 590 585 589 581 584 580 584 591 580 591 592 580 592 593 580 593 579 580 413 576 414 573 411 571 411 573 413 571 440 568 440 571 411 564 566 437 439 568 440 561 564 435 568 439 566 437 566 439 561 435 560 437 435 564 560 432 577 432 560 435 430 577 432 576 413 573 429 577 430 594 427 595 427 594 429 595 425 596 425 595 427 597 598 421 423 596 425 599 597 419 596 423 598 421 598 423 599 419 600 421 419 597 600 416 576 416 600 419 414 576 416 577 429 594 577 594 563 576 575 600 600 601 599 601 600 575 599 602 597 602 599 601 597 603 598 603 597 602 596 598 604 605 598 603 595 596 606 605 604 598 594 595 607 604 606 596 607 563 594 606 607 595</p>
                </triangles>
            </mesh>
        </geometry>
    </library_geometries>
    <library_visual_scenes>
        <visual_scene id="VisualSceneNode" name="VisualScene">
            <node id="node" name="node">
                <instance_geometry url="#shape0-lib"/>
            </node>
        </visual_scene>
    </library_visual_scenes>
    <scene>
        <instance_visual_scene url="#VisualSceneNode"/>
    </scene>
</COLLADA>
