<?xml version="1.0" encoding="UTF-8"?>
<COLLADA xmlns="http://www.collada.org/2005/11/COLLADASchema" version="1.4.1">
    <asset>
        <contributor>
            <author>VCGLab</author>
            <authoring_tool>VCGLib | MeshLab</authoring_tool>
        </contributor>
        <created>火 7月 1 01:26:51 2025 GMT</created>
        <modified>火 7月 1 01:26:51 2025 GMT</modified>
        <up_axis>Y_UP</up_axis>
    </asset>
    <library_geometries>
        <geometry id="shape0-lib" name="shape0">
            <mesh>
                <source id="shape0-lib-positions" name="position">
                    <float_array id="shape0-lib-positions-array" count="2781">-0.157381 0.0654376 0.179137 -0.154012 0.0655161 0.184614 -0.157777 0.0165232 0.184982 -0.157381 -0.0654376 0.179137 -0.157175 -0.0319422 0.18453 -0.154012 -0.0655161 0.184614 -0.153697 0.0311803 0.186895 -0.15421 0 0.187445 -0.153697 -0.0311803 0.186895 -0.159444 0.0169756 0.181252 -0.158988 -0.0327299 0.180745 -0.0961904 -0.067042 0.194716 -0.0986977 -0.0494142 0.195575 -0.0878802 -0.0688056 0.195054 -0.118609 -0.036716 0.192935 -0.107974 -0.0200816 0.195627 -0.140116 -0.0367147 0.189681 -0.118773 2.5e-08 0.193611 -0.14044 4.2e-08 0.190412 -0.118609 0.0367161 0.192935 -0.140116 0.0367148 0.189681 -0.107978 0.020059 0.195627 -0.109826 -1.5893e-05 0.195631 -0.102552 0.0392969 0.195566 -0.0964071 0.067037 0.194718 -0.0937234 0.0572264 0.195371 -0.130432 0.0661445 0.190829 -0.0878802 0.0688056 0.195054 -0.0816701 0.0733764 0.194965 -0.130851 -0.0661307 0.190773 -0.08167 -0.0733764 0.194965 -0.157381 -0.0654376 0.179137 -0.154012 -0.0655161 0.184614 -0.155 -0.0655 0.179133 -0.0988785 -0.0669696 0.0040487 -0.155141 -0.0654958 0.00400432 -0.0988785 -0.0669696 0.015 -0.0961904 -0.067042 0.194716 -0.0796736 -0.0674725 0.015 -0.0791413 -0.0674865 0.0264928 -0.130851 -0.0661307 0.190773 -0.0745477 0.0735438 0.111588 -0.0816701 0.0733764 0.194965 -0.0777832 0.0707938 0.110163 -0.0664157 0.0725299 0.029 -0.0791413 0.0674865 0.0264924 -0.0884125 0.0676325 0.143515 -0.0964071 0.067037 0.194718 -0.0878802 0.0688056 0.195054 -0.0820837 0.068908 0.116693 -0.0727829 0.0688084 0.0283058 -0.157381 0.0654376 0.179137 -0.155191 0.0654913 0.178654 -0.154012 0.0655161 0.184614 -0.0988785 0.0669696 0.0040487 -0.0988785 0.0669696 0.015 -0.130432 0.0661445 0.190829 -0.0747499 0.0680756 0.0150022 -0.155165 0.0654754 0.00400231 -0.0744136 -0.0737091 0.111973 -0.0664157 -0.0725299 0.029 -0.0778392 -0.0707518 0.10983 -0.08167 -0.0733764 0.194965 -0.0847731 -0.0681005 0.124075 -0.0724591 -0.0688434 0.0282609 -0.0878802 -0.0688056 0.195054 -0.1645 -0.051222 0.0132033 -0.161508 -0.0466599 0.0123436 -0.1645 -0.026499 0.0137124 -0.1615 -0.024501 0.0137124 -0.161503 -0.0512708 0.106094 -0.1645 -0.0514 0.0304654 -0.1645 -0.0514 0.0885346 -0.1645 -0.0504422 0.106262 -0.2005 -0.0514 0.0304654 -0.2005 -0.0514 0.0885346 -0.161508 -0.0516116 0.0146543 -0.1645 -0.0431773 0.0197574 -0.1645 -0.0389346 0.018 -0.2005 -0.0389346 0.018 -0.2005 -0.0431773 0.0197574 -0.2005 -0.0496426 0.0262227 -0.1645 -0.0496426 0.0262227 -0.1645 -0.0389346 0.018 -0.1645 -0.026499 0.0137124 -0.1645 -0.016579 0.018 -0.1645 -0.000610728 0.0127315 -0.1645 -0.0431773 0.0197574 -0.1645 -0.051222 0.0132033 -0.1645 -0.0496426 0.0262227 -0.1645 -0.0514 0.0304654 -0.1645 -0.0010104 0.0252353 -0.1645 -0.010079 0.0197417 -0.1645 0.0004 0.0292558 -0.2005 -0.0431773 0.0992426 -0.1645 -0.0431773 0.0992426 -0.2005 -0.0496426 0.0927773 -0.1645 -0.0496426 0.0927773 -0.2005 -0.016579 0.018 -0.1645 -0.016579 0.018 -0.1645 -0.010079 0.0197417 -0.2005 -0.010079 0.0197417 -0.1645 -0.0010104 0.0252353 -0.2005 -0.000904289 0.0252089 -0.2005 -0.0389346 0.101 -0.1645 -0.0389346 0.101 -0.2005 -0.016579 0.101 -0.1645 -0.016579 0.101 -0.1645 0.0004 0.0897442 -0.1645 -0.000610573 0.106269 -0.1645 -0.000826759 0.0936289 -0.1645 -0.0504422 0.106262 -0.1645 -0.0389346 0.101 -0.1645 -0.0255 0.105317 -0.1645 -0.010079 0.0992583 -0.1645 -0.0431773 0.0992426 -0.1645 -0.016579 0.101 -0.1645 -0.0496426 0.0927773 -0.1645 -0.0514 0.0885346 -0.1645 -0.0255 0.105317 -0.1615 -0.0255 0.105247 -0.2005 -0.010079 0.0992583 -0.2005 -0.00110822 0.0939293 -0.1645 -0.010079 0.0992583 -0.1645 -0.000826759 0.0936289 -0.2005 0.0004 0.0897442 -0.1645 0.0004 0.0897442 -0.1645 -0.000610573 0.106269 -0.1607 -0.00187667 0.106742 -0.1645 -0.000610728 0.0127315 -0.160698 -0.00446843 0.0120253 -0.161506 0.000588484 0.017112 -0.1615 0.0004 0.102 -0.1645 0.0004 0.0292558 -0.2005 0.0004 0.0292558 -0.16071 0.00122502 0.0146386 -0.2005 -0.010079 0.0992583 -0.2005 -0.0431773 0.0197574 -0.2005 -0.016579 0.018 -0.2005 -0.0496426 0.0262227 -0.2005 -0.000904289 0.0252089 -0.2005 0.0004 0.0292558 -0.2005 -0.010079 0.0197417 -0.2005 -0.0514 0.0304654 -0.2005 -0.016579 0.101 -0.2005 -0.0514 0.0885346 -0.2005 -0.0496426 0.0927773 -0.2005 -0.0431773 0.0992426 -0.2005 -0.0389346 0.101 -0.2005 -0.00110822 0.0939293 -0.2005 0.0004 0.0897442 -0.2005 -0.0389346 0.018 -0.161506 0.000588484 0.017112 -0.16071 0.00122502 0.0146386 -0.160715 0.00144253 0.101997 -0.160212 0.0549421 0.00379229 -0.160714 -0.000249352 0.00294335 -0.157999 0.0545431 0.00374525 -0.157998 -0.0651889 0.00431971 -0.155141 -0.0654958 0.00400432 -0.158 -0.0545431 0.00374525 -0.160212 -0.0549421 0.00379229 -0.157996 0.0652227 0.00435474 -0.155165 0.0654754 0.00400231 -0.1603 -0.0497825 0.107163 -0.1615 -0.0524131 0.102 -0.161503 -0.0512708 0.106094 -0.160257 -0.0524457 0.102 -0.160002 -0.0653952 0.16531 -0.160002 -0.0653952 0.11869 -0.160204 -0.0556863 0.169508 -0.160212 -0.0549421 0.00379229 -0.160714 -0.000249352 0.00294335 -0.16019 -0.055968 0.0128137 -0.160212 -0.0549421 0.178527 -0.160715 0 0.180025 -0.160206 -0.055527 0.114352 -0.160002 -0.0653952 0.0166905 -0.160002 -0.0653952 0.103309 -0.160189 -0.0562796 0.107101 -0.160212 0.0549421 0.178527 -0.160204 0.0556859 0.169508 -0.160212 0.0549421 0.00379229 -0.160206 0.055527 0.0876483 -0.160204 0.0557064 0.0125069 -0.160002 0.0653952 0.0833095 -0.160002 0.0653952 0.0166905 -0.160002 0.0653952 0.16531 -0.160002 0.0653952 0.0986905 -0.160189 0.0562799 0.0948996 -0.160647 -0.0195369 0.10634 -0.160548 -0.0316606 0.106538 -0.160189 0.0562799 0.0948996 -0.157997 0.05554 0.0944835 -0.160002 0.0653952 0.0986905 -0.158 0.0654476 0.0986538 -0.160206 0.055527 0.0876483 -0.160002 0.0653952 0.0833095 -0.158 0.056678 0.0867781 -0.158 0.0654476 0.0833462 -0.160204 0.0557064 0.0125069 -0.158 0.0568255 0.0132955 -0.160002 0.0653952 0.0166905 -0.158 0.0654476 0.0166538 -0.158 0.0654476 0.0166538 -0.158 0.0568255 0.0132955 -0.157996 0.0652227 0.00435474 -0.157999 0.0545431 0.00374525 -0.158 0.055 0.178581 -0.158 0.0654476 0.165346 -0.158001 0.0654292 0.177654 -0.157999 0.0555624 0.169449 -0.160204 0.0556859 0.169508 -0.157999 0.0555624 0.169449 -0.160212 0.0549421 0.178527 -0.158 0.055 0.178581 -0.160002 -0.0653952 0.11869 -0.160002 -0.0653952 0.16531 -0.158 -0.0654476 0.118654 -0.156 -0.0655 0.176126 -0.155549 -0.0654395 0.00594602 -0.157997 -0.0654305 0.177646 -0.158 -0.0654476 0.0166538 -0.158 -0.0654476 0.165346 -0.158 -0.0654476 0.103346 -0.160002 -0.0653952 0.103309 -0.160002 -0.0653952 0.0166905 -0.160002 0.0653952 0.16531 -0.158 0.0654476 0.165346 -0.160204 -0.0556863 0.169508 -0.160212 -0.0549421 0.178527 -0.157999 -0.0555624 0.169449 -0.158 -0.055 0.178581 -0.155191 0.0654913 0.178654 -0.155251 0.000193981 0.180206 -0.158 0.055 0.178581 -0.160212 0.0549421 0.178527 -0.15552 -0.0650855 0.177888 -0.158 -0.055 0.178581 -0.160715 0 0.180025 -0.160212 -0.0549421 0.178527 -0.158001 0.0654292 0.177654 -0.15552 -0.0650855 0.177888 -0.156 -0.0655 0.176126 -0.157997 -0.0654305 0.177646 -0.157999 -0.0555624 0.169449 -0.158 -0.055 0.178581 -0.158 -0.0654476 0.165346 -0.157996 -0.0555402 0.107517 -0.160206 -0.055527 0.114352 -0.158 -0.0566781 0.115222 -0.160189 -0.0562796 0.107101 -0.158 -0.0654476 0.0166538 -0.16019 -0.055968 0.0128137 -0.160002 -0.0653952 0.0166905 -0.158 0.0654476 0.165346 -0.160002 0.0653952 0.16531 -0.158 0.0654476 0.0986538 -0.155165 0.0654754 0.00400231 -0.158 0.0654476 0.0166538 -0.155191 0.0654913 0.178654 -0.158 0.0654476 0.0833462 -0.160002 0.0653952 0.0833095 -0.160002 0.0653952 0.0166905 -0.160002 0.0653952 0.0986905 -0.157999 0.0545431 0.00374525 -0.160212 0.0549421 0.00379229 -0.158 0.0654476 0.0833462 -0.157997 0.05554 0.0944835 -0.158 0.056678 0.0867781 -0.158 0.0654476 0.0986538 -0.158 -0.0654476 0.165346 -0.160002 -0.0653952 0.16531 -0.158 -0.0654476 0.118654 -0.160002 -0.0653952 0.11869 -0.158 -0.0654476 0.118654 -0.157996 -0.0555402 0.107517 -0.158 -0.0566781 0.115222 -0.158 -0.0654476 0.103346 -0.158 -0.0654476 0.103346 -0.160002 -0.0653952 0.103309 -0.158 -0.0545431 0.00374525 -0.160212 -0.0549421 0.00379229 -0.157998 -0.0651889 0.00431971 -0.158 -0.0545431 0.00374525 -0.158 -0.0654476 0.0166538 -0.16019 -0.055968 0.0128137 -0.159444 0.0169756 0.181252 -0.155 0.0327595 0.180744 -0.155191 0.0654913 0.178654 -0.157381 0.0654376 0.179137 -0.155014 -0.0178357 0.181235 -0.158988 -0.0327299 0.180745 -0.157381 -0.0654376 0.179137 -0.155 -0.0655 0.179133 -0.160717 0.0112567 0.0980773 -0.160697 0.0104659 0.0965 -0.161508 0.0109652 0.0599391 -0.160637 0.0118403 0.0582002 -0.16151 0.0489833 0.0600205 -0.160339 0.0475 0.0594565 -0.160306 0.0495564 0.0603292 -0.161513 0.0490814 0.0979684 -0.160339 0.0475 0.0985435 -0.160307 0.0495672 0.0976641 -0.162001 -0.00484207 0.168412 -0.162004 -0.0186285 0.151123 -0.161995 -0.00362436 0.154768 -0.161999 -0.0235741 0.16297 -0.161999 -0.0168478 0.171308 -0.160634 -0.0236823 0.158036 -0.160648 -0.0200054 0.153132 -0.162004 -0.0186285 0.151123 -0.161999 -0.0235741 0.16297 -0.160671 -0.0162582 0.150978 -0.16075 -0.0118655 0.150264 -0.160726 -0.00258635 0.156817 -0.161995 -0.00362436 0.154768 -0.160739 -0.00597316 0.168372 -0.162001 -0.00484207 0.168412 -0.160699 -0.00974431 0.171022 -0.160701 -0.0146353 0.171262 -0.161999 -0.0168478 0.171308 -0.16063 -0.0222084 0.166953 -0.155 0.0327595 0.180744 -0.155014 -0.0178357 0.181235 -0.155251 0.000193981 0.180206 -0.155191 0.0654913 0.178654 -0.155 -0.0655 0.179133 -0.15552 -0.0650855 0.177888 -0.155141 -0.0654958 0.00400432 -0.155549 -0.0654395 0.00594602 -0.161511 0.0526424 0.0523881 -0.160277 0.05125 0.0530451 -0.16151 0.011313 0.0524564 -0.16064 0.0120402 0.0542734 -0.160242 0.0533062 0.0521659 -0.160243 0.0533154 0.01134 -0.161513 0.0527805 0.0111262 -0.160277 0.05125 0.0104549 -0.160642 0.0119975 0.00926724 -0.161506 0.0114027 0.0110387 -0.160647 -0.0195369 0.10634 -0.161503 -0.0512708 0.106094 -0.1615 -0.0255 0.105247 -0.1615 -0.0524131 0.102 -0.161508 -0.0516116 0.0146543 -0.160647 -0.0195462 0.0126609 -0.1615 -0.024501 0.0137124 -0.161508 -0.0466599 0.0123436 -0.160698 -0.00446843 0.0120253 -0.160715 0.00144253 0.101997 -0.1615 0.0004 0.102 -0.161506 0.000588484 0.017112 -0.1607 -0.00187667 0.106742 -0.161508 -0.0516116 0.0146543 -0.160257 -0.0524457 0.017 -0.161508 -0.0466599 0.0123436 -0.1603 -0.0497931 0.0118224 -0.160548 -0.0316606 0.012462 -0.160647 -0.0195462 0.0126609 -0.1836 0.0490017 0.0245773 -0.1836 0.0450524 0.0187153 -0.1643 0.0490017 0.0245773 -0.1643 0.050455 0.031775 -0.1836 0.050455 0.0317749 -0.1836 0.0391957 0.014758 -0.1643 0.0391957 0.014758 -0.1643 0.0450524 0.0187153 -0.1836 0.032025 0.0133 -0.1836 0.0248504 0.0147386 -0.1643 0.0248504 0.0147386 -0.1643 0.032025 0.0133 -0.1836 0.018983 0.0186799 -0.1836 0.0150178 0.0245313 -0.1643 0.018983 0.0186799 -0.1643 0.0150178 0.0245313 -0.1643 0.013545 0.0317251 -0.1836 0.013545 0.0317251 -0.1836 0.018983 0.0186799 -0.1836 0.0248504 0.0147386 -0.1836 0.0150178 0.0245313 -0.1836 0.0489822 0.0389687 -0.1836 0.013545 0.0317251 -0.1836 0.050455 0.0317749 -0.1836 0.0149983 0.0389227 -0.1836 0.0189476 0.0447847 -0.1836 0.0248043 0.048742 -0.1836 0.031975 0.0502 -0.1836 0.0391496 0.0487614 -0.1836 0.045017 0.0448201 -0.1836 0.0490017 0.0245773 -0.1836 0.0450524 0.0187153 -0.1836 0.0391957 0.014758 -0.1836 0.032025 0.0133 -0.1836 0.0181141 0.0670611 -0.1836 0.0234729 0.0634628 -0.1836 0.014492 0.0724038 -0.1836 0.045508 0.0855962 -0.1836 0.013145 0.0789751 -0.1836 0.046855 0.0790249 -0.1836 0.0144725 0.0855501 -0.1836 0.0180787 0.0909036 -0.1836 0.0234269 0.0945178 -0.1836 0.029975 0.09585 -0.1836 0.0393929 0.0931974 -0.1836 0.0455275 0.0724499 -0.1836 0.0419213 0.0670964 -0.1836 0.0365731 0.0634822 -0.1836 0.030025 0.06215 -0.1836 0.046855 0.0790249 -0.1836 0.0455275 0.0724499 -0.1643 0.046855 0.0790249 -0.1836 0.0419213 0.0670964 -0.1643 0.0419213 0.0670964 -0.1643 0.0455275 0.0724499 -0.1836 0.0365731 0.0634822 -0.1643 0.0365731 0.0634822 -0.1836 0.030025 0.06215 -0.1643 0.030025 0.06215 -0.1836 0.0234729 0.0634628 -0.1836 0.0181141 0.0670611 -0.1643 0.0234729 0.0634628 -0.1836 0.014492 0.0724038 -0.1643 0.0158418 0.0695469 -0.1643 0.013145 0.078975 -0.1836 0.013145 0.0789751 -0.1836 0.0393929 0.0931974 -0.1836 0.045508 0.0855962 -0.1643 0.0418859 0.0909389 -0.1643 0.0365271 0.0945372 -0.1643 0.045508 0.0855962 -0.1643 0.029975 0.09585 -0.1836 0.029975 0.09585 -0.1643 0.0234269 0.0945178 -0.1836 0.0234269 0.0945178 -0.1643 0.0180787 0.0909036 -0.1836 0.0180787 0.0909036 -0.1643 0.0144725 0.0855501 -0.1836 0.0144725 0.0855501 -0.1836 0.0489822 0.0389687 -0.1643 0.045017 0.0448201 -0.1836 0.045017 0.0448201 -0.1643 0.0489822 0.0389687 -0.1643 0.0391496 0.0487614 -0.1643 0.031975 0.0502 -0.1836 0.031975 0.0502 -0.1836 0.0391496 0.0487614 -0.1643 0.0248043 0.048742 -0.1836 0.0248043 0.048742 -0.1643 0.0189476 0.0447847 -0.1836 0.0189476 0.0447847 -0.1643 0.0149983 0.0389227 -0.1836 0.0149983 0.0389227 -0.1643 0.0115798 0.0113298 -0.1643 0.0114789 0.0521586 -0.161506 0.0114027 0.0110387 -0.16151 0.011313 0.0524564 -0.161513 0.0527805 0.0111262 -0.161511 0.0526424 0.0523881 -0.1643 0.0525144 0.0112356 -0.1643 0.0524086 0.0522711 -0.1643 0.0490017 0.0245773 -0.1643 0.0525144 0.0112356 -0.1643 0.050455 0.031775 -0.1643 0.0524086 0.0522711 -0.1643 0.0489822 0.0389687 -0.1643 0.045017 0.0448201 -0.1643 0.0114789 0.0521586 -0.1643 0.031975 0.0502 -0.1643 0.0391496 0.0487614 -0.1643 0.0248043 0.048742 -0.1643 0.0189476 0.0447847 -0.1643 0.0149983 0.0389227 -0.1643 0.013545 0.0317251 -0.1643 0.0115798 0.0113298 -0.1643 0.0150178 0.0245313 -0.1643 0.018983 0.0186799 -0.1643 0.032025 0.0133 -0.1643 0.0248504 0.0147386 -0.1643 0.0391957 0.014758 -0.1643 0.0450524 0.0187153 -0.1643 0.0455275 0.0724499 -0.1643 0.0489139 0.0600861 -0.1643 0.046855 0.0790249 -0.1643 0.0488009 0.0979217 -0.1643 0.045508 0.0855962 -0.1643 0.0418859 0.0909389 -0.1643 0.0110784 0.0978009 -0.1643 0.029975 0.09585 -0.1643 0.0365271 0.0945372 -0.1643 0.0234269 0.0945178 -0.1643 0.0180787 0.0909036 -0.1643 0.0144725 0.0855501 -0.1643 0.013145 0.078975 -0.1643 0.0111857 0.0601857 -0.1643 0.0158418 0.0695469 -0.1643 0.030025 0.06215 -0.1643 0.0234729 0.0634628 -0.1643 0.0365731 0.0634822 -0.1643 0.0419213 0.0670964 -0.161513 0.0490814 0.0979684 -0.160717 0.0112567 0.0980773 -0.1643 0.0488009 0.0979217 -0.1643 0.0110784 0.0978009 -0.16151 0.0489833 0.0600205 -0.1643 0.0489139 0.0600861 -0.161508 0.0109652 0.0599391 -0.1643 0.0111857 0.0601857 -0.0740002 -0.08005 0 -0.0740002 -0.08005 0.015 -0.0757848 -0.0842682 0 -0.0859998 -0.07995 0 -0.0842505 -0.084208 0 -0.0859998 -0.07995 0.015 -0.080025 -0.0859999 0 -0.0842505 -0.084208 0.015 -0.0757848 -0.0842682 0.015 -0.080025 -0.0859999 0.015 0.07995 -0.0859998 0 0.07995 -0.0859998 0.015 0.0757318 -0.0842152 0 0.08005 -0.0740002 0 0.075792 -0.0757494 0 0.08005 -0.0740002 0.015 0.0740001 -0.079975 0 0.075792 -0.0757494 0.015 0.0757318 -0.0842152 0.015 0.0740001 -0.079975 0.015 0.0842682 -0.0757848 0 0.084208 -0.0842505 0 0.0859999 -0.080025 0 0.084208 -0.0842505 0.015 0.0842682 -0.0757848 0.015 0.0859999 -0.080025 0.015 0.0859998 0.07995 0 0.0859998 0.07995 0.015 0.0842152 0.0757318 0 0.0740002 0.08005 0 0.0757494 0.075792 0 0.0740002 0.08005 0.015 0.079975 0.0740001 0 0.0757494 0.075792 0.015 0.0842152 0.0757318 0.015 0.079975 0.0740001 0.015 0.0757848 0.0842682 0 0.0842505 0.084208 0 0.080025 0.0859999 0 0.0842505 0.084208 0.015 0.0757848 0.0842682 0.015 0.080025 0.0859999 0.015 -0.155165 0.0654754 0.00400231 -0.1 0 0.00292715 -0.0988785 0.0669696 0.0040487 -0.160714 -0.000249352 0.00294335 -0.0988785 -0.0669696 0.0040487 -0.155141 -0.0654958 0.00400432 0.0988774 -0.0670014 0.02 0.100002 0 0 0.0988774 -0.0670014 0.015 0.0988774 0.0670014 0.0199999 0.0988774 0.0670014 0.015 0.0984297 -0.0792378 0 0.0982371 -0.0830037 0.0149981 0.0976963 0.0843091 0.015 0.0984297 0.0792378 0 0.1 0 0.02 -0.0925855 0.0925855 0.015 -0.084208 0.0842505 0.015 -0.0978201 0.0844128 0.015 -0.0843091 0.0976963 0.015 -0.0670014 0.0988774 0.015 -0.07995 0.0859998 0.015 -0.0677992 0.0764592 0.0150001 -0.0757318 0.0842152 0.015 -0.0747499 0.0680756 0.0150022 -0.075792 0.0757494 0.015 -0.0740001 0.079975 0.015 -0.08005 0.0740002 0.015 -0.0988785 0.0669696 0.015 -0.0842682 0.0757848 0.015 -0.0859999 0.080025 0.015 0.0967217 0.0865734 0 0.0925855 0.0925855 0.015 0.0925855 0.0925855 0 0.0865734 0.0967217 0.015 0.0865734 0.0967217 0 0.0792378 0.0984297 0.015 0.0792378 0.0984297 0 0.0925855 -0.0925855 0.015 0.084208 -0.0842505 0.015 0.0982371 -0.0830037 0.0149981 0.0545231 -0.0992437 0.0149996 0.0757318 -0.0842152 0.015 0.0842984 -0.0978756 0.015 0.07995 -0.0859998 0.015 0.0567992 -0.0840178 0.0149997 0.0740001 -0.079975 0.015 0.075192 -0.0679693 0.015 0.08005 -0.0740002 0.015 0.075792 -0.0757494 0.015 0.0988774 -0.0670014 0.015 0.0842682 -0.0757848 0.015 0.0859999 -0.080025 0.015 0.0988774 0.0670014 0.015 0.0988774 0.0670014 0.0199999 0.0753094 0.0678832 0.015 0.0747861 0.068379 0.0277273 0.0837225 0.0673982 0.0250436 0.055 0.0992436 0.02 0 0.100002 0 0.0545244 0.0992262 0.0149989 -0.0670014 0.0988774 0.02 -0.0670014 0.0988774 0.015 -0.00841577 0.0999597 0.0204504 -0.0843091 0.0976963 0.015 -0.0792378 0.0984297 0 0.0600422 -0.0807636 0.0278374 0.0756647 -0.0678305 0.027657 0.075192 -0.0679693 0.015 0.0567992 -0.0840178 0.0149997 0.0551707 -0.0871878 0.0264714 0.0548935 -0.0915631 0.0241419 0.0545231 -0.0992437 0.0149996 0.055 -0.0992436 0.02 -0.0984297 0.0792378 0 -0.0978201 0.0844128 0.015 -0.0988785 0.0669696 0.0040487 -0.0976973 -0.0843068 0.015 -0.0984297 -0.0792378 0 -0.0988785 -0.0669696 0.015 -0.0988785 -0.0669696 0.0040487 -0.100002 0 0 -0.1 0 0.00292715 -0.0988785 0.0669696 0.015 -0.0670014 0.0988774 0.02 -0.00841577 0.0999597 0.0204504 -0.0279163 0.0977723 0.0227654 -0.0473143 0.0900805 0.026258 -0.0675074 0.0786482 0.0268204 -0.0515472 0.0940807 0.0224202 -0.00784758 0.0984417 0.0267426 0.00745991 0.098029 0.028618 0.0196342 0.0986223 0.0225895 0.0450521 0.0874651 0.0289955 0.0547944 0.0922179 0.02359 0.0435512 0.096702 0.0218148 -0.0314104 0.0932274 0.029 -0.0664157 0.0725299 0.029 0.0570995 0.0835732 0.0276587 0.0766062 0.0616694 0.029 0.0747861 0.068379 0.0277273 0.055 0.0992436 0.02 0.0837225 0.0673982 0.0250436 -0.0727829 0.0688084 0.0283058 -0.0670014 -0.0988774 0.02 -0.0670014 -0.0988774 0.015 -0.067704 -0.0772108 0.0271345 -0.0678183 -0.0763786 0.0150003 0.0967217 -0.0865734 0 0.0925855 -0.0925855 0.015 0.0925855 -0.0925855 0 0.0842984 -0.0978756 0.015 0.0865734 -0.0967217 0 0.0792378 -0.0984297 0 0.0547944 0.0922179 0.02359 0.055 0.0992436 0.02 0.0545244 0.0992262 0.0149989 -0.0792378 -0.0984297 0 -0.0865734 -0.0967217 0 -0.0847944 -0.0976261 0.015 -0.0925855 -0.0925855 0 -0.0925855 -0.0925855 0.015 -0.0967217 -0.0865734 0 -0.0865734 0.0967217 0 -0.0925855 0.0925855 0.015 -0.0925855 0.0925855 0 -0.0967217 0.0865734 0 -0.0727829 0.0688084 0.0283058 -0.0747499 0.0680756 0.0150022 -0.0677992 0.0764592 0.0150001 -0.0675074 0.0786482 0.0268204 -0.0791413 0.0674865 0.0264924 -0.0925855 -0.0925855 0.015 -0.0842505 -0.084208 0.015 -0.0847944 -0.0976261 0.015 -0.0976973 -0.0843068 0.015 -0.0988785 -0.0669696 0.015 -0.0859998 -0.07995 0.015 -0.0796736 -0.0674725 0.015 -0.0842152 -0.0757318 0.015 -0.079975 -0.0740001 0.015 -0.0740002 -0.08005 0.015 -0.0757494 -0.075792 0.015 -0.0678183 -0.0763786 0.0150003 -0.0729306 -0.0695171 0.0149996 -0.0670014 -0.0988774 0.015 -0.0757848 -0.0842682 0.015 -0.080025 -0.0859999 0.015 0.0970634 -0.0305243 0.0247398 0.0910494 -0.0529527 0.0248475 0.0941593 -0.0283952 0.029 0.0822975 -0.0538292 0.029 0.0756647 -0.0678305 0.027657 0.0637992 -0.0748383 0.029 0.0548935 -0.0915631 0.0241419 0.0181266 -0.097518 0.0245217 0.0551707 -0.0871878 0.0264714 -0.0161018 -0.0969443 0.0277228 -0.0235721 -0.0978163 0.0228929 -0.0539428 -0.0873037 0.0264829 -0.0563438 -0.0912339 0.0241281 0.0989028 -0.0347741 0.0218048 0.0176476 -0.0983815 0.022 -0.0587988 -0.0952525 0.0219612 0.1 0 0.02 0.0983444 1.4232e-05 0.029 -0.00600358 -0.099991 0.0200001 0.0600422 -0.0807636 0.0278374 0.0988774 -0.0670014 0.02 0.0122413 -0.0975783 0.029 0.055 -0.0992436 0.02 0.0397048 -0.0899731 0.029 -0.0425976 -0.0886473 0.029 -0.067704 -0.0772108 0.0271345 -0.0670014 -0.0988774 0.02 -0.0664157 -0.0725299 0.029 -0.0728861 -0.0692755 0.0292157 -0.0670014 0.0988774 0.015 -0.0670014 0.0988774 0.02 0.079975 0.0740001 0.015 0.0753094 0.0678832 0.015 0.0757494 0.075792 0.015 0.056799 0.084018 0.0149996 0.0740002 0.08005 0.015 0.0545244 0.0992262 0.0149989 0.0792378 0.0984297 0.015 0.0757848 0.0842682 0.015 0.080025 0.0859999 0.015 0.0865734 0.0967217 0.015 0.0842505 0.084208 0.015 0.0925855 0.0925855 0.015 0.0976963 0.0843091 0.015 0.0988774 0.0670014 0.015 0.0859998 0.07995 0.015 0.0842152 0.0757318 0.015 -0.0796736 -0.0674725 0.015 -0.0728861 -0.0692755 0.0292157 -0.0729306 -0.0695171 0.0149996 -0.0796736 -0.0674725 0.0263258 0.0859999 -0.080025 0 0.084208 -0.0842505 0 0.0967217 -0.0865734 0 0.100002 0 0 0.08005 -0.0740002 0 0.0984297 -0.0792378 0 0.075792 -0.0757494 0 0.0842682 -0.0757848 0 0 -0.100002 0 -0.0740002 -0.08005 0 -0.0792378 -0.0984297 0 0.0792378 -0.0984297 0 0.0740001 -0.079975 0 -0.0757494 -0.075792 0 -0.0757848 -0.0842682 0 -0.0859999 0.080025 0 -0.0984297 0.0792378 0 -0.0842682 0.0757848 0 -0.100002 0 0 -0.0984297 -0.0792378 0 -0.079975 -0.0740001 0 -0.0967217 0.0865734 0 -0.08005 0.0740002 0 -0.075792 0.0757494 0 0 0.100002 0 0.0740002 0.08005 0 0.0792378 0.0984297 0 -0.0757318 0.0842152 0 -0.0740001 0.079975 0 -0.0792378 0.0984297 0 0.0757494 0.075792 0 0.0757848 0.0842682 0 0.0984297 0.0792378 0 0.079975 0.0740001 0 0.0842152 0.0757318 0 0.0859998 0.07995 0 0.0967217 0.0865734 0 0.0842505 0.084208 0 0.080025 0.0859999 0 0.0865734 0.0967217 0 0.0925855 0.0925855 0 -0.084208 0.0842505 0 -0.07995 0.0859998 0 -0.0865734 0.0967217 0 -0.0925855 0.0925855 0 -0.0842152 -0.0757318 0 -0.0859998 -0.07995 0 -0.0967217 -0.0865734 0 -0.0842505 -0.084208 0 -0.080025 -0.0859999 0 -0.0865734 -0.0967217 0 -0.0925855 -0.0925855 0 0.0757318 -0.0842152 0 0.07995 -0.0859998 0 0.0865734 -0.0967217 0 0.0925855 -0.0925855 0 0.0570995 0.0835732 0.0276587 0.056799 0.084018 0.0149996 0 -0.100002 0 0.0545231 -0.0992437 0.0149996 -0.00600358 -0.099991 0.0200001 -0.0670014 -0.0988774 0.02 0.055 -0.0992436 0.02 -0.0670014 -0.0988774 0.015 0.0988774 0.0670014 0.0199999 0.0983058 0.0235498 0.0220505 0.0969225 0.0166516 0.029 0.0935119 0.0539571 0.0224585 0.0950432 0.0346915 0.025185 0.0892439 0.0499383 0.0261383 0.0859343 0.0478199 0.029 0.0927461 0.0327004 0.029 0.0988774 -0.0670014 0.015 0.0988774 -0.0670014 0.02 -0.08005 0.0740002 0 -0.08005 0.0740002 0.015 -0.0842682 0.0757848 0 -0.07995 0.0859998 0 -0.084208 0.0842505 0 -0.07995 0.0859998 0.015 -0.0859999 0.080025 0 -0.084208 0.0842505 0.015 -0.0842682 0.0757848 0.015 -0.0859999 0.080025 0.015 -0.0757318 0.0842152 0 -0.075792 0.0757494 0 -0.0740001 0.079975 0 -0.075792 0.0757494 0.015 -0.0757318 0.0842152 0.015 -0.0740001 0.079975 0.015 -0.0842152 -0.0757318 0 -0.0757494 -0.075792 0 -0.079975 -0.0740001 0 -0.0757494 -0.075792 0.015 -0.0842152 -0.0757318 0.015 -0.079975 -0.0740001 0.015 0.0777544 -0.0777272 0.1985 0.0428008 -0.101317 0.1985 0.101328 -0.0427593 0.1985 -0.101328 0.0427593 0.1985 0.109975 3.1829e-05 0.1985 -0.109975 -3.1829e-05 0.1985 0.101316 0.0428155 0.1985 0.0777319 0.0777656 0.1985 0.0427715 0.101335 0.1985 -1.5914e-05 0.109975 0.1985 -0.0428008 0.101317 0.1985 -0.0777544 0.0777272 0.1985 -0.101316 -0.0428155 0.1985 -0.0778434 -0.0778066 0.198499 -0.0427715 -0.101335 0.1985 1.5914e-05 -0.109975 0.1985 0.0637992 -0.074836 0.029 0.0719985 -0.0719568 0.0713364 0.0822975 -0.0538221 0.029 -0.0778434 -0.0778066 0.198499 -0.0413938 -0.0981546 0.137611 -0.0744136 -0.0737091 0.111973 0.0751513 -0.0751659 0.134322 0.098054 -0.0414343 0.136121 0.0938039 -0.0395948 0.0713364 0.0414489 -0.0980298 0.135962 0.0396491 -0.093781 0.0713364 3.3521e-05 -0.106358 0.135278 2.9461e-05 -0.101792 0.0713364 -0.0395948 -0.0938039 0.0713364 0.0941593 -0.0283832 0.029 0.0983444 2.8463e-05 0.029 -0.08167 -0.0733764 0.194965 -0.0425976 -0.0886473 0.029 -0.0664157 -0.0725299 0.029 -0.0161018 -0.0969443 0.0277228 0.104885 3.0356e-05 0.1137 0.109975 3.1829e-05 0.1985 0.101328 -0.0427593 0.1985 0.0777544 -0.0777272 0.1985 0.0428008 -0.101317 0.1985 1.5914e-05 -0.109975 0.1985 -0.0427715 -0.101335 0.1985 -0.0986977 -0.0494142 0.195575 -0.101316 -0.0428155 0.1985 -0.107974 -0.0200816 0.195627 -0.109826 -1.5893e-05 0.195631 -0.109975 -3.1829e-05 0.1985 0.0122413 -0.0975783 0.029 0.0397048 -0.0899731 0.029 -0.102552 0.0392969 0.195566 -0.101328 0.0427593 0.1985 -0.107978 0.020059 0.195627 -0.0745477 0.0735438 0.111588 -0.0414489 0.0980298 0.135962 -0.0761119 0.0760678 0.15609 -0.0396491 0.093781 0.0713364 -3.3521e-05 0.106358 0.135278 -2.9461e-05 0.101792 0.0713364 0.0413797 0.0980242 0.135491 0.0395948 0.0938039 0.0713364 0.0752177 0.0752579 0.135929 0.0719568 0.0719985 0.0713364 0.0981263 0.0414914 0.13767 0.093781 0.0396491 0.0713364 0.0450521 0.0874651 0.0289955 0.0969225 0.0166636 0.029 0.0927461 0.0327075 0.029 0.0859343 0.0478221 0.029 0.0766062 0.0616694 0.029 0.00745991 0.098029 0.028618 -0.0314104 0.0932274 0.029 -0.0664157 0.0725299 0.029 -0.0937234 0.0572264 0.195371 -0.0816701 0.0733764 0.194965 -0.0777544 0.0777272 0.1985 -0.0428008 0.101317 0.1985 -1.5914e-05 0.109975 0.1985 0.0427715 0.101335 0.1985 0.0777319 0.0777656 0.1985 0.101316 0.0428155 0.1985</float_array>
                    <technique_common>
                        <accessor count="927" source="#shape0-lib-positions-array" stride="3">
                            <param name="X" type="float"/>
                            <param name="Y" type="float"/>
                            <param name="Z" type="float"/>
                        </accessor>
                    </technique_common>
                </source>
                <vertices id="shape0-lib-vertices">
                    <input semantic="POSITION" source="#shape0-lib-positions"/>
                </vertices>
                <triangles count="914">
                    <input offset="0" semantic="VERTEX" source="#shape0-lib-vertices"/>
                    <p>0 2 1 3 5 4 6 1 2 7 6 2 4 7 2 8 7 4 5 8 4 9 2 0 10 2 9 4 2 10 3 4 10 11 13 12 12 15 14 14 17 16 18 16 17 17 19 18 20 18 19 20 6 18 14 15 17 19 17 21 22 17 15 21 23 19 22 21 17 24 26 25 24 25 27 19 26 20 19 23 26 25 26 23 26 1 20 6 20 1 28 27 25 16 18 8 7 18 6 8 5 16 7 8 18 5 29 16 14 16 29 29 11 14 30 12 13 14 11 12 31 33 32 34 36 35 35 37 33 38 39 36 39 37 36 35 36 37 37 40 33 40 32 33 41 43 42 44 43 41 45 47 46 48 42 43 49 48 43 46 48 49 48 46 47 50 43 44 49 43 50 46 49 50 45 46 50 51 53 52 54 52 55 47 52 56 53 56 52 57 55 45 58 52 54 47 45 52 45 55 52 59 61 60 62 61 59 37 39 63 64 60 61 63 64 61 64 63 39 65 61 62 63 61 65 37 63 65 66 68 67 69 67 68 70 72 71 66 70 71 73 72 70 74 71 75 76 70 66 75 71 72 77 79 78 80 79 77 80 77 81 82 81 77 83 85 84 84 85 86 87 83 88 84 88 83 87 88 89 90 89 88 91 86 92 92 86 85 93 86 91 94 96 95 97 95 96 98 100 99 101 100 98 102 100 103 101 103 100 96 72 97 75 72 96 104 95 105 94 95 104 106 104 107 105 107 104 108 110 109 111 113 112 110 114 109 112 115 111 112 113 116 117 111 115 118 111 117 114 116 109 113 109 116 119 73 120 70 120 73 121 123 122 124 122 123 125 124 126 122 124 125 119 120 127 128 127 120 68 129 69 130 69 129 66 67 76 121 107 123 106 107 121 131 133 132 134 126 133 127 132 126 129 133 131 125 126 134 126 132 133 129 131 135 129 135 130 127 128 132 136 138 137 137 139 136 140 142 141 139 143 136 144 136 145 145 146 144 143 145 136 147 148 146 144 146 148 142 138 136 136 149 142 150 141 149 142 149 141 151 137 138 74 82 71 81 82 74 98 99 79 78 79 99 103 133 102 134 133 103 152 154 153 155 157 156 158 160 159 161 156 160 159 160 156 162 163 157 163 156 157 164 166 165 167 164 165 168 170 169 171 173 172 174 175 172 173 176 172 174 172 170 170 172 176 177 178 173 176 173 179 179 173 178 180 181 175 172 175 182 181 183 175 182 175 184 184 175 183 183 185 184 186 184 185 187 188 181 183 181 189 189 181 188 176 169 170 166 164 190 191 190 164 192 194 193 195 193 194 196 198 197 199 197 198 200 202 201 203 201 202 204 206 205 206 207 205 208 210 209 209 211 208 212 214 213 215 213 214 216 218 217 219 221 220 158 220 222 223 217 218 224 225 222 221 223 220 223 218 220 222 220 224 218 224 220 226 222 225 212 213 227 228 227 213 229 231 230 232 230 231 233 235 234 236 234 235 237 234 238 239 234 236 221 237 238 240 238 234 239 240 234 241 235 233 242 221 243 244 246 245 245 247 244 248 250 249 251 248 249 252 254 253 220 158 159 255 257 256 162 259 258 260 258 241 257 258 261 262 261 263 264 256 257 241 258 255 263 261 259 259 261 258 257 255 258 200 201 265 200 265 266 267 269 268 270 267 268 196 192 193 198 196 193 271 231 272 229 272 231 273 274 250 249 250 274 275 277 276 275 276 278 279 248 280 251 280 248 253 282 281 283 285 284 285 286 284 287 289 288 290 289 287 287 288 291 287 291 292 293 291 294 292 291 293 295 297 296 298 296 297 299 301 300 302 295 303 302 303 304 299 302 301 304 301 302 299 300 297 298 297 300 305 307 306 306 308 305 308 309 305 310 312 311 312 310 313 311 312 314 314 312 315 316 315 317 317 315 312 318 316 319 317 319 316 320 318 319 321 320 322 319 322 320 323 321 322 322 313 323 310 323 313 324 326 325 326 324 327 328 325 329 326 329 325 328 331 330 332 334 333 335 333 334 332 333 336 337 338 336 332 336 338 338 337 339 340 341 339 338 339 341 341 340 334 335 334 340 342 344 343 343 346 345 347 349 348 347 348 350 351 353 352 351 352 354 342 354 344 355 356 165 167 165 356 357 358 355 355 358 356 359 358 360 357 360 358 361 363 362 364 363 365 366 362 367 368 362 363 366 367 369 368 367 362 370 369 371 372 369 367 370 371 373 372 371 369 373 375 374 375 373 371 376 377 374 376 374 375 378 374 377 361 365 363 379 381 380 382 384 383 381 383 384 383 385 382 385 386 382 386 387 382 387 388 382 388 389 382 390 382 389 384 391 381 391 392 381 392 393 381 393 394 381 394 380 381 395 397 396 397 399 398 398 400 397 399 401 398 401 402 398 402 403 398 403 404 398 404 405 398 400 406 397 406 407 397 407 408 397 408 409 397 409 396 397 410 412 411 413 411 414 415 411 412 416 413 417 415 414 411 418 416 419 414 417 413 418 419 420 417 419 416 420 422 421 422 420 419 421 424 423 424 421 422 424 425 423 426 423 425 427 429 428 410 428 412 430 429 427 412 428 431 431 428 429 432 430 433 434 432 435 427 433 430 436 434 437 433 435 432 438 436 439 435 437 434 425 438 426 437 439 436 439 426 438 365 440 364 441 443 442 443 364 440 441 442 444 440 442 443 445 444 446 447 444 442 448 445 449 447 446 444 450 448 451 446 449 445 450 451 452 449 451 448 452 453 377 453 452 451 378 377 453 454 456 455 457 455 456 458 460 459 461 459 460 455 457 461 459 461 457 462 464 463 463 464 465 464 466 465 466 467 465 468 465 469 470 465 467 469 471 468 470 469 465 471 472 468 473 474 468 473 468 472 468 474 475 474 476 475 476 477 475 463 475 478 479 475 477 478 480 463 479 478 475 462 463 481 480 481 463 482 484 483 483 484 485 484 486 485 486 487 485 488 485 489 490 485 487 489 491 488 490 489 485 491 492 488 493 494 488 493 488 492 488 494 495 494 496 495 483 495 497 498 495 496 497 499 483 498 497 495 482 483 500 499 500 483 501 503 502 504 502 503 505 506 501 503 501 506 505 507 506 508 506 507 508 507 504 502 504 507 454 460 456 458 456 460 509 511 510 512 514 513 513 516 515 516 513 514 511 515 517 518 515 516 517 510 511 518 517 515 519 521 520 522 524 523 523 526 525 526 523 524 521 525 527 528 525 526 527 520 521 528 527 525 522 529 524 519 520 530 530 532 531 532 530 520 529 531 533 534 531 532 533 524 529 534 533 531 535 537 536 538 540 539 539 542 541 542 539 540 537 541 543 544 541 542 543 536 537 544 543 541 538 545 540 535 536 546 546 548 547 548 546 536 545 547 549 550 547 548 549 540 545 550 549 547 551 553 552 554 551 552 554 552 555 556 554 555 557 559 558 560 558 561 562 558 563 564 561 565 566 557 558 566 558 560 565 561 558 563 558 559 567 569 568 570 572 571 567 568 570 572 570 568 571 574 573 574 571 572 575 573 576 577 573 574 578 575 576 577 576 573 579 575 580 569 579 581 578 580 575 581 568 569 580 581 579 564 565 582 583 582 584 564 582 583 585 584 586 583 584 585 587 586 588 585 586 587 589 591 590 592 594 593 589 590 594 595 594 590 593 597 596 595 593 594 596 597 598 593 596 592 599 598 600 600 598 597 601 598 602 591 601 603 599 602 598 603 590 591 602 603 601 604 606 605 607 608 606 608 605 606 609 611 610 612 614 613 588 610 587 615 613 616 616 614 610 616 613 614 587 610 611 609 610 614 617 619 618 620 619 617 620 617 621 620 621 622 623 620 622 622 624 623 625 627 626 628 630 629 630 631 629 629 631 632 625 632 627 633 632 631 634 626 627 633 627 632 635 637 636 638 640 639 640 638 637 641 636 637 642 643 641 636 641 643 644 645 642 643 642 645 645 646 643 647 638 648 644 650 649 651 649 650 652 646 645 645 644 649 636 643 652 646 652 643 653 651 650 639 654 648 637 647 641 637 638 647 639 648 638 642 641 647 635 639 640 640 637 635 655 657 656 658 656 657 659 562 563 659 563 660 661 659 660 661 660 662 663 661 662 664 663 662 665 667 666 668 670 669 671 670 672 669 670 671 673 672 628 671 672 673 673 628 629 615 616 674 675 674 676 615 674 675 626 676 677 675 676 626 626 677 625 678 680 679 681 680 678 678 679 682 683 685 684 686 688 687 683 684 686 688 686 684 687 690 689 690 687 688 691 689 690 692 694 693 695 689 693 691 693 689 696 694 697 695 693 694 685 696 698 692 697 694 698 684 685 697 698 696 699 701 700 702 704 703 705 707 706 708 709 706 710 711 708 709 708 711 700 712 699 706 713 705 713 706 709 711 714 709 715 716 712 709 717 713 718 703 704 703 719 700 715 712 719 702 703 700 712 700 719 706 707 720 713 721 705 721 713 717 704 722 718 707 718 722 706 720 708 722 720 707 723 710 708 724 725 710 710 723 724 726 724 723 717 709 725 710 725 711 714 711 725 714 725 709 726 727 724 716 701 699 712 716 699 702 700 701 680 681 728 729 728 681 730 732 731 733 731 734 732 734 731 735 737 736 735 733 737 737 733 734 738 740 739 738 736 737 736 738 739 741 739 740 742 744 743 741 740 742 744 742 740 743 745 731 745 743 744 730 731 745 746 748 747 749 746 747 657 747 658 748 658 747 750 752 751 753 755 754 754 756 753 757 754 755 758 760 759 758 762 761 759 763 758 764 759 760 765 767 766 768 770 769 766 771 765 768 766 772 772 773 768 767 772 766 774 776 775 777 779 778 775 780 774 781 775 776 774 780 773 753 783 782 758 763 756 778 774 773 783 770 780 780 770 773 768 773 770 762 758 756 770 783 763 763 783 756 753 756 783 784 785 782 784 782 783 785 787 786 776 789 788 782 785 786 790 786 787 781 776 788 790 787 789 788 789 787 774 778 779 765 771 791 792 791 793 794 791 771 793 779 792 794 793 791 777 792 779 795 796 769 795 769 770 796 798 797 760 800 799 769 796 797 801 797 798 764 760 799 801 798 800 799 800 798 802 803 761 802 761 762 803 751 804 755 752 750 761 803 804 805 804 751 757 755 750 805 751 752 806 606 807 607 606 806 664 809 808 810 811 808 812 808 809 668 808 813 670 668 813 811 813 808 662 809 664 810 808 812 665 807 667 806 807 665 814 815 715 816 716 815 817 819 818 818 815 817 715 815 716 653 650 819 819 817 653 814 653 817 650 820 819 819 820 818 821 816 818 821 818 820 815 818 816 817 815 814 619 822 618 823 618 822 824 826 825 827 829 828 828 831 830 831 828 829 826 830 832 833 830 831 832 825 826 833 832 830 827 834 829 824 825 835 835 837 836 837 835 825 834 836 838 839 836 837 838 829 834 839 838 836 512 840 514 509 510 841 841 843 842 843 841 510 840 842 844 845 842 843 844 514 840 845 844 842 846 848 847 848 850 849 849 851 848 850 852 849 852 853 849 853 854 849 854 855 849 855 856 849 857 849 856 851 858 848 858 859 848 859 860 848 860 861 848 861 847 848 862 864 863 865 867 866 868 863 869 870 869 863 871 872 868 863 868 872 873 874 871 872 871 874 866 875 873 874 873 875 866 867 875 876 877 870 878 867 865 879 875 880 880 875 867 874 875 881 869 870 882 877 882 870 883 884 869 883 869 882 868 869 885 868 885 871 884 885 869 871 886 873 886 871 885 873 887 866 887 873 886 866 888 865 888 866 887 865 890 889 889 890 891 878 865 889 892 891 893 893 891 890 881 894 874 879 881 875 874 894 872 863 872 862 895 872 894 870 863 864 895 862 872 876 870 864 896 898 897 899 901 900 900 902 899 903 904 900 902 900 904 905 906 903 904 903 906 907 908 905 906 905 908 909 910 907 908 907 910 906 908 911 909 882 910 883 882 909 877 912 910 877 910 882 912 913 910 913 914 910 914 915 910 908 910 915 904 906 916 915 911 908 902 904 917 911 916 906 917 918 902 916 917 904 918 899 902 919 921 920 920 901 899 893 897 898 901 921 900 896 897 919 897 921 919 901 920 921 900 922 903 922 900 921 903 923 905 923 903 922 905 924 907 924 905 923 907 925 909 925 907 924 883 909 926 926 909 925 892 893 898</p>
                </triangles>
            </mesh>
        </geometry>
    </library_geometries>
    <library_visual_scenes>
        <visual_scene id="VisualSceneNode" name="VisualScene">
            <node id="node" name="node">
                <instance_geometry url="#shape0-lib"/>
            </node>
        </visual_scene>
    </library_visual_scenes>
    <scene>
        <instance_visual_scene url="#VisualSceneNode"/>
    </scene>
</COLLADA>
