<?xml version="1.0" encoding="UTF-8"?>
<COLLADA xmlns="http://www.collada.org/2005/11/COLLADASchema" version="1.4.1">
    <asset>
        <contributor>
            <author>VCGLab</author>
            <authoring_tool>VCGLib | MeshLab</authoring_tool>
        </contributor>
        <created>火 7月 1 01:25:33 2025 GMT</created>
        <modified>火 7月 1 01:25:33 2025 GMT</modified>
        <up_axis>Y_UP</up_axis>
    </asset>
    <library_geometries>
        <geometry id="shape0-lib" name="shape0">
            <mesh>
                <source id="shape0-lib-positions" name="position">
                    <float_array id="shape0-lib-positions-array" count="2031">0.0627297 0.105898 0.102128 0.0655752 0.111091 0.132798 0.0455872 0.108819 0.0893373 0.0594818 0.0999829 0.0662206 0.0510096 0.104186 0.0696061 0.0606358 0.0948726 0.0352413 0.0508427 0.0994183 0.0259423 0.0525239 0.11237 0.123089 0.0620129 0.090883 0.00199999 0.067408 0.0907409 0.0455452 0.0771523 0.078442 0.00199999 0.0449083 0.100444 0.00199999 0.0410199 0.105243 0.0474989 0.0734765 0.105037 0.122574 0.0672425 0.10114 0.096926 0.0655456 0.0977489 0.077656 0.0656108 0.0946782 0.062258 0.040005 2.5081e-05 -0.0285 0.0400051 2.5081e-05 0.00199999 0.0368376 0.0156036 -0.0285 -0.0368571 0.0155575 -0.0285 -0.0368571 0.0155575 0.00199999 -0.040005 -2.505e-05 -0.0285 -0.0282876 0.0282699 -0.0285 -0.040005 -2.5111e-05 0.00199999 -0.0155805 0.0368473 -0.0285 -0.0282876 0.0282699 0.00199999 -2.5e-05 0.04 -0.0285 -2.5e-05 0.04 0.00199999 -0.0155805 0.0368473 0.00199999 0.0155345 0.0368668 -0.0285 0.0282522 0.0283052 -0.0285 0.0282522 0.0283052 0.00199999 0.0155345 0.0368668 0.00199999 0.0368376 0.0156036 0.00199999 0.0368571 -0.0155575 -0.0285 0.0282876 -0.0282699 -0.0285 0.0282876 -0.0282699 0.00199999 0.0368571 -0.0155575 0.00199999 0.0155805 -0.0368473 -0.0285 2.5e-05 -0.04 -0.0285 2.5e-05 -0.04 0.00199999 0.0155805 -0.0368473 0.00199999 -0.0155345 -0.0368668 -0.0285 -0.0155345 -0.0368668 0.00199999 -0.0282522 -0.0283052 -0.0285 -0.0368376 -0.0156036 -0.0285 -0.0368376 -0.0156036 0.00199999 -0.0282522 -0.0283052 0.00199999 0.0155345 0.0368668 -0.0285 -2.5e-05 0.04 -0.0285 0.0282522 0.0283052 -0.0285 -0.0368376 -0.0156036 -0.0285 0.040005 2.5081e-05 -0.0285 -0.040005 -2.505e-05 -0.0285 0.0368376 0.0156036 -0.0285 -0.0282522 -0.0283052 -0.0285 0.0368571 -0.0155575 -0.0285 0.0282876 -0.0282699 -0.0285 0.0155805 -0.0368473 -0.0285 2.5e-05 -0.04 -0.0285 -0.0155345 -0.0368668 -0.0285 -0.0368571 0.0155575 -0.0285 -0.0282876 0.0282699 -0.0285 -0.0155805 0.0368473 -0.0285 -0.0205841 0.112523 0.214581 0.00429994 0.115711 0.220299 -0.00505325 0.11173 0.242324 0.0841067 0.113608 0.204073 0.0570012 0.116826 0.194982 0.074352 0.114691 0.182179 0.0702798 0.115201 0.222275 0.0395718 0.117503 0.205773 0.0531448 0.116381 0.226514 0.0213977 0.117194 0.212219 0.0344578 0.11563 0.237786 0.00885501 0.113614 0.241368 0.0289833 0.112721 0.253196 0.00940214 0.110918 0.255011 0.0827279 0.111875 0.229591 0.0648841 0.11408 0.239961 0.0508704 0.113825 0.247854 0.0258158 0.109748 0.262986 0.0415235 0.109537 0.263385 0.0656302 0.111628 0.249255 0.0791999 0.108221 0.246714 0.0608184 0.108581 0.259412 0.0931004 0.107985 0.227554 0.0983754 0.108001 0.20883 0.0991715 0.107987 0.196772 0.0970623 0.107878 0.181576 0.0903098 0.107401 0.16318 0.0797772 0.111974 0.165934 0.0455345 0.095 0.161133 0.029975 0.095 0.158 0.0582522 0.095 0.169695 -0.00683758 0.095 0.213604 0.070005 0.095 0.197975 -0.010005 0.095 0.198025 0.0668376 0.095 0.182396 0.0017478 0.095 0.226305 0.0668571 0.095 0.213558 0.0582876 0.095 0.22627 0.0455805 0.095 0.234847 0.030025 0.095 0.238 0.0144655 0.095 0.234867 -0.00685705 0.095 0.182442 0.00171244 0.095 0.16973 0.0144195 0.095 0.161153 0.0668571 0.095 0.213558 0.0582876 0.095 0.22627 0.0668571 0.065 0.213558 0.070005 0.065 0.197975 0.070005 0.095 0.197975 0.0455805 0.095 0.234847 0.0455805 0.065 0.234847 0.0582876 0.065 0.22627 0.030025 0.095 0.238 0.0144655 0.095 0.234867 0.0144655 0.065 0.234867 0.030025 0.065 0.238 0.0017478 0.095 0.226305 -0.00683758 0.095 0.213604 0.0017478 0.065 0.226305 -0.010005 0.065 0.198025 -0.00683758 0.065 0.213604 -0.010005 0.095 0.198025 0.0668376 0.095 0.182396 0.0668376 0.065 0.182396 0.0582522 0.065 0.169695 0.0455345 0.065 0.161133 0.0455345 0.095 0.161133 0.0582522 0.095 0.169695 0.029975 0.065 0.158 0.029975 0.095 0.158 0.0144195 0.065 0.161153 0.0144195 0.095 0.161153 0.00171244 0.065 0.16973 0.00171244 0.095 0.16973 -0.00685705 0.065 0.182442 -0.00685705 0.095 0.182442 -0.0422486 0.104994 0.189009 -0.0430399 0.0975537 0.216173 -0.0508117 0.0968419 0.197839 0.0782181 0.0977914 0.253455 0.0510599 0.0981597 0.268085 0.0755192 0.106302 0.251152 -0.029961 0.107501 0.212414 -0.0275611 0.0971978 0.243072 -0.0144184 0.109641 0.234546 -0.00665641 0.0985888 0.260081 0.00190576 0.108736 0.253002 0.0206219 0.0975453 0.270838 0.0254642 0.107609 0.263821 0.0514515 0.106735 0.263445 -0.0205841 0.112523 0.214581 -0.0279905 0.112256 0.18937 -0.0335935 0.110632 0.15526 -0.0469439 0.10476 0.162253 0.0952757 0.0970176 0.232586 0.0931004 0.107985 0.227554 0.0791999 0.108221 0.246714 0.0608184 0.108581 0.259412 0.0415235 0.109537 0.263385 0.0258158 0.109748 0.262986 -0.0592206 0.095952 0.167477 -0.036789 0.0970083 0.229176 -0.0143785 0.0970019 0.256699 2.0882e-05 0.097 0.265334 0.0421152 0.097 0.270647 0.0620061 0.097 0.264349 0.00940214 0.110918 0.255011 -0.00505325 0.11173 0.242324 0.10619 0.0819365 0.181976 0.0973257 0.0815728 0.154677 0.101224 0.0651136 0.154874 0.0817862 0.0724638 0.053433 0.0873306 0.0678214 0.028189 0.0927372 0.0493834 0.052611 0.0995534 0.0464727 0.028053 0.0986691 0.0263517 0.0532025 0.106885 0.0235964 0.027944 0.109351 -3.4e-08 0.02791 0.0995324 -0.0465208 0.028053 0.0918883 -0.0498478 0.0554122 0.106898 -0.023612 0.027952 0.0817687 -0.0724952 0.053434 0.0873129 -0.067851 0.028188 0.0789617 -0.0767622 0.00199717 0.0939607 -0.0574443 0.00199933 0.110147 0.0649989 0.18299 0.0879347 0.0807579 0.130594 0.0877637 0.0671107 0.122145 0.0794985 0.0789052 0.104546 0.0815096 0.0692615 0.103715 0.0788647 0.0716523 0.0871678 0.077638 0.0760674 0.078614 0.0805218 0.0699772 0.0716116 0.0850293 0.0618928 0.0634649 0.101612 0.0105202 0.050576 0.102414 -0.00604925 0.049441 0.100331 -0.0224486 0.050436 0.0825106 -0.0690273 0.060667 0.0801423 -0.0727022 0.0646486 0.0776243 -0.0761003 0.078617 0.0783101 -0.0729689 0.079483 0.0794873 -0.078939 0.10455 0.080928 -0.069488 0.101551 0.0879241 -0.0807931 0.130598 0.0895197 -0.0665544 0.126545 0.097317 -0.0816098 0.154679 0.105382 -0.0649845 0.166486 0.106182 -0.0819747 0.181978 0.111611 -0.0650037 0.192953 0.105801 0.0649992 0.16797 0.101434 -0.0426234 0.00199999 0.107838 0.0215958 0.00199999 0.109484 -0.010689 0.00199999 0.0969195 0.0520373 0.00199999 0.0815297 0.106315 0.143282 0.0970623 0.107878 0.181576 0.0903098 0.107401 0.16318 0.110626 0.065 0.21077 0.10601 0.0868303 0.210039 0.0983754 0.108001 0.20883 0.0991715 0.107987 0.196772 0.111565 0.065 0.199688 0.110626 -0.065 0.21077 0.10601 -0.0868298 0.210039 0.0983757 -0.108 0.20883 0.0991764 -0.107986 0.196791 0.0978398 -0.107915 0.185539 0.0935237 -0.107613 0.170688 0.0815384 -0.10633 0.143276 0.0734789 -0.105039 0.122583 0.0673762 -0.101279 0.0976315 0.0650934 -0.0959197 0.0678119 0.0681249 -0.0893958 0.0388501 -0.0704905 0.0910838 0.103217 -0.0646556 0.095358 0.0990254 -0.0657039 0.094575 0.130669 -0.0514749 0.102974 0.123119 -0.0592898 0.097494 0.0658273 -0.051791 0.100888 0.0614989 -0.0563878 0.0944163 0.00200017 -0.0413499 0.102022 0.00200067 -0.066475 0.0921955 0.0555294 -0.0706396 0.0844887 0.00199966 -0.0637579 0.0947343 0.146478 -0.0730916 0.0878056 0.0656509 -0.0421971 0.103715 0.04928 0.0409842 -0.105108 0.0455869 0.0449083 -0.100444 0.00199999 0.0244022 -0.107194 0.0020006 0.025886 -0.117442 0.173991 0.0474728 -0.11636 0.159227 0.0270531 -0.115905 0.139959 0.0115043 -0.116385 0.146842 0.0056393 -0.116972 0.181877 -0.0032212 -0.115851 0.151061 -0.00992226 -0.115579 0.188966 -0.017907 -0.114331 0.156477 0.0582388 -0.114889 0.1516 0.0338381 -0.11293 0.106413 0.0525346 -0.112348 0.122909 0.0432674 -0.109611 0.0915471 0.0165643 -0.112289 0.0799623 -0.0123267 -0.111184 0.0771288 -0.0271649 -0.108596 0.0727923 0.0283101 -0.109498 0.0610117 0.00206259 -0.111824 0.0656361 0.0158587 -0.11071 0.051474 0.0160495 -0.109877 0.026659 0.00220122 -0.110059 0.00200264 -0.0138185 -0.109963 0.026417 -0.0278664 -0.107271 0.026318 -0.025116 -0.112802 0.197637 -0.0344739 -0.110352 0.151917 -0.0416433 -0.103761 0.0453021 -0.039373 -0.102729 0.00200027 -0.0187388 -0.108387 0.00199999 0.0815384 -0.10633 0.143276 0.0657889 -0.111558 0.135836 0.0935237 -0.107613 0.170688 0.0855044 -0.112192 0.182719 0.0760822 -0.114948 0.193939 0.0632278 -0.116511 0.199167 0.0297277 -0.117468 0.205588 0.0132417 -0.116604 0.216371 -0.013108 -0.112392 0.229798 -0.00055744 -0.115446 0.215643 0.0907518 -0.111685 0.202867 0.0796522 -0.114204 0.212992 0.0856638 -0.111484 0.226636 0.0703213 -0.114089 0.234017 0.0814019 -0.108224 0.244671 0.0589039 -0.116685 0.213078 0.0629044 -0.111732 0.250747 0.0439507 -0.116807 0.225128 0.0568623 -0.114268 0.243966 0.035495 -0.115045 0.242118 -0.000228643 -0.113011 0.239194 0.0177243 -0.110944 0.258833 0.0384353 -0.109641 0.263672 0.0758188 -0.107774 0.250272 0.0548613 -0.107856 0.261966 0.0978398 -0.107915 0.185539 0.0991764 -0.107986 0.196791 0.0983757 -0.108 0.20883 0.0958413 -0.108 0.219395 0.0916817 -0.108 0.229431 0.00345724 -0.111182 0.251172 -0.0706406 -0.0844883 0.00199968 -0.0894326 -0.0677267 0.038733 -0.0728033 -0.0874306 0.0581255 -0.0323199 -0.0742953 0.24831 -0.0537149 -0.0749326 0.217048 -0.0440039 -0.065 0.236946 -0.101452 -0.0468291 0.039271 -0.100272 -0.0454164 0.00199999 -0.0143785 0.0970019 0.256699 -0.0323198 0.0742956 0.24831 -0.0275611 0.0971978 0.243072 -0.0321202 -0.065 0.251167 -0.059128 -0.0650333 0.213571 -0.0684937 -0.0750685 0.183319 -0.0710855 -0.0662725 0.186077 -0.0787426 -0.0740575 0.148152 -0.0795133 -0.0691618 0.155268 -0.0684936 0.0750688 0.183319 -0.0754505 0.0674741 0.172268 -0.0820687 0.0704338 0.143828 -0.0321181 0.065 0.251167 -0.0184739 0.065 0.263448 -0.036789 0.0970083 0.229176 -0.0537148 0.0749329 0.217048 -0.0430399 0.0975537 0.216173 -0.0845109 0.0730402 0.116635 -0.0853283 0.0748431 0.0943127 -0.087546 0.0719513 0.084209 -0.108811 0.0239475 0.03964 -0.101452 0.0468293 0.039271 -0.107174 0.0276932 0.069083 -0.109868 0.0108804 0.067193 -0.111292 1.46e-07 0.039778 -0.0894053 0.0677786 0.0389512 -0.0951471 0.0595659 0.075462 -0.102233 0.0439658 0.071915 -0.0910723 0.0666095 0.07853 -0.10818 -0.0233642 0.06705 -0.108811 -0.0239472 0.03964 -0.110216 -0.00634044 0.066471 -0.0887858 -0.0703455 0.074353 -0.0973518 -0.0555205 0.071259 -0.103854 -0.0398088 0.068736 -0.0849108 -0.0755496 0.0892751 -0.0722398 -0.0893055 0.084416 -0.0863551 -0.0737362 0.0770026 -0.0846492 -0.0729987 0.116339 -0.0700812 -0.0914148 0.106701 -0.0654381 -0.0946751 0.132557 -0.0608942 -0.0954736 0.161668 -0.0539521 -0.0966243 0.187245 -0.0370313 -0.0970196 0.22888 -0.0466574 -0.0969438 0.208546 -0.022195 -0.0968449 0.250078 -0.00320221 -0.065 0.272573 -0.00190678 -0.0811675 0.269664 -0.000490582 -0.0974057 0.265063 -0.0101433 -0.0969787 0.25984 -0.0184763 -0.065 0.263447 -0.100272 0.0454168 0.00199999 -0.110025 3.25e-07 0.00199999 -0.00320221 0.065 0.272573 -0.00190683 0.0811675 0.269664 2.0882e-05 0.097 0.265334 -0.0681219 0.0658102 0.193546 -0.0591 0.0650037 0.21363 -0.0440033 0.065 0.236946 0.0546966 -0.0988956 0.266586 0.062006 -0.097 0.264349 0.0796149 -0.0982431 0.252165 0.0758188 -0.107774 0.250272 0.0548613 -0.107856 0.261966 0.0272456 -0.0992804 0.27013 0.0307459 -0.108384 0.263976 0.00831629 -0.109092 0.256504 -0.000490582 -0.0974057 0.265063 -0.00995857 -0.110444 0.23887 -0.0214179 -0.0999827 0.24534 -0.0355063 -0.101574 0.219958 -0.0230451 -0.11077 0.215782 -0.025116 -0.112802 0.197637 -0.0366874 -0.108066 0.189128 -0.0454806 -0.101947 0.193299 0.0421151 -0.097 0.270647 0.0210099 -0.097 0.271141 -0.0101433 -0.0969787 0.25984 -0.022195 -0.0968449 0.250078 -0.0370313 -0.0970196 0.22888 -0.0466574 -0.0969438 0.208546 -0.013108 -0.112392 0.229798 0.00345724 -0.111182 0.251172 0.0177243 -0.110944 0.258833 0.0384353 -0.109641 0.263672 0.0814019 -0.108224 0.244671 0.0916817 -0.108 0.229431 0.0954446 -0.0970487 0.232045 -0.0469574 -0.104749 0.162256 0.0667314 0.0867089 0.265665 0.0966625 0.065 0.245112 0.0946002 0.0757944 0.244715 0.105576 0.065 0.228855 0.0680087 0.0757944 0.268018 0.0339808 0.0757944 0.277622 0.033847 0.0867089 0.274946 0.0924293 0.0867089 0.243145 0.0206219 0.0975453 0.270838 0.0147156 0.065 0.278187 0.0332048 0.065 0.279567 0.0515288 0.065 0.276741 0.0843124 0.065 0.258941 0.0689508 0.065 0.269738 -0.0563879 -0.0944163 0.00200017 -0.0495518 -0.100384 0.0347716 -0.0547715 -0.101233 0.122046 -0.0650058 -0.0951334 0.0980605 -0.0481208 -0.104378 0.119209 -0.0592896 -0.0974943 0.0658324 -0.0665212 -0.0921671 0.0555726 0.0224161 -0.0651609 0.11329 0.0700222 -0.0655682 0.121562 0.0775996 -0.0650032 0.137429 -0.0544581 -0.0659459 0.152967 -0.0147262 -0.065326 0.105087 -0.0482419 -0.0650113 0.173297 0.0114627 -0.0649708 0.103406 0.0439049 -0.066144 0.0984646 0.0609935 -0.0677314 0.094922 -0.0604733 -0.0690761 0.112264 -0.0380187 -0.066829 0.103598 0.0895197 -0.0665544 0.126545 0.105382 -0.0649845 0.166486 0.080928 -0.069488 0.101551 0.0783101 -0.0729689 0.079483 -0.0849108 -0.0755496 0.0892751 -0.0846492 -0.0729987 0.116339 -0.0795133 -0.0691618 0.155268 -0.0710855 -0.0662725 0.186077 -0.059128 -0.0650333 0.213571 -0.0184763 -0.065 0.263447 -0.00320221 -0.065 0.272573 -0.0440039 -0.065 0.236946 -0.0321202 -0.065 0.251167 0.0147156 -0.065 0.278187 0.0332048 -0.065 0.279567 0.0515288 -0.065 0.276741 0.0689508 -0.065 0.269738 0.0843124 -0.065 0.258941 0.0966625 -0.065 0.245112 0.105576 -0.065 0.228855 0.110626 -0.065 0.21077 0.111611 -0.0650037 0.192953 -0.0390367 0.0657823 0.101445 -0.0675072 0.0701321 0.096721 -0.0428489 0.0670304 0.110207 0.0690456 0.0510004 0.071337 0.0705608 0.0606241 0.072364 0.0850293 0.0618928 0.0634649 -0.0391852 0.0561259 0.091053 -0.0670668 0.0606425 0.086181 -0.0388367 0.0622426 0.095047 -0.0667501 0.066662 0.090326 -0.0110161 0.0542039 0.092073 -0.0106658 0.0603083 0.095903 0.0171606 0.0542205 0.089163 0.017543 0.0603025 0.092961 0.0358822 0.0550161 0.085008 0.0362695 0.0611314 0.088964 0.0542383 0.0569899 0.079222 0.0546284 0.0631442 0.083443 0.070989 0.0667097 0.07672 -0.0103333 0.0639425 0.102128 0.0269405 0.0640867 0.0978928 0.0563279 0.0665339 0.089882 0.0730558 0.0700299 0.083118 -0.0601156 0.069265 0.108358 -0.0853283 0.0748431 0.0943127 0.0805218 0.0699772 0.0716116 0.0788647 0.0716523 0.0871678 0.0625608 0.0675556 0.0977665 0.0420141 0.0658056 0.104184 -0.087546 0.0719513 0.084209 -0.0951471 0.0595659 0.075462 -0.0910723 0.0666095 0.07853 -0.0724393 0.0529957 0.083226 -0.0238214 0.0461193 0.090605 -0.0482123 0.0484577 0.088397 0.000692135 0.0455239 0.089877 0.0245509 0.0459115 0.086278 0.047752 0.0472068 0.079902 -0.003248 0.065026 0.110636 0.0136337 0.0650837 0.110622 -0.0196499 0.0654067 0.111701 0.105576 0.065 0.228855 0.0668571 0.065 0.213558 0.0966625 0.065 0.245112 0.111565 0.065 0.199688 0.070005 0.065 0.197975 0.110626 0.065 0.21077 0.110147 0.0649989 0.18299 0.105801 0.0649992 0.16797 0.0668376 0.065 0.182396 0.0582522 0.065 0.169695 0.0455345 0.065 0.161133 0.0144195 0.065 0.161153 0.029975 0.065 0.158 0.00171244 0.065 0.16973 -0.0591 0.0650037 0.21363 -0.00685705 0.065 0.182442 -0.010005 0.065 0.198025 -0.0440033 0.065 0.236946 -0.00683758 0.065 0.213604 -0.0321181 0.065 0.251167 0.0017478 0.065 0.226305 -0.0184739 0.065 0.263448 0.0144655 0.065 0.234867 0.0332048 0.065 0.279567 0.030025 0.065 0.238 0.0147156 0.065 0.278187 -0.00320221 0.065 0.272573 0.0689508 0.065 0.269738 0.0455805 0.065 0.234847 0.0515288 0.065 0.276741 0.0843124 0.065 0.258941 0.0582876 0.065 0.22627 -0.058218 0.0274778 0.086033 -0.0580429 -0.0053898 0.08519 -0.00165788 -0.0382554 0.0878738 -0.0578679 -0.0382574 0.084347 0.0532911 -0.0382574 0.075527 0.0535969 -0.0053898 0.076332 -0.00152237 0.0274778 0.089591 0.0539027 0.0274778 0.077136 -0.109868 0.0108804 0.067193 -0.107174 0.0276932 0.069083 0.0611671 -0.0614037 0.0718569 0.0825106 -0.0690273 0.060667 0.0918883 -0.0498478 0.0554122 0.100331 -0.0224486 0.050436 0.102414 -0.00604925 0.049441 0.101612 0.0105202 0.050576 0.0986691 0.0263517 0.0532025 -0.102233 0.0439658 0.071915 -0.110216 -0.00634044 0.066471 -0.10818 -0.0233642 0.06705 -0.103854 -0.0398088 0.068736 -0.0973518 -0.0555205 0.071259 -0.0887858 -0.0703455 0.074353 -0.0654952 -0.0658257 0.0819571 -0.0391766 -0.0594674 0.086781 -0.010389 -0.0595646 0.0879409 0.0204275 -0.05776 0.084349 0.0374273 -0.0608833 0.0804023 0.0791037 0.0653166 0.13062 0.101224 0.0651136 0.154874 -0.0593414 0.06617 0.158048 -0.047838 0.0653578 0.15555 -0.0681219 0.0658102 0.193546 -0.0754505 0.0674741 0.172268 -0.0820687 0.0704338 0.143828 -0.0845109 0.0730402 0.116635 0.0815096 0.0692615 0.103715 0.0877637 0.0671107 0.122145 0.0607457 -0.0652167 0.0726098 0.0385575 -0.0651214 0.0865291 0.0614717 -0.0680359 0.076239 0.0133711 -0.0604089 0.0863217 0.013671 -0.0639082 0.0919862 -0.0113726 -0.0636244 0.0931451 -0.0309916 -0.0617827 0.0882802 -0.0315217 -0.0648936 0.0927821 -0.0508448 -0.0641786 0.0858173 -0.0514112 -0.0673751 0.0903498 -0.0712562 -0.0706246 0.0843551 0.0643966 -0.069574 0.0832811 -0.0728415 -0.0724554 0.0915016 -0.0531168 -0.068697 0.0991266 -0.0863551 -0.0737362 0.0770026 0.0801423 -0.0727022 0.0646486 0.0689508 -0.065 0.269738 0.068015 -0.0757943 0.268014 0.0515288 -0.065 0.276741 0.0946027 -0.0757943 0.244711 0.0667373 -0.0867089 0.265661 0.0338567 -0.0867089 0.274945 0.0339908 -0.0757943 0.277621 0.0924313 -0.0867089 0.243141 0.0332048 -0.065 0.279567 0.0147156 -0.065 0.278187 0.105576 -0.065 0.228855 0.0966625 -0.065 0.245112 0.0843124 -0.065 0.258941 0.0958413 -0.108 0.219395 0.0210099 -0.097 0.271141 0.0559367 -0.107571 0.0987646 0.0638358 -0.104587 0.0996429 0.0507047 -0.104507 0.0710628 0.0596143 -0.0999699 0.0665798 0.0508596 -0.0993611 0.0254714 0.0605637 -0.0948436 0.0345711 0.0623169 -0.0906522 0.00200026 0.0282876 -0.0282699 0.00199999 0.0789617 -0.0767622 0.00199717 0.0939607 -0.0574443 0.00199933 0.101434 -0.0426234 0.00199999 0.109484 -0.010689 0.00199999 0.0368571 -0.0155575 0.00199999 0.107838 0.0215958 0.00199999 0.0400051 2.5081e-05 0.00199999 0.0969195 0.0520373 0.00199999 0.0368376 0.0156036 0.00199999 0.0771523 0.078442 0.00199999 0.0282522 0.0283052 0.00199999 0.0620129 0.090883 0.00199999 0.0155345 0.0368668 0.00199999 0.0244214 0.107217 0.00200067 -2.5e-05 0.04 0.00199999 0.0449083 0.100444 0.00199999 -0.0186884 0.108427 0.00199999 -0.0155805 0.0368473 0.00199999 0.0021971 0.110097 0.00200215 -0.0282876 0.0282699 0.00199999 -0.0706396 0.0844887 0.00199966 -0.0413499 0.102022 0.00200067 -0.100272 0.0454168 0.00199999 -0.0563878 0.0944163 0.00200017 -0.110025 3.25e-07 0.00199999 -0.0368571 0.0155575 0.00199999 -0.100272 -0.0454164 0.00199999 -0.040005 -2.5111e-05 0.00199999 -0.0368376 -0.0156036 0.00199999 -0.0706406 -0.0844883 0.00199968 -0.0282522 -0.0283052 0.00199999 -0.039373 -0.102729 0.00200027 -0.0155345 -0.0368668 0.00199999 -0.0563879 -0.0944163 0.00200017 0.00220122 -0.110059 0.00200264 2.5e-05 -0.04 0.00199999 -0.0187388 -0.108387 0.00199999 0.0449083 -0.100444 0.00199999 0.0155805 -0.0368473 0.00199999 0.0244022 -0.107194 0.0020006 0.0623169 -0.0906522 0.00200026 -0.0183027 0.11426 0.155778 -0.0279905 0.112256 0.18937 0.0244214 0.107217 0.00200067 0.0573966 0.114828 0.149942 0.0338958 0.112956 0.106767 0.0470575 0.116354 0.158791 0.0283413 0.109476 0.0607744 0.0242904 0.11742 0.173038 0.0270532 0.115905 0.139959 0.016564 0.112289 0.0799608 0.0173684 0.110449 0.0462873 0.0115033 0.116385 0.146841 0.00206199 0.111824 0.0656294 0.0021971 0.110097 0.00200215 -0.00322559 0.115851 0.151053 0.00563707 0.116972 0.181878 -0.0123341 0.11118 0.0770649 -0.0138207 0.109963 0.026417 -0.0099258 0.115578 0.188968 -0.0275875 0.108464 0.0712714 -0.0278695 0.10727 0.026318 -0.0186884 0.108427 0.00199999 0.0815297 0.106315 0.143282</float_array>
                    <technique_common>
                        <accessor count="677" source="#shape0-lib-positions-array" stride="3">
                            <param name="X" type="float"/>
                            <param name="Y" type="float"/>
                            <param name="Z" type="float"/>
                        </accessor>
                    </technique_common>
                </source>
                <vertices id="shape0-lib-vertices">
                    <input semantic="POSITION" source="#shape0-lib-positions"/>
                </vertices>
                <triangles count="952">
                    <input offset="0" semantic="VERTEX" source="#shape0-lib-vertices"/>
                    <p>0 2 1 3 4 0 4 2 0 5 6 3 4 3 6 2 7 1 5 9 8 5 8 6 10 8 9 11 12 6 11 6 8 4 6 12 1 13 0 13 14 0 3 0 15 14 15 0 3 16 5 16 3 15 9 5 16 4 12 2 17 19 18 20 22 21 20 21 23 24 21 22 23 26 25 26 23 21 27 25 28 29 25 26 27 28 30 29 28 25 31 30 32 33 30 28 31 32 19 33 32 30 34 18 19 34 19 32 17 18 35 36 35 37 38 35 18 36 37 39 38 37 35 40 39 41 42 39 37 43 40 44 42 41 39 43 44 45 41 44 40 46 45 47 48 45 44 47 24 46 48 47 45 22 46 24 49 51 50 52 54 53 55 54 51 52 53 56 55 53 54 53 57 56 57 58 56 58 59 56 59 60 56 61 56 60 54 62 51 62 63 51 63 64 51 64 50 51 65 67 66 68 70 69 69 71 68 72 73 69 71 69 73 74 75 72 73 72 75 66 75 74 75 66 76 76 77 75 77 76 78 79 68 71 73 80 71 75 81 73 80 73 81 81 75 77 78 82 77 71 80 79 77 83 81 82 83 77 80 84 79 85 79 84 81 84 80 83 86 81 84 81 86 66 67 76 67 78 76 79 85 87 68 79 88 87 88 79 88 89 68 70 68 90 89 90 68 90 91 70 91 92 70 85 84 86 93 95 94 96 98 97 99 98 95 96 97 100 99 97 98 97 101 100 101 102 100 102 103 100 103 104 100 105 100 104 98 106 95 106 107 95 107 108 95 108 94 95 109 111 110 112 111 113 114 110 115 116 110 111 114 115 117 116 115 110 118 117 119 120 117 115 118 119 121 120 119 117 121 123 122 123 121 119 124 126 125 125 122 123 122 125 126 109 113 111 113 127 112 128 127 129 128 112 127 130 129 131 132 129 127 133 130 134 132 131 129 135 133 136 131 134 130 137 135 138 134 136 133 139 137 140 136 138 135 124 139 126 138 140 137 140 126 139 141 143 142 144 146 145 142 147 141 148 149 142 147 142 149 150 151 148 149 148 151 152 153 150 151 150 153 145 154 152 153 152 154 154 145 146 147 155 141 156 141 155 155 147 149 157 158 156 159 160 144 146 144 160 160 161 146 161 162 146 154 146 162 163 154 162 153 154 164 158 165 141 156 158 141 143 141 165 142 166 148 150 148 167 167 168 150 150 168 152 145 152 169 169 170 145 145 170 144 163 164 154 153 164 151 171 172 151 171 151 164 151 172 149 172 155 149 173 175 174 176 178 177 179 177 178 178 180 179 181 179 180 181 180 182 183 185 184 184 186 183 187 183 186 188 189 187 173 190 175 191 174 175 175 192 191 191 192 193 194 193 192 194 195 193 193 195 196 195 197 196 176 196 197 197 198 176 176 198 178 198 180 178 199 200 182 182 180 199 182 200 185 185 201 184 201 185 200 202 203 186 202 186 184 204 186 203 203 205 204 204 205 206 207 206 205 208 206 209 207 209 206 208 209 210 209 211 210 212 210 211 213 212 211 214 175 190 187 189 183 183 215 185 215 183 189 181 182 216 182 185 217 217 185 215 181 216 179 217 216 182 179 218 177 218 179 216 10 9 177 10 177 218 176 177 9 9 16 176 176 16 196 15 14 196 15 196 16 196 14 193 191 193 13 13 219 191 14 13 193 191 219 174 173 174 220 221 174 219 221 220 174 222 173 223 224 223 225 222 226 173 220 225 173 223 173 225 226 190 173 213 227 212 227 228 212 228 229 212 229 230 212 230 231 212 231 232 212 212 232 210 208 210 233 233 234 208 232 233 210 208 234 206 204 206 235 235 206 234 235 236 204 186 204 236 236 237 186 187 186 237 237 188 187 238 240 239 241 243 242 242 243 244 245 244 243 240 241 239 242 239 241 239 242 246 244 246 242 246 244 247 248 165 240 246 247 249 241 240 158 165 158 240 157 241 158 157 250 243 241 157 243 243 250 245 239 246 249 249 238 239 251 253 252 254 256 255 256 254 257 258 259 254 257 254 259 260 261 258 259 258 261 255 263 262 264 262 263 263 255 256 265 264 263 256 266 263 266 256 257 259 267 257 261 268 259 267 259 268 263 269 265 269 263 266 257 270 266 270 257 267 266 271 269 271 266 270 271 272 269 253 269 272 270 273 271 272 271 273 267 274 270 273 270 274 268 275 267 274 267 275 260 276 261 277 261 276 261 277 268 277 278 268 268 278 275 279 275 278 279 280 275 274 275 280 281 283 282 234 281 282 283 284 282 282 284 262 262 285 255 285 262 284 255 286 254 286 255 285 254 287 258 258 288 260 288 258 287 289 276 290 290 260 288 260 290 276 253 251 269 251 265 269 262 264 282 280 273 274 253 272 273 291 285 284 285 291 292 292 291 293 286 285 292 293 294 292 294 293 295 292 296 286 296 292 294 295 297 294 287 296 298 294 299 296 298 296 299 299 294 297 298 288 287 288 298 300 299 300 298 300 301 288 301 300 302 299 303 300 302 300 303 303 299 297 304 305 297 297 295 304 305 303 297 288 301 290 289 290 301 254 296 287 254 286 296 284 306 291 306 284 283 307 291 306 291 308 293 308 291 307 309 293 308 310 295 293 310 293 309 302 311 301 311 289 301 312 314 313 315 317 316 318 319 313 320 322 321 323 317 315 324 316 317 316 324 325 326 325 324 327 325 328 326 328 325 329 331 330 332 333 321 322 334 321 321 334 335 336 143 335 336 335 334 335 143 329 143 165 329 329 165 331 240 337 331 248 331 165 338 337 238 248 240 331 339 338 249 240 238 337 340 342 341 249 338 238 340 344 343 345 341 346 347 341 342 346 348 345 347 346 341 348 339 345 339 249 345 349 351 350 342 340 343 351 343 344 352 353 313 344 350 351 313 314 352 313 353 318 349 350 354 354 318 353 318 354 350 355 357 356 352 314 357 356 357 314 328 358 327 359 355 356 360 361 327 360 327 358 355 359 358 360 358 359 325 327 361 361 362 325 325 362 316 315 316 363 364 316 362 363 365 315 364 363 316 366 315 367 368 367 369 323 315 370 315 365 367 369 367 365 366 370 315 249 247 345 341 345 371 341 371 340 247 371 345 344 372 350 344 340 372 372 340 371 318 350 319 319 350 372 333 373 321 373 374 321 375 320 374 321 374 320 330 376 329 335 329 377 376 377 329 321 335 378 332 321 378 377 378 335 312 313 319 379 381 380 381 379 382 383 382 379 379 384 383 385 383 384 384 386 385 386 384 387 388 386 389 387 389 386 389 390 388 391 388 390 392 391 393 390 394 391 393 391 394 380 395 379 379 395 384 384 396 387 396 384 395 387 397 389 398 389 397 390 389 399 394 390 400 398 399 389 362 394 400 399 400 390 362 361 394 392 401 391 391 401 388 401 402 388 388 402 386 385 386 403 403 404 385 402 403 386 383 385 404 405 406 382 406 407 382 381 382 407 361 408 394 408 277 393 394 408 393 392 393 277 170 169 409 410 412 411 413 409 414 415 414 409 411 416 413 409 413 416 417 375 415 412 222 411 416 411 223 223 224 159 222 223 411 223 159 416 224 160 159 159 144 416 170 409 144 416 144 409 415 409 169 414 415 374 374 373 414 375 374 415 373 418 414 418 419 414 419 420 414 414 420 413 411 413 421 422 413 420 410 411 421 422 421 413 417 415 169 279 424 423 360 426 425 425 428 427 428 425 426 424 427 428 426 429 428 428 423 424 423 428 429 429 312 423 359 426 360 429 426 314 356 426 359 356 314 426 429 314 312 278 424 279 427 424 277 278 277 424 425 427 408 425 408 360 277 408 427 361 360 408 430 432 431 433 435 434 430 436 435 434 435 436 431 437 430 437 431 438 433 440 439 433 434 440 431 432 441 442 441 432 431 441 438 443 438 441 444 438 443 437 436 430 445 446 439 433 439 447 447 439 446 435 433 448 447 448 433 449 435 448 435 432 430 450 451 432 432 435 450 435 449 450 452 453 449 450 449 453 451 454 432 454 455 432 455 456 432 456 457 432 457 458 432 458 459 432 459 460 432 460 461 432 461 462 432 462 442 432 463 465 464 466 468 467 469 471 470 472 470 471 473 474 469 471 469 474 475 476 473 474 473 476 477 478 475 476 475 478 479 480 477 478 477 480 467 481 479 480 479 481 471 463 472 464 472 463 474 482 471 463 471 482 476 483 474 482 474 483 478 483 476 480 484 478 483 478 484 481 485 480 484 480 485 486 487 464 468 488 467 467 488 481 481 488 485 489 485 488 489 490 485 484 485 490 483 484 491 472 464 492 472 492 470 487 492 464 493 495 494 473 469 496 469 470 497 494 495 470 494 470 492 497 470 495 496 498 473 497 496 469 473 498 475 475 499 477 499 475 498 500 466 479 479 477 500 500 477 499 467 479 466 490 491 484 482 483 501 491 502 483 501 503 482 502 501 483 482 503 463 486 464 465 465 463 503 504 506 505 507 509 508 507 508 510 504 505 509 508 509 505 511 510 512 512 513 511 512 510 508 502 511 513 513 514 502 501 502 515 514 516 502 515 517 501 516 515 502 501 519 518 519 501 517 520 518 519 521 518 522 523 521 524 520 522 518 524 526 525 522 524 521 527 529 528 523 524 525 530 525 526 531 533 532 530 526 529 528 529 526 531 532 534 527 528 533 532 533 528 535 505 506 535 534 532 534 535 506 497 536 496 537 539 538 540 541 538 538 542 537 536 537 542 541 543 538 542 538 543 544 536 545 546 547 540 547 548 540 541 540 549 549 550 541 548 549 540 550 551 541 551 552 541 500 543 466 468 466 552 542 543 499 541 552 543 466 543 552 498 542 499 500 499 543 498 496 542 553 545 493 544 554 537 537 536 544 493 545 495 495 545 536 554 555 537 537 555 539 556 557 539 556 539 555 557 558 539 558 559 539 559 560 539 539 560 538 561 562 538 561 538 560 538 562 540 546 540 563 563 540 562 542 496 536 495 536 497 564 565 511 486 567 566 567 486 465 567 501 518 501 567 503 567 465 503 491 564 502 564 491 490 511 502 564 518 568 567 567 568 566 569 566 568 486 566 570 569 570 566 570 571 486 487 486 571 489 572 490 564 490 573 572 573 490 573 565 564 563 575 574 576 574 575 577 578 563 575 563 578 561 579 577 578 577 579 580 581 561 579 561 581 582 583 580 581 580 583 559 584 582 583 582 584 585 576 575 584 586 583 579 434 578 581 440 579 434 579 440 583 587 581 440 581 587 587 583 586 575 437 585 578 436 575 437 575 436 436 578 434 588 445 584 559 588 584 586 584 445 445 439 586 440 587 439 586 439 587 576 585 589 574 576 589 444 589 585 589 547 574 547 546 574 574 546 563 577 563 562 562 561 577 580 560 582 560 580 561 559 582 560 588 559 558 585 437 438 444 585 438 590 592 591 227 593 228 594 591 595 596 595 591 597 593 594 591 594 593 598 599 596 407 406 228 227 600 593 597 228 593 228 597 407 600 601 593 601 602 593 590 591 602 593 602 591 229 228 603 406 603 228 596 591 592 599 366 596 366 367 596 596 367 595 368 604 595 368 595 367 604 395 595 595 395 594 597 594 381 380 594 395 380 381 594 597 381 407 598 596 592 605 607 606 608 606 607 607 609 608 610 608 609 610 611 237 605 265 607 265 605 264 251 607 265 607 251 609 251 252 609 252 611 609 610 609 611 188 237 611 610 237 608 236 608 237 608 236 606 235 606 236 235 234 606 606 234 605 282 605 234 264 605 282 612 614 613 615 617 616 618 616 619 619 616 617 620 618 621 622 620 623 619 621 618 623 625 624 621 623 620 625 627 626 622 623 624 628 624 625 627 630 629 628 625 626 631 626 627 632 633 630 631 627 629 634 629 630 633 632 635 634 630 636 636 630 633 635 638 637 638 635 632 639 637 640 640 637 638 640 641 639 642 639 643 644 646 645 641 643 639 647 649 648 646 642 645 643 645 642 650 652 651 644 645 649 648 649 645 613 653 612 647 648 652 651 652 648 615 614 617 650 651 653 612 653 651 617 614 612 157 655 654 12 11 656 1 657 92 7 658 657 659 657 658 2 658 7 658 2 660 661 659 662 658 662 659 662 658 663 660 663 658 663 660 664 656 664 660 662 665 661 663 665 662 665 663 666 664 666 663 666 664 667 665 668 661 669 661 668 668 665 670 666 670 665 667 671 666 670 666 671 668 654 669 672 669 654 670 673 668 654 668 673 671 674 670 673 670 674 657 1 7 667 664 656 671 675 674 675 671 667 245 250 674 245 674 675 673 674 250 12 660 2 656 660 12 65 66 672 672 66 669 669 74 661 74 669 66 72 661 74 69 70 659 659 661 69 69 661 72 659 70 657 657 70 92 91 676 92 92 676 1 13 1 676 673 157 654 157 673 250 672 654 655 65 672 655</p>
                </triangles>
            </mesh>
        </geometry>
    </library_geometries>
    <library_visual_scenes>
        <visual_scene id="VisualSceneNode" name="VisualScene">
            <node id="node" name="node">
                <instance_geometry url="#shape0-lib"/>
            </node>
        </visual_scene>
    </library_visual_scenes>
    <scene>
        <instance_visual_scene url="#VisualSceneNode"/>
    </scene>
</COLLADA>
