<?xml version="1.0" encoding="UTF-8"?>
<COLLADA xmlns="http://www.collada.org/2005/11/COLLADASchema" version="1.4.1">
    <asset>
        <contributor>
            <author>VCGLab</author>
            <authoring_tool>VCGLib | MeshLab</authoring_tool>
        </contributor>
        <created>火 7月 1 01:26:14 2025 GMT</created>
        <modified>火 7月 1 01:26:14 2025 GMT</modified>
        <up_axis>Y_UP</up_axis>
    </asset>
    <library_geometries>
        <geometry id="shape0-lib" name="shape0">
            <mesh>
                <source id="shape0-lib-positions" name="position">
                    <float_array id="shape0-lib-positions-array" count="1170">0.0310724 0.050924 0.1965 0.0335853 0.0504917 0.154277 0.0356349 0.0430049 0.1965 0.0509475 0.0464541 0.0523969 0.0463442 0.0477879 0.070624 0.038249 0.056027 0.0609781 0.0280804 0.0577 0.143461 0.0250346 0.0577921 0.1965 0.039846 0.0488973 0.106734 0.0444056 0.0416932 0.12159 0.0387141 0.0426905 0.158995 0.0623299 0.0377864 0.0486637 0.0524032 0.0400389 0.084617 0.0615556 0.039863 0.0402321 0.0709741 0.0351706 0.0221052 0.0334568 0.0568821 0.094508 -0.0156036 0.09 0.036838 -2.51085e-05 0.09 0.040005 -0.0156036 0.0585 0.036838 -0.0283052 0.0585 0.028252 -0.0283052 0.09 0.028252 -2.5047e-05 0.0585 0.040005 -0.0368668 0.0585 0.015534 -0.0368668 0.09 0.015534 -0.04 0.0585 -2.5034e-05 -0.0368473 0.0585 -0.015581 -0.04 0.09 -2.5034e-05 -0.0282699 0.0585 -0.0282881 -0.0282699 0.09 -0.0282881 -0.0368473 0.09 -0.015581 -0.0155575 0.0585 -0.036857 2.51085e-05 0.0585 -0.0400051 2.50489e-05 0.09 -0.0400051 -0.0155575 0.09 -0.036857 0.0155575 0.09 0.036857 0.0282699 0.09 0.028288 0.0155575 0.0585 0.036857 0.0368473 0.09 0.015581 0.0368473 0.0585 0.015581 0.0282699 0.0585 0.028288 0.04 0.09 2.5034e-05 0.04 0.0585 2.5034e-05 0.0368668 0.09 -0.015534 0.0283052 0.09 -0.028252 0.0283052 0.0585 -0.028252 0.0368668 0.0585 -0.015534 0.0156036 0.09 -0.0368381 0.0156036 0.0585 -0.0368381 -0.0368668 0.09 0.015534 -0.04 0.09 -2.5034e-05 -0.0283052 0.09 0.028252 0.0156036 0.09 -0.0368381 -2.51085e-05 0.09 0.040005 2.50489e-05 0.09 -0.0400051 -0.0156036 0.09 0.036838 0.0283052 0.09 -0.028252 0.0155575 0.09 0.036857 0.0282699 0.09 0.028288 0.0368473 0.09 0.015581 0.04 0.09 2.5034e-05 0.0368668 0.09 -0.015534 -0.0155575 0.09 -0.036857 -0.0282699 0.09 -0.0282881 -0.0368473 0.09 -0.015581 -0.075 0 0 -0.0736699 -0.0365054 0.0100871 -0.0742437 -0.0348118 0.000111699 0.0168668 0.0155345 0.167 0.02 -2.5e-05 0.167 0.0083052 0.0282522 0.167 -0.0356036 -0.0368376 0.167 -0.0199749 0.040005 0.167 -0.020025 -0.040005 0.167 -0.0043964 0.0368376 0.167 -0.0483052 -0.0282522 0.167 -0.0355575 0.0368571 0.167 -0.0482699 0.0282876 0.167 -0.0568473 0.0155805 0.167 -0.06 2.5e-05 0.167 -0.0568668 -0.0155345 0.167 -0.0044425 -0.0368571 0.167 0.0082699 -0.0282876 0.167 0.0168473 -0.0155805 0.167 -0.0199749 0.040005 0.167 -0.0199749 0.040005 0.1965 -0.0043964 0.0368376 0.167 -0.0044425 -0.0368571 0.167 -0.0044425 -0.0368571 0.1965 -0.020025 -0.040005 0.167 0.0082699 -0.0282876 0.167 -0.0200251 -0.040005 0.1965 0.0168473 -0.0155805 0.167 0.0168473 -0.0155805 0.1965 0.0082699 -0.0282876 0.1965 0.02 -2.5e-05 0.167 0.02 -2.5e-05 0.1965 0.0168668 0.0155345 0.167 0.0083052 0.0282522 0.167 0.0083052 0.0282522 0.1965 0.0168668 0.0155345 0.1965 -0.0043964 0.0368376 0.1965 -0.0356036 -0.0368376 0.167 -0.0355575 0.0368571 0.167 -0.0355575 0.0368571 0.1965 -0.0482699 0.0282876 0.167 -0.0568473 0.0155805 0.167 -0.0568473 0.0155805 0.1965 -0.0482699 0.0282876 0.1965 -0.06 2.5e-05 0.167 -0.06 2.5e-05 0.1965 -0.0568668 -0.0155345 0.167 -0.0483052 -0.0282522 0.167 -0.0568668 -0.0155345 0.1965 -0.0356036 -0.0368376 0.1965 -0.0483052 -0.0282522 0.1965 -0.0398119 0.0577025 0.119452 -0.0625273 0.055934 0.119129 -0.0483155 0.055644 0.053237 -0.0149819 0.0585964 0.1209 -0.0189824 0.0589501 0.1965 0.00848216 0.0577201 0.071729 0.0334568 0.0568821 0.094508 0.0098624 0.0583941 0.122364 -0.0272081 0.0572704 0.0671797 0.038249 0.056027 0.0609781 0.0280804 0.0577 0.143461 -0.0629511 0.0565878 0.1965 0.0250346 0.0577921 0.1965 -0.0602628 0.0541685 0.0397618 0.0652052 -0.0377427 0.0351179 0.0568796 -0.0365001 0.06836 0.0716888 -0.0363623 0.018993 0.0250528 -0.0529292 0.196496 0.0357794 -0.0434751 0.15213 0.0306456 -0.055706 0.117585 0.0403396 -0.036494 0.15184 0.0400272 -0.0475366 0.101189 0.0474494 -0.0368291 0.108505 0.045736 -0.0471863 0.0716268 0.0381174 -0.0566485 0.0617526 0.0485338 -0.0479237 0.055173 0.0365903 -0.0365035 0.1965 0.0315781 -0.0452376 0.1965 0.0544285 -0.043768 0.0495345 -0.0672961 0.0510997 0.134476 -0.0678768 0.0502551 0.1965 -0.0727644 0.0419889 0.105761 -0.0681783 0.0455204 0.0257391 -0.0724564 0.0398712 0.0124881 -0.0625273 0.055934 0.119129 -0.0602628 0.0541685 0.0397618 -0.0712366 0.0429736 0.1965 -0.0629511 0.0565878 0.1965 -0.0735608 0.0379092 0 0.00824028 -0.0578398 0.072744 0.0306456 -0.055706 0.117585 0.0381174 -0.0566485 0.0617526 -0.0624371 -0.0540342 0.118819 -0.0398643 -0.055804 0.120108 -0.0600372 -0.0554404 0.041144 -0.0150677 -0.0566986 0.121564 -0.025296 -0.057549 0.0684438 -0.0483088 -0.0563566 0.054274 0.009744 -0.0564992 0.123024 0.0250528 -0.0529292 0.196496 -0.0189865 -0.0539453 0.1965 -0.0629511 -0.0514729 0.1965 0 0.0585 0.07153 0.0278317 0.0585 0.065905 0.00848216 0.0577201 0.071729 0.0673146 0.0446464 0.028437 0.073056 0.0446464 0 0.0709741 0.0351706 0.0221052 0.0660468 0.0584939 -0.0278875 0.0685799 0.0231793 -0.0291287 0.0526525 0.0227949 -0.0527155 0.0516582 0.0446464 -0.051658 0.0290332 0.0212713 -0.0687178 0.0279256 0.0584924 -0.0661244 0.0505696 0.0585 -0.05057 0.0733102 0.0337695 0.0108442 0.073867 0.0336492 0 0.0750503 -0.00227067 -4.09484e-05 0.0530599 -0.0063897 -0.0530242 0.069111 -0.00738123 -0.0291625 0.0291768 -0.00743913 -0.0691139 -1.1351e-05 -2.036e-06 -0.0750008 0 0.0293102 -0.07414 0 0.0585 -0.07153 0.07153 0.0585 0 0.0505697 0.0585 0.05057 0.0509475 0.0464541 0.0523969 0.0659054 0.0585 0.027832 0.038249 0.056027 0.0609781 0.0615556 0.039863 0.0402321 -0.0735608 0.0379092 0 -0.0727644 0.0419889 0.105761 -0.0738579 0.0339375 0.0507904 -0.0739019 -0.0279463 0.126092 -0.0747729 -0.0147399 0.0634989 -0.0744048 -0.00481362 0.145277 -0.0748974 0.00810858 0.071583 -0.0742649 0.018751 0.132884 -0.0733272 0.0347323 0.131166 -0.0721359 -0.0365 0.1965 -0.0737405 -0.00909047 0.1965 -0.07322 0.0231721 0.1965 -0.0712366 0.0429736 0.1965 -0.0721359 -0.0365 0.1965 -0.0684122 -0.0445191 0.1965 -0.0704411 -0.0428672 0.129099 -0.0651515 -0.0496751 0.033442 -0.0653733 -0.0508485 0.126391 -0.0600372 -0.0554404 0.041144 -0.0692424 -0.0438448 0.0246353 -0.0736699 -0.0365054 0.0100871 -0.0624371 -0.0540342 0.118819 -0.0629511 -0.0514729 0.1965 -0.0736104 -0.0438978 2.19345e-05 -0.0725303 -0.0585 1.09673e-05 -0.0682818 -0.036648 -0.0287504 -0.0291796 0.00819552 -0.0690702 -0.0291068 -0.021093 -0.0688349 -0.0690942 -0.00739115 -0.029205 -0.0530471 -0.00695117 -0.0530223 -0.052434 -0.0367923 -0.0523054 -0.0282903 -0.0584993 -0.0669362 -0.0668236 -0.0585 0.028228 -2.23983e-05 -0.0292761 -0.074383 -1.81533e-05 -0.0585 -0.0725307 -0.0512882 -0.0585 -0.051265 -0.0668321 -0.0585 -0.028208 -0.0651515 -0.0496751 0.033442 -0.0600372 -0.0554404 0.041144 -0.025296 -0.057549 0.0684438 -0.0282181 -0.0585 0.066828 -0.0483088 -0.0563566 0.054274 -0.0692424 -0.0438448 0.0246353 -0.0736699 -0.0365054 0.0100871 -0.0512728 -0.0585 0.05128 0.00824028 -0.0578398 0.072744 1.10213e-05 -0.0585 0.0725317 0.0668321 -0.0585 0.028208 0.0726316 -0.0584956 -0.000131011 0.0512882 -0.0585 0.051265 -0.0282903 -0.0584993 -0.0669362 1.10213e-05 -0.0585 0.0725317 -1.81533e-05 -0.0585 -0.0725307 0.0282383 -0.0585 0.066819 -0.0512882 -0.0585 -0.051265 -0.0282181 -0.0585 0.066828 -0.0512728 -0.0585 0.05128 -0.0668236 -0.0585 0.028228 -0.0725303 -0.0585 1.09673e-05 -0.0668321 -0.0585 -0.028208 0.0282181 -0.0585 -0.066828 0.0512728 -0.0585 -0.05128 0.0668236 -0.0585 -0.028228 -0.0678768 0.0502551 0.1965 -0.0629511 0.0565878 0.1965 -0.0482699 0.0282876 0.1965 -0.0189824 0.0589501 0.1965 -0.0355575 0.0368571 0.1965 -0.0199749 0.040005 0.1965 0.0250346 0.0577921 0.1965 -0.0043964 0.0368376 0.1965 0.0310724 0.050924 0.1965 0.0083052 0.0282522 0.1965 0.0168668 0.0155345 0.1965 0.0373486 0.0249791 0.1965 0.0380274 0.00329459 0.1965 0.0356349 0.0430049 0.1965 0.0377488 -0.0184118 0.1965 0.02 -2.5e-05 0.1965 0.0315781 -0.0452376 0.1965 0.0082699 -0.0282876 0.1965 0.0365903 -0.0365035 0.1965 0.0168473 -0.0155805 0.1965 0.0250528 -0.0529292 0.196496 -0.0189865 -0.0539453 0.1965 -0.0044425 -0.0368571 0.1965 -0.0200251 -0.040005 0.1965 -0.0629511 -0.0514729 0.1965 -0.0356036 -0.0368376 0.1965 -0.0684122 -0.0445191 0.1965 -0.0483052 -0.0282522 0.1965 -0.0721359 -0.0365 0.1965 -0.0568668 -0.0155345 0.1965 -0.0737405 -0.00909047 0.1965 -0.07322 0.0231721 0.1965 -0.0568473 0.0155805 0.1965 -0.06 2.5e-05 0.1965 -0.0712366 0.0429736 0.1965 0.0407367 -0.0192481 0.157323 0.0403396 -0.036494 0.15184 0.0377488 -0.0184118 0.1965 0.0721223 0.00246546 0.0220623 0.0743672 -0.00860339 0.0110656 0.0716711 -0.0222502 0.0219532 0.0733102 0.0337695 0.0108442 0.0709741 0.0351706 0.0221052 0.0659597 0.00212901 0.041641 0.0655256 -0.0215173 0.041506 0.0653295 0.0257668 0.041445 0.0553394 0.0024252 0.079693 0.0549406 -0.0206456 0.079576 0.0547007 0.0254822 0.079517 0.0469309 0.00272611 0.118326 0.0465731 -0.0199422 0.118249 0.0462825 0.0253727 0.118198 0.0410524 0.00302672 0.157357 0.040391 0.0252719 0.157287 0.0623299 0.0377864 0.0486637 0.0524032 0.0400389 0.084617 0.0444056 0.0416932 0.12159 0.0387141 0.0426905 0.158995 0.0356349 0.0430049 0.1965 0.0373486 0.0249791 0.1965 0.0380274 0.00329459 0.1965 0.0474494 -0.0368291 0.108505 0.0568796 -0.0365001 0.06836 0.0716888 -0.0363623 0.018993 0.0365903 -0.0365035 0.1965 -0.0278317 0.0585 -0.065905 -0.0155575 0.0585 -0.036857 -0.0505697 0.0585 -0.05057 0 0.0585 -0.07153 2.51085e-05 0.0585 -0.0400051 0.0279256 0.0584924 -0.0661244 0.0505696 0.0585 -0.05057 0.0156036 0.0585 -0.0368381 0.0660468 0.0584939 -0.0278875 0.0283052 0.0585 -0.028252 0.07153 0.0585 0 0.0368668 0.0585 -0.015534 0.0659054 0.0585 0.027832 0.04 0.0585 2.5034e-05 0.0505697 0.0585 0.05057 0.0368473 0.0585 0.015581 0.0278317 0.0585 0.065905 0.0155575 0.0585 0.036857 0.0282699 0.0585 0.028288 0 0.0585 0.07153 -2.5047e-05 0.0585 0.040005 -0.0278317 0.0585 0.065905 -0.0505696 0.0585 0.05057 -0.0156036 0.0585 0.036838 -0.0659054 0.0585 0.027832 -0.0283052 0.0585 0.028252 -0.0715303 0.0585 0 -0.0368668 0.0585 0.015534 -0.0659054 0.0585 -0.027832 -0.04 0.0585 -2.5034e-05 -0.0368473 0.0585 -0.015581 -0.0282699 0.0585 -0.0282881 -0.0278317 0.0585 0.065905 -0.0272081 0.0572704 0.0671797 -0.0686643 0.0220372 -0.0290635 -0.0286294 0.0393325 -0.0677666 -0.0527152 0.0220105 -0.052718 -0.0516582 0.0446464 -0.051658 -0.0673146 0.0446464 -0.028437 -0.0730557 0.0446464 0 -0.0278317 0.0585 -0.065905 -0.0724564 0.0398712 0.0124881 -0.0715303 0.0585 0 -0.0659054 0.0585 0.027832 -0.0681783 0.0455204 0.0257391 -0.0602628 0.0541685 0.0397618 -0.0505697 0.0585 -0.05057 -0.0659054 0.0585 -0.027832 -0.0505696 0.0585 0.05057 -0.0483155 0.055644 0.053237 0.074382 -0.0292761 -2.19941e-05 0.0523063 -0.0367594 -0.0524354 0.028773 -0.0366595 -0.0682656 0.0682102 -0.0367067 -0.0289145 0.0726316 -0.0584956 -0.000131011 0.0678344 -0.0438978 0.028632 0.0282181 -0.0585 -0.066828 0.0652052 -0.0377427 0.0351179 0.0716888 -0.0363623 0.018993 0.0544285 -0.043768 0.0495345 0.0668321 -0.0585 0.028208 0.0485338 -0.0479237 0.055173 0.0512882 -0.0585 0.051265 0.0668236 -0.0585 -0.028228 0.0512728 -0.0585 -0.05128 0.0381174 -0.0566485 0.0617526 0.0282383 -0.0585 0.066819</float_array>
                    <technique_common>
                        <accessor count="390" source="#shape0-lib-positions-array" stride="3">
                            <param name="X" type="float"/>
                            <param name="Y" type="float"/>
                            <param name="Z" type="float"/>
                        </accessor>
                    </technique_common>
                </source>
                <vertices id="shape0-lib-vertices">
                    <input semantic="POSITION" source="#shape0-lib-positions"/>
                </vertices>
                <triangles count="442">
                    <input offset="0" semantic="VERTEX" source="#shape0-lib-vertices"/>
                    <p>0 2 1 3 5 4 6 7 1 8 1 9 2 10 1 10 9 1 11 3 4 12 8 9 8 12 4 12 11 4 3 11 13 13 11 14 0 1 7 8 4 15 5 15 4 8 6 1 6 8 15 16 18 17 19 18 20 21 17 18 22 19 23 16 20 18 22 23 24 20 23 19 24 26 25 26 24 23 27 25 28 29 25 26 27 28 30 29 28 25 31 30 32 33 30 28 33 32 30 34 36 35 36 34 21 37 35 38 39 35 36 40 37 41 39 38 35 40 41 42 38 41 37 43 42 44 45 42 41 46 43 47 45 44 42 47 31 46 44 47 43 32 46 31 17 21 34 48 50 49 51 53 52 54 53 50 51 52 55 54 52 53 52 56 55 56 57 55 57 58 55 58 59 55 60 55 59 53 61 50 61 62 50 62 63 50 63 49 50 64 66 65 67 69 68 70 72 71 73 72 69 70 71 74 73 71 72 71 75 74 75 76 74 76 77 74 77 78 74 79 74 78 72 80 69 80 81 69 81 82 69 82 68 69 83 85 84 86 88 87 86 87 89 90 87 88 91 89 92 93 89 87 94 91 95 93 92 89 94 95 96 92 95 91 97 96 98 99 96 95 97 98 85 99 98 96 100 84 85 100 85 98 88 101 90 102 83 103 102 103 104 84 103 83 105 104 106 107 104 103 108 105 109 107 106 104 108 109 110 106 109 105 110 112 111 112 110 109 101 111 113 114 111 112 113 90 101 114 113 111 115 117 116 118 115 119 120 122 121 123 118 120 122 120 118 120 121 124 125 121 122 118 123 115 116 126 115 118 119 122 126 119 115 127 122 119 127 125 122 123 117 115 128 116 117 129 131 130 132 134 133 133 136 135 137 135 136 134 136 133 136 138 137 138 130 137 136 134 138 139 140 138 139 138 134 141 133 135 141 142 133 133 142 132 130 138 143 140 143 138 143 129 130 144 146 145 147 148 144 144 149 147 150 147 149 151 145 146 152 149 144 152 144 145 144 148 146 153 146 148 154 156 155 157 159 158 160 158 161 161 158 162 159 162 158 161 154 160 155 164 163 160 163 165 160 165 158 164 165 163 157 158 166 166 158 165 163 160 154 154 155 163 167 169 168 170 172 171 173 171 174 175 176 174 173 174 176 177 178 175 176 175 178 176 179 173 180 181 171 180 171 172 182 174 181 175 174 183 184 174 182 171 181 174 175 183 177 184 183 174 185 186 177 185 177 183 177 187 178 186 187 177 188 178 187 176 178 179 171 173 189 171 189 170 190 191 170 192 170 189 169 193 168 192 190 170 194 170 191 172 170 194 190 168 193 193 191 190 195 197 196 198 200 199 201 199 200 200 202 201 197 201 202 202 203 197 195 64 197 204 205 198 205 206 202 198 205 200 202 206 203 200 205 202 207 196 203 207 203 206 203 196 197 64 65 199 201 197 64 201 64 199 198 199 65 204 198 65 208 210 209 211 213 212 214 210 215 211 212 214 210 214 212 216 212 213 217 209 212 217 212 216 210 212 209 208 215 210 218 220 219 221 186 222 223 220 66 224 225 223 220 223 225 225 224 222 218 66 220 222 226 225 219 227 218 222 228 226 186 228 222 229 226 228 225 226 230 220 225 231 232 227 233 234 236 235 237 238 218 237 218 232 239 233 227 227 232 218 238 66 218 223 66 64 221 222 224 240 234 241 233 239 236 235 236 239 241 234 235 231 219 220 230 231 225 242 244 243 245 247 246 248 247 244 245 246 249 248 246 247 246 250 249 250 251 249 251 252 249 252 253 249 254 249 253 247 255 244 255 256 244 256 257 244 257 243 244 258 260 259 259 262 261 263 261 262 264 261 265 266 264 267 263 265 261 268 269 267 265 267 264 269 268 270 266 267 271 271 267 269 270 273 272 273 270 268 274 276 275 277 272 273 274 275 278 272 277 276 275 276 277 278 280 279 280 278 275 281 279 280 282 279 283 284 282 285 281 283 279 285 287 286 283 285 282 284 285 286 288 286 287 289 288 290 287 291 288 258 292 260 291 290 288 262 259 260 292 289 260 290 260 289 293 295 294 296 298 297 299 300 297 296 297 300 296 301 298 302 298 301 300 303 296 301 296 303 301 304 302 305 302 304 303 306 301 304 301 306 304 307 305 308 305 307 306 309 304 307 304 309 307 310 308 293 308 310 309 311 307 310 307 311 293 294 308 303 300 312 303 312 306 306 313 309 313 306 312 309 314 311 314 309 313 315 316 311 315 311 314 316 317 311 318 310 317 311 317 310 310 318 293 308 319 305 319 308 294 320 321 302 320 305 319 305 320 302 298 302 321 297 298 321 297 182 299 181 299 182 322 294 295 295 293 318 323 325 324 323 324 326 327 326 324 326 327 328 328 330 329 330 328 327 329 332 331 332 329 330 331 334 333 334 331 332 333 336 335 336 333 334 335 338 337 338 335 336 339 337 340 341 337 338 339 340 342 341 340 337 343 342 340 342 343 344 344 346 345 346 344 343 345 348 347 348 345 346 347 350 349 350 347 348 349 352 351 352 349 350 351 353 325 353 351 352 354 324 325 354 325 353 355 356 167 223 64 357 358 221 359 359 360 358 357 361 359 360 359 361 361 357 362 363 188 358 364 362 195 362 357 195 64 195 357 358 187 221 188 187 358 186 221 187 223 357 224 224 359 221 359 224 357 365 362 366 367 368 366 362 365 361 364 367 362 366 362 367 360 361 369 370 361 365 363 358 369 370 369 361 360 369 358 368 372 371 371 366 368 169 167 356 355 371 356 372 356 371 182 297 373 183 374 185 375 185 374 184 376 183 374 183 376 182 373 184 376 184 373 373 377 376 377 373 378 379 229 375 321 373 297 380 378 381 373 321 378 375 228 185 228 375 229 186 185 228 380 382 378 382 384 383 378 382 383 385 383 384 376 377 386 383 377 378 374 376 387 387 379 374 386 387 376 375 374 379 384 388 385 385 388 389 241 389 240 240 389 388</p>
                </triangles>
            </mesh>
        </geometry>
    </library_geometries>
    <library_visual_scenes>
        <visual_scene id="VisualSceneNode" name="VisualScene">
            <node id="node" name="node">
                <instance_geometry url="#shape0-lib"/>
            </node>
        </visual_scene>
    </library_visual_scenes>
    <scene>
        <instance_visual_scene url="#VisualSceneNode"/>
    </scene>
</COLLADA>
