<?xml version="1.0" encoding="UTF-8"?>
<COLLADA xmlns="http://www.collada.org/2005/11/COLLADASchema" version="1.4.1">
    <asset>
        <contributor>
            <author>VCGLab</author>
            <authoring_tool>VCGLib | MeshLab</authoring_tool>
        </contributor>
        <created>火 7月 1 01:26:34 2025 GMT</created>
        <modified>火 7月 1 01:26:34 2025 GMT</modified>
        <up_axis>Y_UP</up_axis>
    </asset>
    <library_geometries>
        <geometry id="shape0-lib" name="shape0">
            <mesh>
                <source id="shape0-lib-positions" name="position">
                    <float_array id="shape0-lib-positions-array" count="1017">-0.0141128 -0.0141659 -0.02 -0.00775269 -0.0184395 -0.02 -0.0184103 -0.00782179 -0.02 0.0184103 0.00782179 -0.02 -0.020005 -2.4913e-05 -0.02 0.020005 2.4915e-05 -0.02 -0.0184298 0.00777574 -0.02 -0.0141482 0.0141305 -0.02 -0.00779877 0.0184201 -0.02 -2.49995e-05 0.02 -0.02 0.0077527 0.0184395 -0.02 0.0141128 0.0141659 -0.02 0.0184298 -0.00777574 -0.02 0.0141482 -0.0141305 -0.02 0.0077988 -0.0184201 -0.02 2.49995e-05 -0.02 -0.02 0.0093606 -0.0128955 -0.00669992 0.0111118 -0.0136368 -0.00669992 0.0093606 -0.0128955 0 0.00862692 -0.0111121 0 0.0128776 -0.0129307 -0.00669992 0.0128776 -0.0129307 0 0.0111118 -0.0136368 0 0.0136469 -0.0111623 0 0.0136469 -0.0111617 -0.00669992 0.00862693 -0.0111115 -0.00669992 0.0111118 -0.0136368 -0.00669992 0.0093606 -0.0128955 -0.00669992 0.0128776 -0.0129307 -0.00669992 0.00862693 -0.0111115 -0.00669992 0.0093962 -0.00934314 -0.00669992 0.0136469 -0.0111617 -0.00669992 0.0129132 -0.00937831 -0.00669992 0.011162 -0.008637 -0.00669992 0.0129132 -0.00937831 -0.00669992 0.0129132 -0.00937831 0 0.011162 -0.008637 -0.00669992 0.0093962 -0.00934314 -0.00669992 0.011162 -0.008637 0 0.0093962 -0.00934314 0 -0.010418 -0.00202596 -3.57628e-07 -0.00703198 -0.00722672 -4.13656e-05 -0.0111118 -0.008637 0 -0.00936062 -0.00937831 0 -0.00862684 -0.011162 0 -0.00755886 -0.0179785 0 -0.00939624 -0.0129307 0 -0.011162 -0.0136368 0 -0.01376 -0.0138117 0 -0.0129132 -0.0128955 0 -0.013647 -0.0111118 0 -0.01795 -0.00762624 0 -0.0128776 -0.00934314 0 -0.0195049 -2.4284e-05 0 -0.017969 0.00758134 0 -0.00965714 0.00412533 0 -0.011162 0.008637 0 -0.00718581 0.00706595 -7.05719e-05 -0.00760379 0.0179596 0 -0.00203728 0.0104089 -8.34465e-07 -0.00936062 0.0128955 0 -0.0129132 0.00937831 0 -0.00939624 0.00934314 0 -0.0136469 0.0111623 0 -0.0137945 0.0137773 0 -0.0128776 0.0129307 0 -0.0111118 0.0136368 0 -0.00862695 0.0111121 0 0.0017407 0.0175438 0 0.0075589 0.0179785 0 0.00250998 0.0157748 0 -0.00250986 0.0157249 0 2.49995e-05 0.0132501 0 -0.00174073 0.0139562 0 -0.00177625 0.0175086 0 -2.43699e-05 0.0195 0 -2.49995e-05 0.0182499 0 0.0041023 0.00966686 0 0.00862692 0.0111617 0 0.00703345 0.00721767 -7.05719e-05 0.0017763 0.0139914 0 0.0129132 0.0128955 0 0.01376 0.0138117 0 0.013647 0.0111118 0 0.0093606 0.00937831 0 0.0093962 0.0129307 0 0.011162 0.0136368 0 0.01795 0.00762624 0 0.0195049 2.4287e-05 0 0.0104181 0.00202598 -3.57628e-07 0.0128776 0.00934314 0 0.0111118 0.008637 0 0.0179691 -0.00758134 0 0.0096571 -0.00412533 0 0.011162 -0.008637 0 0.00718584 -0.00706595 -7.05719e-05 0.0076038 -0.0179596 0 0.0111118 -0.0136368 0 0.0137945 -0.0137773 0 0.0129132 -0.00937831 0 0.0093962 -0.00934314 0 2.43997e-05 -0.0195 0 0.00203739 -0.0104093 -3.57628e-07 0.0136469 -0.0111623 0 0.0093606 -0.0128955 0 0.0128776 -0.0129307 0 0.00862692 -0.0111121 0 -0.00381116 -0.00933858 -4.20809e-05 -0.00862707 -0.011162 -0.00669992 -0.00862684 -0.011162 0 -0.00939624 -0.0129307 -0.00669992 -0.0136468 -0.0111118 -0.00669992 -0.0129132 -0.0128955 -0.00669992 -0.013647 -0.0111118 0 -0.011162 -0.0136368 -0.00669992 -0.0129132 -0.0128955 0 -0.00939624 -0.0129307 0 -0.011162 -0.0136368 0 -0.0111118 -0.008637 -0.00669992 -0.00936062 -0.00937831 -0.00669992 -0.0128776 -0.00934314 -0.00669992 -0.00862707 -0.011162 -0.00669992 -0.00939624 -0.0129307 -0.00669992 -0.0136468 -0.0111118 -0.00669992 -0.0129132 -0.0128955 -0.00669992 -0.011162 -0.0136368 -0.00669992 -0.00936062 -0.00937831 -0.00669992 -0.0111118 -0.008637 -0.00669992 -0.00936062 -0.00937831 0 -0.0128776 -0.00934314 -0.00669992 -0.0128776 -0.00934314 0 -0.0111118 -0.008637 0 0.020005 2.4915e-05 -0.000869989 0.0184298 -0.00777574 -0.000869989 0.0195049 2.4287e-05 0 0.0141482 -0.0141305 -0.000869989 0.0179691 -0.00758134 0 0.0077988 -0.0184201 -0.000869989 0.0076038 -0.0179596 0 0.0137945 -0.0137773 0 2.49995e-05 -0.02 -0.000869989 2.43997e-05 -0.0195 0 -0.00775269 -0.0184395 -0.000869989 -0.0141128 -0.0141659 -0.000869989 -0.00755886 -0.0179785 0 -0.0184103 -0.00782179 -0.000869989 -0.01795 -0.00762624 0 -0.01376 -0.0138117 0 -0.0195049 -2.4284e-05 0 -0.020005 -2.4913e-05 -0.000869989 -0.00707852 0.00706085 -0.00399995 -0.00390787 0.00920643 -0.00399995 -0.00921617 0.00388484 -0.00399995 0.0092162 -0.00388484 -0.00399995 -0.0100049 -2.5176e-05 -0.00399995 0.010005 2.5228e-05 -0.00399995 -0.00919663 -0.00393088 -0.00399995 -0.00704313 -0.00709616 -0.00399995 -0.00386179 -0.00922585 -0.00399995 2.49995e-05 -0.00999997 -0.00399995 0.0039079 -0.00920643 -0.00399995 0.0070785 -0.00706085 -0.00399995 0.0091966 0.00393088 -0.00399995 0.0070431 0.00709616 -0.00399995 0.0038618 0.00922585 -0.00399995 -2.49995e-05 0.00999997 -0.00399995 -0.0092 0.00392294 -0.000499964 -0.0100097 -1.06e-06 -0.000500083 -0.00965714 0.00412533 0 0.0091991 0.00392513 -0.000499964 0.0104181 0.00202598 -3.57628e-07 0.0100097 1.085e-06 -0.000500083 0.00703345 0.00721767 -7.05719e-05 0.003878 0.00921904 -0.000499964 -1.19023e-06 0.01 -0.000499964 0.0041023 0.00966686 0 -0.00388019 0.00921812 -0.000499964 -0.00203728 0.0104089 -8.34465e-07 -0.00718581 0.00706595 -7.05719e-05 -0.010418 -0.00202596 -3.57628e-07 -0.00919907 -0.00392513 -0.000499964 -0.00703198 -0.00722672 -4.13656e-05 0.0038802 -0.00921812 -0.000499964 0.00203739 -0.0104093 -3.57628e-07 1.19954e-06 -0.01 -0.000499964 -0.00381116 -0.00933858 -4.20809e-05 0.00718584 -0.00706595 -7.05719e-05 0.0096571 -0.00412533 0 0.0092 -0.00392294 -0.000499964 0.0092 -0.00392294 -0.000499964 0.0092162 -0.00388484 -0.00399995 0.0100097 1.085e-06 -0.000500083 0.00718584 -0.00706595 -7.05719e-05 0.0070785 -0.00706085 -0.00399995 0.010005 2.5228e-05 -0.00399995 0.0038802 -0.00921812 -0.000499964 0.0039079 -0.00920643 -0.00399995 1.19954e-06 -0.01 -0.000499964 2.49995e-05 -0.00999997 -0.00399995 -0.00381116 -0.00933858 -4.20809e-05 -0.00386179 -0.00922585 -0.00399995 -0.00703198 -0.00722672 -4.13656e-05 -0.00704313 -0.00709616 -0.00399995 -0.00919907 -0.00392513 -0.000499964 -0.00919663 -0.00393088 -0.00399995 -0.0100049 -2.5176e-05 -0.00399995 -0.0100097 -1.06e-06 -0.000500083 0.0091991 0.00392513 -0.000499964 0.0070431 0.00709616 -0.00399995 0.00703345 0.00721767 -7.05719e-05 0.0091966 0.00393088 -0.00399995 0.0038618 0.00922585 -0.00399995 0.003878 0.00921904 -0.000499964 -2.49995e-05 0.00999997 -0.00399995 -1.19023e-06 0.01 -0.000499964 -0.00390787 0.00920643 -0.00399995 -0.00388019 0.00921812 -0.000499964 -0.00707852 0.00706085 -0.00399995 -0.00718581 0.00706595 -7.05719e-05 -0.00921617 0.00388484 -0.00399995 -0.0092 0.00392294 -0.000499964 0.020005 2.4915e-05 -0.02 0.020005 2.4915e-05 -0.000869989 0.0184103 0.00782179 -0.02 0.0141128 0.0141659 -0.000869989 0.0141128 0.0141659 -0.02 0.0184103 0.00782179 -0.000869989 0.0077527 0.0184395 -0.000869989 0.0077527 0.0184395 -0.02 -2.49995e-05 0.02 -0.000869989 -2.49995e-05 0.02 -0.02 -0.00779877 0.0184201 -0.000869989 -0.0141482 0.0141305 -0.000869989 -0.00779877 0.0184201 -0.02 -0.0184298 0.00777574 -0.000869989 -0.0141482 0.0141305 -0.02 -0.020005 -2.4913e-05 -0.000869989 -0.0184298 0.00777574 -0.02 -0.020005 -2.4913e-05 -0.02 0.00250998 0.0157748 0 0.00250997 0.0157754 -0.00569987 0.0017407 0.0175438 0 -2.49995e-05 0.0182499 -0.00569987 -2.49995e-05 0.0182499 0 0.0017407 0.0175438 -0.00569987 -0.00177625 0.0175086 -0.00569987 -0.00251009 0.0157249 -0.00569987 -0.00177625 0.0175086 0 -0.00250986 0.0157249 0 -0.00174073 0.0139562 0 0.0017763 0.0139914 -0.00569987 0.0017763 0.0139914 0 2.49995e-05 0.0132501 0 -0.00174073 0.0139562 -0.00569987 2.49995e-05 0.0132501 -0.00569987 -2.49995e-05 0.0182499 -0.00569987 0.0017407 0.0175438 -0.00569987 -0.00177625 0.0175086 -0.00569987 0.0017763 0.0139914 -0.00569987 -0.00251009 0.0157249 -0.00569987 0.00250997 0.0157754 -0.00569987 -0.00174073 0.0139562 -0.00569987 2.49995e-05 0.0132501 -0.00569987 -0.0184103 -0.00782179 -0.02 0.0184298 -0.00777574 -0.02 0.0141482 -0.0141305 -0.02 0.0184298 -0.00777574 -0.000869989 0.0077988 -0.0184201 -0.02 0.0141482 -0.0141305 -0.000869989 2.49995e-05 -0.02 -0.02 0.0077988 -0.0184201 -0.000869989 -0.00775269 -0.0184395 -0.02 -0.00775269 -0.0184395 -0.000869989 2.49995e-05 -0.02 -0.000869989 -0.0141128 -0.0141659 -0.02 -0.0141128 -0.0141659 -0.000869989 -0.0184103 -0.00782179 -0.000869989 -0.00939624 0.00934314 -0.00669992 -0.00862696 0.0111115 -0.00669992 -0.00939624 0.00934314 0 -0.0129132 0.00937831 -0.00669992 -0.0129132 0.00937831 0 -0.0136469 0.0111617 -0.00669992 -0.011162 0.008637 -0.00669992 -0.011162 0.008637 0 -0.0136469 0.0111623 0 -0.00862695 0.0111121 0 -0.0128776 0.0129307 -0.00669992 -0.0111118 0.0136368 0 -0.0111118 0.0136368 -0.00669992 -0.0128776 0.0129307 0 -0.00936062 0.0128955 0 -0.00936062 0.0128955 -0.00669992 -0.0111118 0.0136368 -0.00669992 -0.00936062 0.0128955 -0.00669992 -0.0128776 0.0129307 -0.00669992 -0.00939624 0.00934314 -0.00669992 -0.0136469 0.0111617 -0.00669992 -0.00862696 0.0111115 -0.00669992 -0.0129132 0.00937831 -0.00669992 -0.011162 0.008637 -0.00669992 0.0184103 0.00782179 -0.000869989 0.01795 0.00762624 0 0.0141128 0.0141659 -0.000869989 0.01376 0.0138117 0 0.0075589 0.0179785 0 -2.43699e-05 0.0195 0 0.0077527 0.0184395 -0.000869989 -0.00760379 0.0179596 0 -0.00779877 0.0184201 -0.000869989 -2.49995e-05 0.02 -0.000869989 -0.0137945 0.0137773 0 -0.0141482 0.0141305 -0.000869989 -0.017969 0.00758134 0 -0.0184298 0.00777574 -0.000869989 0.0128776 0.00934314 -0.00669992 0.0128776 0.00934314 0 0.0111118 0.008637 -0.00669992 0.0136468 0.0111118 -0.00669992 0.013647 0.0111118 0 0.0111118 0.008637 0 0.0093606 0.00937831 0 0.00862692 0.0111617 0 0.0093606 0.00937831 -0.00669992 0.00862693 0.0111623 -0.00669992 0.011162 0.0136368 -0.00669992 0.0129132 0.0128955 -0.00669992 0.0093962 0.0129307 -0.00669992 0.0136468 0.0111118 -0.00669992 0.0128776 0.00934314 -0.00669992 0.00862693 0.0111623 -0.00669992 0.0093606 0.00937831 -0.00669992 0.0111118 0.008637 -0.00669992 0.0129132 0.0128955 -0.00669992 0.011162 0.0136368 -0.00669992 0.0129132 0.0128955 0 0.0093962 0.0129307 -0.00669992 0.0093962 0.0129307 0 0.011162 0.0136368 0</float_array>
                    <technique_common>
                        <accessor count="339" source="#shape0-lib-positions-array" stride="3">
                            <param name="X" type="float"/>
                            <param name="Y" type="float"/>
                            <param name="Z" type="float"/>
                        </accessor>
                    </technique_common>
                </source>
                <vertices id="shape0-lib-vertices">
                    <input semantic="POSITION" source="#shape0-lib-positions"/>
                </vertices>
                <triangles count="330">
                    <input offset="0" semantic="VERTEX" source="#shape0-lib-vertices"/>
                    <p>0 2 1 2 4 3 3 5 2 4 6 3 6 7 3 7 8 3 8 9 3 9 10 3 11 3 10 5 12 2 12 13 2 13 14 2 14 15 2 15 1 2 16 18 17 18 16 19 20 17 21 22 17 18 21 23 20 22 21 17 24 20 23 25 19 16 26 28 27 29 28 30 31 30 28 31 32 30 33 30 32 29 27 28 34 24 35 34 35 36 23 35 24 36 38 37 38 36 35 19 25 39 39 37 38 37 39 25 40 42 41 43 44 41 45 41 44 44 46 45 46 47 45 45 47 48 49 50 48 49 48 47 51 48 50 50 52 51 51 52 40 43 41 42 53 51 40 42 40 52 53 40 54 55 57 56 55 54 40 58 60 59 54 55 61 62 56 57 61 63 54 56 61 55 54 63 64 63 65 64 58 64 66 60 58 66 65 66 64 67 59 60 62 57 67 59 67 57 68 70 69 58 59 71 72 73 59 73 71 59 71 74 58 58 74 75 76 68 75 76 75 74 69 75 68 77 79 78 69 70 77 72 59 80 80 77 70 77 80 59 81 83 82 84 78 79 69 77 85 85 86 69 78 85 77 81 82 86 69 86 82 87 89 88 87 82 83 83 90 87 87 90 89 84 79 91 91 89 90 89 91 79 88 89 92 93 95 94 93 92 89 96 98 97 94 99 93 100 94 95 92 93 99 96 102 101 99 103 92 97 104 96 105 97 98 96 104 102 106 102 104 100 95 106 102 106 95 92 103 98 105 98 103 101 102 45 41 45 107 107 45 102 108 110 109 111 113 112 112 115 114 115 112 113 110 114 116 117 114 115 116 109 110 117 116 114 118 120 119 121 120 122 123 122 120 123 124 122 125 122 124 121 119 120 126 128 127 128 126 109 129 127 130 131 127 128 130 113 129 131 130 127 111 129 113 108 109 126 132 134 133 133 136 135 136 133 134 137 135 138 139 135 136 140 137 141 139 138 135 140 141 142 138 141 137 142 144 143 144 142 141 145 143 146 147 143 144 146 148 145 147 146 143 149 145 148 150 152 151 153 155 154 152 154 155 154 156 153 156 157 153 157 158 153 158 159 153 159 160 153 161 153 160 155 162 152 162 163 152 163 164 152 164 165 152 165 151 152 166 168 167 169 171 170 170 172 169 173 175 174 175 173 172 176 174 177 177 174 175 177 178 176 179 167 168 168 166 178 180 167 179 179 181 180 182 184 183 183 184 185 183 186 182 170 171 187 187 188 186 188 187 171 189 191 190 192 189 193 194 190 191 195 192 196 190 193 189 197 195 198 193 196 192 199 197 200 196 198 195 201 199 202 198 200 197 203 201 204 200 202 199 204 205 203 202 204 201 206 203 205 191 207 194 208 210 209 210 194 207 211 208 212 207 209 210 213 211 214 209 212 208 215 213 216 212 214 211 217 215 218 214 216 213 219 217 220 216 218 215 205 219 206 218 220 217 220 206 219 221 223 222 224 226 225 226 222 223 227 224 228 223 225 226 229 227 230 225 228 224 229 230 231 228 230 227 231 233 232 233 231 230 232 235 234 235 232 233 234 237 236 237 234 235 238 236 237 239 241 240 242 244 243 244 240 241 242 243 245 241 243 244 245 247 246 247 245 243 248 246 247 248 249 246 240 250 239 251 250 252 251 239 250 249 252 253 254 252 250 253 246 249 254 253 252 255 257 256 257 259 258 258 260 257 259 261 258 262 258 261 260 256 257 238 263 236 221 222 264 264 266 265 266 264 222 265 268 267 268 265 266 267 270 269 270 267 268 271 269 272 273 269 270 274 271 275 273 272 269 263 274 276 272 275 271 276 236 263 275 276 274 277 279 278 280 282 281 283 280 284 285 281 282 283 284 277 281 284 280 286 278 279 279 277 284 282 287 285 288 290 289 290 285 287 288 289 291 287 289 290 291 292 286 292 291 289 278 286 292 293 295 294 295 297 296 296 298 295 297 299 296 300 296 299 298 294 295 301 303 302 132 301 134 304 303 305 134 301 302 304 302 303 305 307 306 307 305 303 308 306 309 310 306 307 311 308 312 310 309 306 311 312 313 309 312 308 313 314 148 314 313 312 149 148 314 315 317 316 318 315 319 320 317 321 319 315 316 320 316 317 321 323 322 323 321 317 324 322 323 325 327 326 328 327 329 330 329 327 330 331 329 332 329 331 328 326 327 318 319 333 333 335 334 335 333 319 336 334 337 338 334 335 322 324 337 338 337 334 336 337 324</p>
                </triangles>
            </mesh>
        </geometry>
    </library_geometries>
    <library_visual_scenes>
        <visual_scene id="VisualSceneNode" name="VisualScene">
            <node id="node" name="node">
                <instance_geometry url="#shape0-lib"/>
            </node>
        </visual_scene>
    </library_visual_scenes>
    <scene>
        <instance_visual_scene url="#VisualSceneNode"/>
    </scene>
</COLLADA>
